<?xml version="1.0" encoding="UTF-8" standalone="no"?>
<svg
   width="1280"
   height="640"
   viewBox="0 0 1280 640"
   version="1.1"
   id="svg64"
   xmlns="http://www.w3.org/2000/svg"
   xmlns:svg="http://www.w3.org/2000/svg">
  <defs
     id="defs6">
    <style
       id="style1">
      @import url('https://fonts.googleapis.com/css2?family=Recursive:slnt,wght,CASL,CRSV,MONO@-15..0,300..900,0..1,0..1,0..1&amp;display=swap');
    </style>
    <linearGradient
       id="bg"
       x1="0"
       y1="0"
       x2="0"
       y2="905.09668"
       gradientTransform="scale(1.4142136,0.70710678)"
       gradientUnits="userSpaceOnUse">
      <stop
         offset="0%"
         stop-color="#131c2e"
         id="stop1" />
      <stop
         offset="100%"
         stop-color="#0c1220"
         id="stop2" />
    </linearGradient>
    <radialGradient
       id="glow-coral"
       cx="316.78384"
       cy="407.29349"
       r="452.54834"
       gradientTransform="scale(1.4142136,0.70710678)"
       fx="316.78384"
       fy="407.29349"
       gradientUnits="userSpaceOnUse">
      <stop
         offset="0%"
         stop-color="#F97316"
         stop-opacity="0.06"
         id="stop3" />
      <stop
         offset="100%"
         stop-color="#F97316"
         stop-opacity="0"
         id="stop4" />
    </radialGradient>
    <radialGradient
       id="glow-blue"
       cx="633.56769"
       cy="543.05804"
       r="362.03867"
       gradientTransform="scale(1.4142136,0.70710678)"
       fx="633.56769"
       fy="543.05804"
       gradientUnits="userSpaceOnUse">
      <stop
         offset="0%"
         stop-color="#1E90FF"
         stop-opacity="0.04"
         id="stop5" />
      <stop
         offset="100%"
         stop-color="#1E90FF"
         stop-opacity="0"
         id="stop6" />
    </radialGradient>
  </defs>
  <!-- Background -->
  <rect
     width="1280"
     height="640"
     fill="url(#bg)"
     id="rect6"
     x="0"
     y="0"
     style="fill:url(#bg)" />
  <rect
     width="1280"
     height="640"
     fill="url(#glow-coral)"
     id="rect7"
     x="0"
     y="0"
     style="fill:url(#glow-coral)" />
  <rect
     width="1280"
     height="640"
     fill="url(#glow-blue)"
     id="rect8"
     x="0"
     y="0"
     style="fill:url(#glow-blue)" />
  <!-- Grid -->
  <g
     stroke="#1e90ff"
     stroke-width="0.5"
     opacity="0.04"
     id="g39">
    <line
       x1="0"
       y1="0"
       x2="0"
       y2="640"
       id="line8" />
    <line
       x1="60"
       y1="0"
       x2="60"
       y2="640"
       id="line9" />
    <line
       x1="120"
       y1="0"
       x2="120"
       y2="640"
       id="line10" />
    <line
       x1="180"
       y1="0"
       x2="180"
       y2="640"
       id="line11" />
    <line
       x1="240"
       y1="0"
       x2="240"
       y2="640"
       id="line12" />
    <line
       x1="300"
       y1="0"
       x2="300"
       y2="640"
       id="line13" />
    <line
       x1="360"
       y1="0"
       x2="360"
       y2="640"
       id="line14" />
    <line
       x1="420"
       y1="0"
       x2="420"
       y2="640"
       id="line15" />
    <line
       x1="480"
       y1="0"
       x2="480"
       y2="640"
       id="line16" />
    <line
       x1="540"
       y1="0"
       x2="540"
       y2="640"
       id="line17" />
    <line
       x1="600"
       y1="0"
       x2="600"
       y2="640"
       id="line18" />
    <line
       x1="660"
       y1="0"
       x2="660"
       y2="640"
       id="line19" />
    <line
       x1="720"
       y1="0"
       x2="720"
       y2="640"
       id="line20" />
    <line
       x1="780"
       y1="0"
       x2="780"
       y2="640"
       id="line21" />
    <line
       x1="840"
       y1="0"
       x2="840"
       y2="640"
       id="line22" />
    <line
       x1="900"
       y1="0"
       x2="900"
       y2="640"
       id="line23" />
    <line
       x1="960"
       y1="0"
       x2="960"
       y2="640"
       id="line24" />
    <line
       x1="1020"
       y1="0"
       x2="1020"
       y2="640"
       id="line25" />
    <line
       x1="1080"
       y1="0"
       x2="1080"
       y2="640"
       id="line26" />
    <line
       x1="1140"
       y1="0"
       x2="1140"
       y2="640"
       id="line27" />
    <line
       x1="1200"
       y1="0"
       x2="1200"
       y2="640"
       id="line28" />
    <line
       x1="1260"
       y1="0"
       x2="1260"
       y2="640"
       id="line29" />
    <line
       x1="0"
       y1="60"
       x2="1280"
       y2="60"
       id="line30" />
    <line
       x1="0"
       y1="120"
       x2="1280"
       y2="120"
       id="line31" />
    <line
       x1="0"
       y1="180"
       x2="1280"
       y2="180"
       id="line32" />
    <line
       x1="0"
       y1="240"
       x2="1280"
       y2="240"
       id="line33" />
    <line
       x1="0"
       y1="300"
       x2="1280"
       y2="300"
       id="line34" />
    <line
       x1="0"
       y1="360"
       x2="1280"
       y2="360"
       id="line35" />
    <line
       x1="0"
       y1="420"
       x2="1280"
       y2="420"
       id="line36" />
    <line
       x1="0"
       y1="480"
       x2="1280"
       y2="480"
       id="line37" />
    <line
       x1="0"
       y1="540"
       x2="1280"
       y2="540"
       id="line38" />
    <line
       x1="0"
       y1="600"
       x2="1280"
       y2="600"
       id="line39" />
  </g>
  <!-- Large icon (left-center, faded) -->
  <g
     transform="matrix(2.9,0,0,2.9,120,160)"
     opacity="0.12"
     id="g44">
    <line
       x1="18"
       y1="50"
       x2="92"
       y2="50"
       stroke="#1e90ff"
       stroke-width="1.5"
       stroke-linecap="square"
       opacity="0.25"
       id="line40" />
    <path
       d="m 20,50 a 35,32 0 0 1 70,0"
       fill="none"
       stroke="#f97316"
       stroke-width="5"
       stroke-linecap="square"
       id="path40" />
    <path
       d="m 34,50 a 21,19 0 0 1 42,0"
       fill="none"
       stroke="#f97316"
       stroke-width="2.5"
       stroke-linecap="square"
       opacity="0.45"
       id="path41" />
    <circle
       cx="55"
       cy="50"
       r="4.5"
       fill="#f97316"
       id="circle41" />
    <line
       x1="55"
       y1="55"
       x2="26"
       y2="94"
       stroke="#1e90ff"
       stroke-width="3.5"
       stroke-linecap="square"
       id="line41" />
    <line
       x1="55"
       y1="55"
       x2="84"
       y2="94"
       stroke="#1e90ff"
       stroke-width="3.5"
       stroke-linecap="square"
       id="line42" />
    <line
       x1="55"
       y1="55"
       x2="18"
       y2="82"
       stroke="#f97316"
       stroke-width="2"
       stroke-linecap="square"
       opacity="0.45"
       id="line43" />
    <line
       x1="55"
       y1="55"
       x2="92"
       y2="82"
       stroke="#f97316"
       stroke-width="2"
       stroke-linecap="square"
       opacity="0.45"
       id="line44" />
  </g>
  <!-- Icon (actual size, next to wordmark) -->
  <g
     transform="translate(434,222)"
     id="g53">
    <rect
       width="110"
       height="110"
       fill="#0c1220"
       id="rect44"
       x="0"
       y="0" />
    <line
       x1="18"
       y1="50"
       x2="92"
       y2="50"
       stroke="#1e90ff"
       stroke-width="1.5"
       stroke-linecap="square"
       opacity="0.25"
       id="line45" />
    <path
       d="m 20,50 a 35,32 0 0 1 70,0"
       fill="none"
       stroke="#f97316"
       stroke-width="5"
       stroke-linecap="square"
       id="path45" />
    <path
       d="m 34,50 a 21,19 0 0 1 42,0"
       fill="none"
       stroke="#f97316"
       stroke-width="2.5"
       stroke-linecap="square"
       opacity="0.45"
       id="path46" />
    <circle
       cx="55"
       cy="50"
       r="4.5"
       fill="#f97316"
       id="circle46" />
    <line
       x1="55"
       y1="55"
       x2="26"
       y2="94"
       stroke="#1e90ff"
       stroke-width="3.5"
       stroke-linecap="square"
       id="line46" />
    <line
       x1="55"
       y1="55"
       x2="84"
       y2="94"
       stroke="#1e90ff"
       stroke-width="3.5"
       stroke-linecap="square"
       id="line47" />
    <line
       x1="55"
       y1="55"
       x2="18"
       y2="82"
       stroke="#f97316"
       stroke-width="2"
       stroke-linecap="square"
       opacity="0.45"
       id="line48" />
    <line
       x1="55"
       y1="55"
       x2="92"
       y2="82"
       stroke="#f97316"
       stroke-width="2"
       stroke-linecap="square"
       opacity="0.45"
       id="line49" />
    <g
       stroke="#5a6f8a"
       stroke-width="1.5"
       fill="none"
       opacity="0.3"
       id="g52">
      <polyline
         points="8,20 8,8 20,8"
         id="polyline49" />
      <polyline
         points="90,8 102,8 102,20"
         id="polyline50" />
      <polyline
         points="102,90 102,102 90,102"
         id="polyline51" />
      <polyline
         points="20,102 8,102 8,90"
         id="polyline52" />
    </g>
  </g>
  <!-- Wordmark -->
  <path
     d="M 601.875,298 H 596.75 V 276.125 H 581.65625 V 298 h -5.125 v -44.09375 h 5.125 V 271.625 H 596.75 v -17.71875 h 5.125 z m 27.65625,-44.9375 q 7.40625,0 11.28125,5.875 q 3.90625,5.84375 3.90625,17.03125 q 0,11.125 -3.875,17 q -3.875,5.875 -11.3125,5.875 q -7.375,0 -11.28125,-5.84375 q -3.875,-5.875 -3.875,-17.03125 q 0,-11.15625 3.875,-17.03125 q 3.875,-5.875 11.28125,-5.875 z m 0,41.28125 q 9.75,0 9.75,-18.375 q 0,-18.40625 -9.75,-18.40625 q -4.75,0 -7.25,4.78125 q -2.46875,4.75 -2.46875,13.625 q 0,8.96875 2.46875,13.6875 q 2.46875,4.6875 7.25,4.6875 z M 687.5,298 h -6.40625 l -12.9375,-20.03125 h -5.6875 V 298 h -5.125 v -44.09375 h 12.46875 q 6.28125,0 9.90625,3.0625 Q 683.375,260 683.375,265.4375 q 0,4.03125 -2.65625,7.1875 q -2.65625,3.125 -7.3125,4.25 z m -25.03125,-24.5 h 6.46875 q 4.0625,0 6.59375,-2.1875 q 2.53125,-2.21875 2.53125,-5.5625 q 0,-7.375 -9,-7.375 h -6.59375 z m 57.75,24.5 H 700.1875 v -4.46875 h 7.59375 V 258.375 h -7.59375 v -4.46875 h 20.03125 v 4.46875 h -7.3125 v 35.15625 h 7.3125 z M 764.125,257.5625 l -20.96875,35.96875 H 763.75 V 298 h -26.4375 v -3.59375 l 20.875,-36.03125 h -19.96875 v -4.46875 H 764.125 Z m 27.03125,-4.5 q 7.40625,0 11.28125,5.875 q 3.90625,5.84375 3.90625,17.03125 q 0,11.125 -3.875,17 q -3.875,5.875 -11.3125,5.875 q -7.375,0 -11.28125,-5.84375 Q 776,287.125 776,275.96875 q 0,-11.15625 3.875,-17.03125 q 3.875,-5.875 11.28125,-5.875 z m 0,41.28125 q 9.75,0 9.75,-18.375 q 0,-18.40625 -9.75,-18.40625 q -4.75,0 -7.25,4.78125 q -2.46875,4.75 -2.46875,13.625 q 0,8.96875 2.46875,13.6875 q 2.46875,4.6875 7.25,4.6875 z M 844.9375,298 H 839.25 L 823.4375,263.1875 V 298 h -5.125 v -44.09375 h 5.71875 l 15.875,34.5 v -34.5 h 5.03125 z"
     id="text53"
     style="font-weight:700;font-size:64px;font-family:Recursive, monospace;letter-spacing:2;fill:#f97316"
     aria-label="HORIZON" />
  <!-- Rule + tagline -->
  <line
     x1="570"
     y1="324"
     x2="600"
     y2="324"
     stroke="#2a3f5c"
     stroke-width="1"
     id="line53" />
  <path
     d="m 619.80811,320.03369 q -0.79981,-0.27295 -1.51709,-0.27295 q -0.8125,0 -1.32666,0.37451 q -0.50782,0.36817 -0.50782,1.05371 q 0,0.8125 1.33936,1.42823 q 0.99023,0.45703 1.30762,0.63476 q 0.32373,0.17774 0.6538,0.48877 q 0.33008,0.31104 0.52686,0.73633 q 0.20312,0.41895 0.20312,0.9458 q 0,1.30762 -0.88232,2.03125 q -0.87598,0.71729 -2.06934,0.71729 q -1.15527,0 -2.0249,-0.45703 l 0.21582,-0.89502 q 1.02198,0.46337 1.78369,0.46337 q 0.88868,0 1.42188,-0.45703 q 0.53955,-0.46338 0.53955,-1.26953 q 0,-0.59668 -0.34912,-1.00928 q -0.34912,-0.41894 -1.28858,-0.85058 q -0.96484,-0.44434 -1.25048,-0.60303 q -0.2793,-0.16504 -0.5586,-0.45068 q -0.27929,-0.28565 -0.43164,-0.64112 q -0.15234,-0.35546 -0.15234,-0.77441 q 0,-1.11084 0.7998,-1.73291 q 0.79981,-0.62207 2.0249,-0.62207 q 0.89502,0 1.77735,0.27295 z M 631.10449,328 h -4.67822 v -8.95654 h 4.64014 v 0.90771 h -3.59912 v 2.77393 h 3.45947 v 0.90771 h -3.45947 v 3.45948 h 3.6372 z m 10.80127,0 h -4.67822 v -8.95654 h 4.64014 v 0.90771 h -3.59913 v 2.77393 h 3.45948 v 0.90771 h -3.45948 v 3.45948 h 3.63721 z m 21.67236,-8.04883 h -3.70703 v 2.92627 h 3.37696 v 0.90772 h -3.37696 V 328 h -1.04101 v -8.95654 h 4.74804 z m 10.90284,5.23047 q 0,1.55518 -0.63477,2.27246 q -0.62842,0.71729 -1.91699,0.71729 q -2.59619,0 -2.59619,-2.96436 v -6.16357 h 1.04101 v 6.06836 q 0,2.1455 1.55518,2.1455 q 0.78076,0 1.14258,-0.50781 q 0.36816,-0.50781 0.36816,-1.65039 v -6.05566 h 1.04102 z M 686.25977,328 h -1.30127 l -2.62793,-4.06885 h -1.15528 V 328 h -1.04101 v -8.95654 h 2.53271 q 1.27588,0 2.01221,0.62207 q 0.74267,0.61572 0.74267,1.72021 q 0,0.81885 -0.53955,1.45996 q -0.53955,0.63477 -1.48535,0.86328 z m -5.08448,-4.97656 h 1.31397 q 0.82519,0 1.33935,-0.44434 q 0.51416,-0.45068 0.51416,-1.12988 q 0,-1.49805 -1.82812,-1.49805 h -1.33936 z m 15.62549,-3.13574 h -2.76123 V 328 h -1.03467 v -8.1123 h -2.77392 v -0.84424 h 6.56982 z M 706.88477,328 h -1.04102 v -4.44336 h -3.06592 V 328 h -1.04101 v -8.95654 h 1.04101 v 3.59912 h 3.06592 v -3.59912 h 1.04102 z m 10.62988,0 h -4.67822 v -8.95654 h 4.64013 v 0.90771 h -3.59912 v 2.77393 h 3.45947 v 0.90771 h -3.45947 v 3.45948 h 3.63721 z m 11.95019,0 h -1.30127 l -2.62793,-4.06885 h -1.15527 V 328 h -1.04101 v -8.95654 h 2.53271 q 1.27588,0 2.01221,0.62207 q 0.74267,0.61572 0.74267,1.72021 q 0,0.81885 -0.53955,1.45996 q -0.53955,0.63477 -1.48535,0.86328 z m -5.08447,-4.97656 h 1.31397 q 0.82519,0 1.33935,-0.44434 q 0.51416,-0.45068 0.51416,-1.12988 q 0,-1.49805 -1.82812,-1.49805 h -1.33936 z m 12.29297,3.52295 q 0.33643,0 0.56494,0.22851 q 0.22852,0.22852 0.22852,0.56494 q 0,0.34278 -0.23487,0.59034 q -0.22851,0.24121 -0.55859,0.24121 q -0.32373,0 -0.55225,-0.24121 q -0.22851,-0.24756 -0.22851,-0.59034 q 0,-0.34277 0.22217,-0.56494 q 0.22851,-0.22851 0.55859,-0.22851 z M 761.88135,328 h -1.0918 l -0.99023,-3.13574 h -2.93897 L 755.85742,328 h -1.0791 l 2.92627,-8.95654 h 1.25049 z m -2.38037,-4.04346 l -1.17432,-3.70703 l -1.16797,3.70703 z m 12.51513,3.48487 q -1.05371,0.72998 -2.44384,0.72998 q -1.73926,0 -2.64698,-1.19336 q -0.90136,-1.19336 -0.90136,-3.45313 q 0,-2.18359 0.87597,-3.41504 q 0.87598,-1.23779 2.67237,-1.23779 q 0.64746,0 1.28222,0.16504 q 0.63477,0.16504 1.02197,0.43799 l -0.34277,0.81885 q -0.89502,-0.50782 -1.96142,-0.50782 q -1.2378,0 -1.84082,0.90137 q -0.60303,0.89502 -0.60303,2.8374 q 0,3.73242 2.44385,3.73242 q 1.03466,0 2.12011,-0.63476 z m 11.19483,-7.55371 h -2.76123 V 328 h -1.03467 v -8.1123 h -2.77393 v -0.84424 h 6.56983 z m 20.78369,0.0635 h -3.70703 v 2.92627 h 3.37695 v 0.90772 H 800.2876 V 328 h -1.04102 v -8.95654 h 4.74805 z M 815.8877,328 h -1.0918 l -0.99024,-3.13574 H 810.8667 L 809.86377,328 h -1.0791 l 2.92627,-8.95654 h 1.25049 z m -2.38038,-4.04346 l -1.17431,-3.70703 l -1.16797,3.70703 z m 11.52491,-3.92285 q -0.79981,-0.27295 -1.51709,-0.27295 q -0.8125,0 -1.32666,0.37451 q -0.50782,0.36817 -0.50782,1.05371 q 0,0.8125 1.33936,1.42823 q 0.99023,0.45703 1.30762,0.63476 q 0.32373,0.17774 0.65381,0.48877 q 0.33007,0.31104 0.52685,0.73633 q 0.20313,0.41895 0.20313,0.9458 q 0,1.30762 -0.88233,2.03125 q -0.87598,0.71729 -2.06933,0.71729 q -1.15528,0 -2.02491,-0.45703 l 0.21582,-0.89502 q 1.02198,0.46337 1.78369,0.46337 q 0.88868,0 1.42188,-0.45703 q 0.53955,-0.46338 0.53955,-1.26953 q 0,-0.59668 -0.34912,-1.00928 q -0.34912,-0.41894 -1.28857,-0.85058 q -0.96485,-0.44434 -1.25049,-0.60303 q -0.2793,-0.16504 -0.5586,-0.45068 q -0.27929,-0.28565 -0.43164,-0.64112 q -0.15234,-0.35546 -0.15234,-0.77441 q 0,-1.11084 0.7998,-1.73291 q 0.79981,-0.62207 2.02491,-0.62207 q 0.89502,0 1.77734,0.27295 z m 12.18506,-0.14599 h -2.76124 V 328 h -1.03466 v -8.1123 h -2.77393 v -0.84424 h 6.56983 z M 847.12988,328 h -4.67822 v -8.95654 h 4.64014 v 0.90771 h -3.59912 v 2.77393 h 3.45947 v 0.90771 h -3.45947 v 3.45948 h 3.6372 z m 11.9502,0 h -1.30127 l -2.62793,-4.06885 h -1.15527 V 328 h -1.04102 v -8.95654 h 2.53271 q 1.27588,0 2.01221,0.62207 q 0.74268,0.61572 0.74268,1.72021 q 0,0.81885 -0.53955,1.45996 q -0.53955,0.63477 -1.48535,0.86328 z m -5.08447,-4.97656 h 1.31396 q 0.8252,0 1.33936,-0.44434 q 0.51416,-0.45068 0.51416,-1.12988 q 0,-1.49805 -1.82813,-1.49805 h -1.33935 z m 12.29296,3.52295 q 0.33643,0 0.56495,0.22851 q 0.22851,0.22852 0.22851,0.56494 q 0,0.34278 -0.23486,0.59034 q -0.22852,0.24121 -0.5586,0.24121 q -0.32373,0 -0.55224,-0.24121 q -0.22852,-0.24756 -0.22852,-0.59034 q 0,-0.34277 0.22217,-0.56494 q 0.22852,-0.22851 0.55859,-0.22851 z"
     id="text54"
     style="font-weight:500;font-size:13px;font-family:Recursive, monospace;letter-spacing:3;fill:#5a6f8a"
     aria-label="SEE FURTHER. ACT FASTER." />
  <!-- Module labels -->
  <g
     transform="translate(570,390)"
     id="g60">
    <path
       d="M 5.3613281,-7.3535156 Q 4.6230469,-7.6054687 3.9609375,-7.6054687 q -0.75,0 -1.2246094,0.3457031 q -0.46875,0.3398437 -0.46875,0.9726562 q 0,0.75 1.2363282,1.3183594 q 0.9140624,0.421875 1.2070312,0.5859375 q 0.2988281,0.1640625 0.6035156,0.4511719 q 0.3046875,0.2871093 0.4863281,0.6796875 q 0.1875,0.3867187 0.1875,0.8730468 q 0,1.2070313 -0.8144531,1.87500005 Q 4.3652344,0.15820312 3.2636719,0.15820312 q -1.0664063,0 -1.8691407,-0.421875 L 1.59375,-1.0898437 q 0.9433594,0.42773433 1.6464844,0.42773433 q 0.8203125,0 1.3125,-0.42187503 q 0.4980468,-0.4277343 0.4980468,-1.171875 q 0,-0.5507812 -0.3222656,-0.9316406 Q 4.40625,-3.5742188 3.5390625,-3.9726563 Q 2.6484375,-4.3828125 2.3847656,-4.5292969 Q 2.1269531,-4.6816406 1.8691406,-4.9453125 Q 1.6113281,-5.2089844 1.4707031,-5.5371094 q -0.140625,-0.328125 -0.140625,-0.7148437 q 0,-1.0253906 0.7382813,-1.5996094 Q 2.8066406,-8.4257813 3.9375,-8.4257813 q 0.8261719,0 1.640625,0.2519532 z M 16.375,-8.2675781 l -2.583984,4.7285156 V 0 h -0.955078 v -3.5390625 l -2.583985,-4.7285156 h 1.083985 l 1.974609,3.7207031 l 1.980469,-3.7207031 z M 25.496094,0 H 24.429687 L 21.464844,-6.5273437 V 0 h -0.960938 v -8.2675781 h 1.072266 l 2.976562,6.46875 v -6.46875 h 0.94336 z M 35.994141,0 H 34.986328 L 34.072266,-2.8945313 H 31.359375 L 30.433594,0 H 29.4375 l 2.701172,-8.2675781 h 1.154297 z m -2.197266,-3.7324219 l -1.083984,-3.421875 l -1.078125,3.421875 z m 6.507812,-4.5351562 h 2.097657 q 1.189453,0 1.904297,0.5976562 q 0.714843,0.5976563 0.714843,1.6464844 q 0,1.0546875 -0.714843,1.6875 q -0.708985,0.6269531 -1.863282,0.6269531 H 41.265625 V 0 h -0.960938 z m 0.960938,3.7207031 h 1.042969 q 1.693359,0 1.693359,-1.4179687 q 0,-0.65625 -0.462891,-1.0605469 q -0.457031,-0.4042969 -1.183593,-0.4042969 h -1.089844 z m 12.601562,-2.8066406 q -0.738281,-0.2519531 -1.40039,-0.2519531 q -0.75,0 -1.22461,0.3457031 q -0.46875,0.3398437 -0.46875,0.9726562 q 0,0.75 1.236329,1.3183594 q 0.914062,0.421875 1.207031,0.5859375 q 0.298828,0.1640625 0.603515,0.4511719 q 0.304688,0.2871093 0.486329,0.6796875 q 0.1875,0.3867187 0.1875,0.8730468 q 0,1.2070313 -0.814454,1.87500005 q -0.808593,0.66210937 -1.910156,0.66210937 q -1.066406,0 -1.86914,-0.421875 l 0.199218,-0.82617182 q 0.94336,0.42773433 1.646485,0.42773433 q 0.820312,0 1.3125,-0.42187503 q 0.498047,-0.4277343 0.498047,-1.171875 q 0,-0.5507812 -0.322266,-0.9316406 Q 52.912109,-3.5742188 52.044922,-3.9726563 Q 51.154297,-4.3828125 50.890625,-4.5292969 Q 50.632812,-4.6816406 50.375,-4.9453125 q -0.257813,-0.2636719 -0.398438,-0.5917969 q -0.140625,-0.328125 -0.140625,-0.7148437 q 0,-1.0253906 0.738282,-1.5996094 q 0.738281,-0.5742188 1.86914,-0.5742188 q 0.826172,0 1.640625,0.2519532 z M 64.025391,0 h -4.31836 v -8.2675781 h 4.283203 v 0.8378906 h -3.322265 v 2.5605469 h 3.193359 V -4.03125 h -3.193359 v 3.19335937 h 3.357422 z"
       id="text55"
       style="font-weight:600;font-size:12px;font-family:Recursive, monospace;letter-spacing:2.5;fill:#8b5cf6"
       aria-label="SYNAPSE" />
    <path
       d="M 0.91845703,9.7993164 H 2.1401367 q 1.2172852,0 1.9511719,0.8305666 q 0.7338867,0.826172 0.7338867,2.271972 q 0,1.476563 -0.7470703,2.289551 Q 3.3354492,16 2.1708984,16 H 0.91845703 Z M 1.6391602,15.371582 h 0.5097656 q 0.8833008,0 1.3974609,-0.654785 q 0.5141602,-0.654785 0.5141602,-1.814942 q 0,-1.151367 -0.5185547,-1.810546 Q 3.027832,10.427734 2.1489258,10.427734 H 1.6391602 Z M 11.264648,16 H 8.0258789 V 9.7993164 H 11.238281 V 10.427734 H 8.746582 v 1.920411 h 2.39502 v 0.628418 h -2.39502 v 2.395019 h 2.518066 z m 6.949219,-5.572266 h -2.566406 v 2.025879 h 2.337891 v 0.628418 H 15.647461 V 16 H 14.926758 V 9.7993164 h 3.287109 z M 25.066406,16 H 21.827637 V 9.7993164 h 3.212402 V 10.427734 H 22.54834 v 1.920411 h 2.395019 v 0.628418 H 22.54834 v 2.395019 h 2.518066 z m 7.107422,0 H 31.374023 L 29.150391,11.104492 V 16 H 28.429687 V 9.7993164 h 0.8042 l 2.232422,4.8515626 V 9.7993164 h 0.707519 z m 6.351563,-5.515137 Q 37.97168,10.295898 37.475098,10.295898 q -0.5625,0 -0.918457,0.259278 q -0.351563,0.254883 -0.351563,0.729492 q 0,0.5625 0.927246,0.98877 q 0.685547,0.316406 0.905274,0.439453 q 0.224121,0.123047 0.452636,0.338379 q 0.228516,0.215332 0.364746,0.509765 q 0.140625,0.290039 0.140625,0.654785 q 0,0.905274 -0.610839,1.40625 q -0.606446,0.496582 -1.432618,0.496582 q -0.799804,0 -1.401855,-0.316406 l 0.149414,-0.619629 q 0.70752,0.320801 1.234863,0.320801 q 0.615235,0 0.984375,-0.316406 q 0.373535,-0.320801 0.373535,-0.878907 q 0,-0.413085 -0.241699,-0.69873 q -0.241699,-0.290039 -0.89209,-0.588867 Q 36.490723,12.712891 36.292969,12.603027 Q 36.099609,12.48877 35.90625,12.291016 q -0.193359,-0.197754 -0.298828,-0.443848 q -0.105469,-0.246094 -0.105469,-0.536133 q 0,-0.769043 0.553711,-1.199707 Q 36.609375,9.6806641 37.45752,9.6806641 q 0.619628,0 1.230468,0.1889648 z M 45.769043,16 h -3.23877 V 9.7993164 h 3.212403 v 0.6284176 h -2.491699 v 1.920411 h 2.395019 v 0.628418 h -2.395019 v 2.395019 h 2.518066 z"
       id="text56"
       style="font-size:9px;font-family:Recursive, monospace;letter-spacing:1.5;fill:#5a6f8a"
       aria-label="DEFENSE" />
    <path
       d="m 134.59375,-4.5351562 q 0.82617,0.1933593 1.29492,0.7499999 q 0.46875,0.5566407 0.46875,1.3242188 q 0,1.125 -0.82031,1.79296875 Q 134.72266,0 133.57422,0 h -2.34961 v -8.2675781 h 2.29101 q 1.19532,0 1.86915,0.5273437 q 0.67382,0.5214844 0.67382,1.4765625 q 0,0.5859375 -0.39257,1.0429688 q -0.38672,0.4570312 -1.07227,0.6621094 z m -2.4082,-0.4453125 h 1.125 q 1.76367,0 1.76367,-1.2597657 q 0,-0.5742187 -0.4336,-0.8789062 q -0.43359,-0.3105469 -1.27148,-0.3105469 h -1.18359 z m 0,4.14257807 h 1.08984 q 0.95508,0 1.51172,-0.43359377 q 0.5625,-0.4335937 0.5625,-1.1894531 q 0,-0.8027344 -0.55078,-1.2421875 q -0.55078,-0.4394531 -1.59375,-0.4394531 h -1.01953 z M 146.58008,0 h -1.20117 l -2.42579,-3.7558594 h -1.0664 V 0 h -0.96094 v -8.2675781 h 2.33789 q 1.17774,0 1.85742,0.5742187 q 0.68555,0.5683594 0.68555,1.5878907 q 0,0.7558593 -0.49805,1.3476562 q -0.49804,0.5859375 -1.37109,0.796875 z m -4.69336,-4.59375 h 1.21289 q 0.76172,0 1.23633,-0.4101562 q 0.47461,-0.4160157 0.47461,-1.0429688 q 0,-1.3828125 -1.6875,-1.3828125 h -1.23633 z M 154.83984,0 h -3.75586 v -0.83789063 h 1.42383 V -7.4296875 h -1.42383 v -0.8378906 h 3.75586 v 0.8378906 h -1.37109 v 6.59179687 h 1.37109 z m 5.48828,-8.2675781 h 1.62891 q 1.62305,0 2.60156,1.1074219 q 0.97852,1.1015625 0.97852,3.0292968 q 0,1.96875 -0.99609,3.0527344 Q 163.55078,0 161.99805,0 h -1.66993 z m 0.96094,7.42968747 h 0.67969 q 1.17773,0 1.86328,-0.87304687 q 0.68555,-0.8730469 0.68555,-2.4199219 q 0,-1.5351562 -0.69141,-2.4140625 q -0.68555,-0.8847656 -1.85742,-0.8847656 h -0.67969 z m 13.7793,0.25195313 q -1.01367,0.74414062 -2.24414,0.74414062 q -1.61133,0 -2.44336,-1.08984375 q -0.83203,-1.09570317 -0.83203,-3.19921877 q 0,-2.0332031 0.80273,-3.1640625 q 0.8086,-1.1308594 2.47266,-1.1308594 q 0.59765,0 1.18359,0.1523438 q 0.58594,0.1523437 0.94336,0.4042969 l -0.3164,0.7558594 q -0.82618,-0.46875 -1.81055,-0.46875 q -1.13672,0 -1.69922,0.8320312 q -0.55664,0.8320313 -0.55664,2.6191406 q 0,3.44531253 2.25586,3.44531253 q 0.84961,0 1.2832,-0.35742183 v -2.0390626 h -1.48828 v -0.8320312 h 2.44922 z M 184.32422,0 h -4.31836 v -8.2675781 h 4.2832 v 0.8378906 h -3.32226 v 2.5605469 h 3.19336 V -4.03125 h -3.19336 v 3.19335937 h 3.35742 z"
       id="text57"
       style="font-weight:600;font-size:12px;font-family:Recursive, monospace;letter-spacing:2.5;fill:#f97316"
       aria-label="BRIDGE" />
    <path
       d="m 130.91846,9.7993164 h 1.22168 q 1.21728,0 1.95117,0.8305666 q 0.73389,0.826172 0.73389,2.271972 q 0,1.476563 -0.74708,2.289551 Q 133.33545,16 132.1709,16 h -1.25244 z m 0.7207,5.5722656 h 0.50977 q 0.8833,0 1.39746,-0.654785 q 0.51416,-0.654785 0.51416,-1.814942 q 0,-1.151367 -0.51856,-1.810546 q -0.51416,-0.663575 -1.39306,-0.663575 h -0.50977 z M 141.26465,16 h -3.23877 V 9.7993164 h 3.2124 v 0.6284176 h -2.4917 v 1.920411 h 2.39502 v 0.628418 h -2.39502 v 2.395019 h 2.51807 z m 3.66211,-6.2006836 H 146.5 q 0.89209,0 1.42822,0.4482426 q 0.53614,0.448242 0.53614,1.234863 q 0,0.791016 -0.53614,1.265625 q -0.53174,0.470215 -1.39746,0.470215 h -0.8833 V 16 h -0.7207 z m 0.7207,2.7905276 h 0.78223 q 1.27002,0 1.27002,-1.063477 q 0,-0.492187 -0.34717,-0.79541 q -0.34277,-0.303223 -0.8877,-0.303223 h -0.81738 z M 155.20264,16 h -3.375 V 9.7993164 h 0.7207 v 5.5722656 h 2.6543 z m 5.09033,-6.3193359 q 1.0415,0 1.58642,0.8261719 q 0.54932,0.821777 0.54932,2.395019 q 0,1.564454 -0.54492,2.390625 q -0.54492,0.826172 -1.59082,0.826172 q -1.03711,0 -1.58643,-0.821777 q -0.54492,-0.826172 -0.54492,-2.39502 q 0,-1.568847 0.54492,-2.395019 q 0.54492,-0.8261719 1.58643,-0.8261719 z m 0,5.8051759 q 1.37109,0 1.37109,-2.583985 q 0,-2.588378 -1.37109,-2.588378 q -0.66797,0 -1.01953,0.672363 q -0.34717,0.667969 -0.34717,1.916015 q 0,1.261231 0.34717,1.924805 q 0.34717,0.65918 1.01953,0.65918 z m 9.2168,-5.6865236 l -1.93799,3.5463866 V 16 h -0.71631 v -2.654297 l -1.93799,-3.5463866 h 0.81299 l 1.48096,2.7905276 l 1.48535,-2.7905276 z M 176.10303,16 h -0.69434 v -5.317383 l -0.93603,2.544434 h -0.68116 l -0.93603,-2.544434 V 16 h -0.69434 V 9.7993164 h 0.93604 L 174.13428,12.625 l 1.03271,-2.8256836 h 0.93604 z m 6.56689,0 h -3.23877 V 9.7993164 h 3.2124 v 0.6284176 h -2.49169 v 1.920411 h 2.39501 v 0.628418 h -2.39501 v 2.395019 h 2.51806 z m 7.10742,0 h -0.7998 l -2.22363,-4.895508 V 16 H 186.0332 V 9.7993164 h 0.8042 l 2.23242,4.8515626 V 9.7993164 h 0.70752 z m 7.30957,-5.616211 h -1.91162 V 16 h -0.71631 v -5.616211 h -1.92041 V 9.7993164 h 4.54834 z"
       id="text58"
       style="font-size:9px;font-family:Recursive, monospace;letter-spacing:1.5;fill:#5a6f8a"
       aria-label="DEPLOYMENT" />
    <path
       d="m 244.59375,-4.5351562 q 0.82617,0.1933593 1.29492,0.7499999 q 0.46875,0.5566407 0.46875,1.3242188 q 0,1.125 -0.82031,1.79296875 Q 244.72266,0 243.57422,0 h -2.34961 v -8.2675781 h 2.29101 q 1.19532,0 1.86915,0.5273437 q 0.67382,0.5214844 0.67382,1.4765625 q 0,0.5859375 -0.39257,1.0429688 q -0.38672,0.4570312 -1.07227,0.6621094 z m -2.4082,-0.4453125 h 1.125 q 1.76367,0 1.76367,-1.2597657 q 0,-0.5742187 -0.4336,-0.8789062 q -0.43359,-0.3105469 -1.27148,-0.3105469 h -1.18359 z m 0,4.14257807 h 1.08984 q 0.95508,0 1.51172,-0.43359377 q 0.5625,-0.4335937 0.5625,-1.1894531 q 0,-0.8027344 -0.55078,-1.2421875 q -0.55078,-0.4394531 -1.59375,-0.4394531 h -1.01953 z M 255.51953,0 h -4.31836 v -8.2675781 h 4.2832 v 0.8378906 h -3.32226 v 2.5605469 h 3.19336 V -4.03125 h -3.19336 v 3.19335937 h 3.35742 z m 10.77344,0 h -1.00781 l -0.91407,-2.8945313 H 261.6582 L 260.73242,0 h -0.99609 l 2.70117,-8.2675781 h 1.1543 z m -2.19727,-3.7324219 l -1.08398,-3.421875 l -1.07813,3.421875 z M 275.36719,0 h -0.92578 v -7.0898437 l -1.24805,3.3925781 h -0.9082 l -1.24805,-3.3925781 V 0 h -0.92578 v -8.2675781 h 1.24804 L 272.74219,-4.5 l 1.37695,-3.7675781 h 1.24805 z"
       id="text59"
       style="font-weight:600;font-size:12px;font-family:Recursive, monospace;letter-spacing:2.5;fill:#f97316"
       aria-label="BEAM" />
    <path
       d="m 242.68945,9.6806641 q 1.04151,0 1.58643,0.8261719 q 0.54932,0.821777 0.54932,2.395019 q 0,1.564454 -0.54493,2.390625 q -0.54492,0.826172 -1.59082,0.826172 q -1.03711,0 -1.58642,-0.821777 q -0.54492,-0.826172 -0.54492,-2.39502 q 0,-1.568847 0.54492,-2.395019 q 0.54492,-0.8261719 1.58642,-0.8261719 z m 0,5.8051759 q 1.3711,0 1.3711,-2.583985 q 0,-2.588378 -1.3711,-2.588378 q -0.66797,0 -1.01953,0.672363 q -0.34717,0.667969 -0.34717,1.916015 q 0,1.261231 0.34717,1.924805 q 0.34717,0.65918 1.01953,0.65918 z m 7.65674,-2.887207 q 0.61963,0.145019 0.97119,0.5625 q 0.35157,0.41748 0.35157,0.993164 q 0,0.84375 -0.61524,1.344726 Q 250.44287,16 249.58154,16 h -1.7622 V 9.7993164 h 1.71826 q 0.89648,0 1.40185,0.3955076 q 0.50537,0.391114 0.50537,1.107422 q 0,0.439453 -0.29443,0.782227 q -0.29004,0.342773 -0.8042,0.496582 z m -1.80615,-0.333985 h 0.84375 q 1.32275,0 1.32275,-0.944824 q 0,-0.430664 -0.32519,-0.659179 q -0.3252,-0.232911 -0.95362,-0.232911 h -0.88769 z m 0,3.106934 h 0.81738 q 0.71631,0 1.13379,-0.325195 q 0.42188,-0.325196 0.42188,-0.89209 q 0,-0.602051 -0.41309,-0.931641 q -0.41309,-0.32959 -1.19531,-0.32959 h -0.76465 z m 9.28271,-4.886719 q -0.55371,-0.188965 -1.05029,-0.188965 q -0.5625,0 -0.91846,0.259278 q -0.35156,0.254883 -0.35156,0.729492 q 0,0.5625 0.92725,0.98877 q 0.68554,0.316406 0.90527,0.439453 q 0.22412,0.123047 0.45264,0.338379 q 0.22851,0.215332 0.36474,0.509765 q 0.14063,0.290039 0.14063,0.654785 q 0,0.905274 -0.61084,1.40625 q -0.60645,0.496582 -1.43262,0.496582 q -0.7998,0 -1.40185,-0.316406 l 0.14941,-0.619629 q 0.70752,0.320801 1.23486,0.320801 q 0.61524,0 0.98438,-0.316406 q 0.37353,-0.320801 0.37353,-0.878907 q 0,-0.413085 -0.2417,-0.69873 q -0.24169,-0.290039 -0.89209,-0.588867 q -0.66796,-0.307617 -0.86572,-0.417481 q -0.19336,-0.114257 -0.38672,-0.312011 q -0.19336,-0.197754 -0.29882,-0.443848 q -0.10547,-0.246094 -0.10547,-0.536133 q 0,-0.769043 0.55371,-1.199707 q 0.55371,-0.4306639 1.40185,-0.4306639 q 0.61963,0 1.23047,0.1889648 z M 265.06641,16 h -3.23877 V 9.7993164 h 3.2124 v 0.6284176 h -2.4917 v 1.920411 h 2.39502 v 0.628418 h -2.39502 v 2.395019 h 2.51807 z m 7.69629,0 h -0.90088 l -1.81934,-2.816895 h -0.7998 V 16 h -0.72071 V 9.7993164 h 1.75342 q 0.8833,0 1.39307,0.4306636 q 0.51416,0.42627 0.51416,1.190918 q 0,0.566895 -0.37354,1.010743 q -0.37353,0.439453 -1.02832,0.597656 z m -3.52002,-3.445312 h 0.90966 q 0.57129,0 0.92725,-0.307618 q 0.35596,-0.312011 0.35596,-0.782226 q 0,-1.03711 -1.26563,-1.03711 h -0.92724 z M 279.65039,9.7993164 L 277.62891,16 h -0.86573 L 274.7373,9.7993164 h 0.75586 l 1.70069,5.3657226 l 1.70947,-5.3657226 z M 286.57324,16 h -0.75586 l -0.68554,-2.170898 h -2.03467 L 282.40283,16 h -0.74707 l 2.02588,-6.2006836 h 0.86572 z m -1.64795,-2.799316 l -0.81299,-2.566407 l -0.80859,2.566407 z m 6.82617,-0.602051 q 0.61963,0.145019 0.9712,0.5625 q 0.35156,0.41748 0.35156,0.993164 q 0,0.84375 -0.61524,1.344726 Q 291.84814,16 290.98682,16 h -1.76221 V 9.7993164 h 1.71826 q 0.89649,0 1.40186,0.3955076 q 0.50537,0.391114 0.50537,1.107422 q 0,0.439453 -0.29444,0.782227 q -0.29004,0.342773 -0.8042,0.496582 z m -1.80615,-0.333985 h 0.84375 q 1.32276,0 1.32276,-0.944824 q 0,-0.430664 -0.3252,-0.659179 q -0.32519,-0.232911 -0.95361,-0.232911 h -0.8877 z m 0,3.106934 h 0.81739 q 0.7163,0 1.13378,-0.325195 q 0.42188,-0.325196 0.42188,-0.89209 q 0,-0.602051 -0.41309,-0.931641 q -0.41308,-0.32959 -1.19531,-0.32959 h -0.76465 z M 299.28516,16 h -2.8169 v -0.628418 h 1.06787 v -4.943848 h -1.06787 V 9.7993164 h 2.8169 v 0.6284176 h -1.02832 v 4.943848 h 1.02832 z m 7.32275,0 h -3.375 V 9.7993164 h 0.7207 v 5.5722656 h 2.6543 z m 6.479,0 h -2.81689 v -0.628418 h 1.06787 v -4.943848 h -1.06787 V 9.7993164 h 2.81689 v 0.6284176 h -1.02832 v 4.943848 h 1.02832 z m 7.80176,-5.616211 h -1.91162 V 16 h -0.71631 v -5.616211 h -1.92041 V 9.7993164 h 4.54834 z m 6.92725,-0.5844726 l -1.93799,3.5463866 V 16 h -0.71631 v -2.654297 l -1.93799,-3.5463866 h 0.81299 l 1.48096,2.7905276 l 1.48535,-2.7905276 z"
       id="text60"
       style="font-size:9px;font-family:Recursive, monospace;letter-spacing:1.5;fill:#5a6f8a"
       aria-label="OBSERVABILITY" />
  </g>
  <!-- Decorative converging paths (bottom right, echoing icon) -->
  <g
     opacity="0.06"
     id="g61">
    <line
       x1="1100"
       y1="400"
       x2="950"
       y2="600"
       stroke="#1e90ff"
       stroke-width="4"
       stroke-linecap="square"
       id="line60" />
    <line
       x1="1100"
       y1="400"
       x2="1250"
       y2="600"
       stroke="#1e90ff"
       stroke-width="4"
       stroke-linecap="square"
       id="line61" />
    <path
       d="m 1010,400 a 90,80 0 0 1 180,0"
       fill="none"
       stroke="#f97316"
       stroke-width="5"
       stroke-linecap="square"
       id="path61" />
    <circle
       cx="1100"
       cy="400"
       r="8"
       fill="#f97316"
       id="circle61" />
  </g>
  <!-- Corner brackets (full banner frame) -->
  <g
     stroke="#5a6f8a"
     stroke-width="2"
     fill="none"
     opacity="0.15"
     id="g64">
    <polyline
       points="24,56 24,24 56,24"
       id="polyline61" />
    <polyline
       points="1224,24 1256,24 1256,56"
       id="polyline62" />
    <polyline
       points="1256,584 1256,616 1224,616"
       id="polyline63" />
    <polyline
       points="56,616 24,616 24,584"
       id="polyline64" />
  </g>
</svg>
