<?xml version="1.0" encoding="UTF-8"?>
<svg width="1280" height="640" viewBox="0 0 1280 640" xmlns="http://www.w3.org/2000/svg">
  <defs>
    <style>
      @import url('https://fonts.googleapis.com/css2?family=Recursive:slnt,wght,CASL,CRSV,MONO@-15..0,300..900,0..1,0..1,0..1&amp;display=swap');
    </style>
    <linearGradient id="bg" x1="0" y1="0" x2="0" y2="1">
      <stop offset="0%" stop-color="#131c2e"/>
      <stop offset="100%" stop-color="#0c1220"/>
    </linearGradient>
    <radialGradient id="glow-left" cx="0.25" cy="0.5" r="0.35">
      <stop offset="0%" stop-color="#F97316" stop-opacity="0.05"/>
      <stop offset="100%" stop-color="#F97316" stop-opacity="0"/>
    </radialGradient>
    <radialGradient id="glow-right" cx="0.75" cy="0.5" r="0.35">
      <stop offset="0%" stop-color="#8B5CF6" stop-opacity="0.05"/>
      <stop offset="100%" stop-color="#8B5CF6" stop-opacity="0"/>
    </radialGradient>
  </defs>

  <!-- Background -->
  <rect width="1280" height="640" fill="url(#bg)"/>
  <rect width="1280" height="640" fill="url(#glow-left)"/>
  <rect width="1280" height="640" fill="url(#glow-right)"/>

  <!-- Grid -->
  <g stroke="#1E90FF" stroke-width="0.5" opacity="0.03">
    <line x1="0" y1="60" x2="1280" y2="60"/><line x1="0" y1="120" x2="1280" y2="120"/>
    <line x1="0" y1="180" x2="1280" y2="180"/><line x1="0" y1="240" x2="1280" y2="240"/>
    <line x1="0" y1="300" x2="1280" y2="300"/><line x1="0" y1="360" x2="1280" y2="360"/>
    <line x1="0" y1="420" x2="1280" y2="420"/><line x1="0" y1="480" x2="1280" y2="480"/>
    <line x1="0" y1="540" x2="1280" y2="540"/><line x1="0" y1="600" x2="1280" y2="600"/>
    <line x1="60" y1="0" x2="60" y2="640"/><line x1="120" y1="0" x2="120" y2="640"/>
    <line x1="180" y1="0" x2="180" y2="640"/><line x1="240" y1="0" x2="240" y2="640"/>
    <line x1="300" y1="0" x2="300" y2="640"/><line x1="360" y1="0" x2="360" y2="640"/>
    <line x1="420" y1="0" x2="420" y2="640"/><line x1="480" y1="0" x2="480" y2="640"/>
    <line x1="540" y1="0" x2="540" y2="640"/><line x1="600" y1="0" x2="600" y2="640"/>
    <line x1="660" y1="0" x2="660" y2="640"/><line x1="720" y1="0" x2="720" y2="640"/>
    <line x1="780" y1="0" x2="780" y2="640"/><line x1="840" y1="0" x2="840" y2="640"/>
    <line x1="900" y1="0" x2="900" y2="640"/><line x1="960" y1="0" x2="960" y2="640"/>
    <line x1="1020" y1="0" x2="1020" y2="640"/><line x1="1080" y1="0" x2="1080" y2="640"/>
    <line x1="1140" y1="0" x2="1140" y2="640"/><line x1="1200" y1="0" x2="1200" y2="640"/>
  </g>

  <!-- Repo label -->
  <text x="640" y="140" font-family="'Recursive', monospace" font-size="12" font-weight="500" fill="#5a6f8a" letter-spacing="3" text-anchor="middle">EDGE PROTECTION PLATFORM</text>

  <!-- Center divider -->
  <line x1="640" y1="180" x2="640" y2="480" stroke="#1e2d44" stroke-width="1"/>

  <!-- === LEFT: HORIZON === -->

  <!-- Horizon icon -->
  <g transform="translate(250, 224)">
    <rect width="110" height="110" fill="#0c1220"/>
    <line x1="18" y1="50" x2="92" y2="50" stroke="#1E90FF" stroke-width="1.5" stroke-linecap="square" opacity="0.25"/>
    <path d="M20,50 A35,32 0 0 1 90,50" fill="none" stroke="#F97316" stroke-width="5" stroke-linecap="square"/>
    <path d="M34,50 A21,19 0 0 1 76,50" fill="none" stroke="#F97316" stroke-width="2.5" stroke-linecap="square" opacity="0.45"/>
    <circle cx="55" cy="50" r="4.5" fill="#F97316"/>
    <line x1="55" y1="55" x2="26" y2="94" stroke="#1E90FF" stroke-width="3.5" stroke-linecap="square"/>
    <line x1="55" y1="55" x2="84" y2="94" stroke="#1E90FF" stroke-width="3.5" stroke-linecap="square"/>
    <line x1="55" y1="55" x2="18" y2="82" stroke="#F97316" stroke-width="2" stroke-linecap="square" opacity="0.45"/>
    <line x1="55" y1="55" x2="92" y2="82" stroke="#F97316" stroke-width="2" stroke-linecap="square" opacity="0.45"/>
    <g stroke="#5a6f8a" stroke-width="1.5" fill="none" opacity="0.3">
      <polyline points="8,20 8,8 20,8"/>
      <polyline points="90,8 102,8 102,20"/>
      <polyline points="102,90 102,102 90,102"/>
      <polyline points="20,102 8,102 8,90"/>
    </g>
  </g>

  <!-- Horizon wordmark -->
  <text x="320" y="390" font-family="'Recursive', monospace" font-size="48" font-weight="700" fill="#F97316" letter-spacing="2" text-anchor="middle">HORIZON</text>

  <!-- Horizon rule + tagline -->
  <g transform="translate(320, 410)" text-anchor="middle">
    <line x1="-15" y1="0" x2="15" y2="0" stroke="#2a3f5c" stroke-width="1"/>
    <text x="0" y="20" font-family="'Recursive', monospace" font-size="11" font-weight="500" fill="#5a6f8a" letter-spacing="2.5">SEE FURTHER. ACT FASTER.</text>
  </g>

  <!-- Horizon module labels -->
  <g text-anchor="middle">
    <text x="220" y="478" font-family="'Recursive', monospace" font-size="10" font-weight="600" fill="#8B5CF6" letter-spacing="2">SYNAPSE</text>
    <text x="320" y="478" font-family="'Recursive', monospace" font-size="10" font-weight="600" fill="#F97316" letter-spacing="2">BRIDGE</text>
    <text x="420" y="478" font-family="'Recursive', monospace" font-size="10" font-weight="600" fill="#F97316" letter-spacing="2">BEAM</text>
  </g>

  <!-- === RIGHT: SYNAPSE === -->

  <!-- Synapse icon -->
  <g transform="translate(905, 224)">
    <rect width="110" height="110" fill="#0c1220"/>
    <line x1="55" y1="55" x2="28" y2="24" stroke="#1E90FF" stroke-width="2.5" stroke-linecap="square"/>
    <line x1="55" y1="55" x2="82" y2="24" stroke="#1E90FF" stroke-width="2.5" stroke-linecap="square"/>
    <line x1="55" y1="55" x2="90" y2="50" stroke="#1E90FF" stroke-width="2.5" stroke-linecap="square"/>
    <line x1="55" y1="55" x2="26" y2="76" stroke="#1E90FF" stroke-width="2.5" stroke-linecap="square"/>
    <line x1="55" y1="55" x2="78" y2="86" stroke="#8B5CF6" stroke-width="3.5" stroke-linecap="square"/>
    <line x1="28" y1="24" x2="82" y2="24" stroke="#1E90FF" stroke-width="1.5" stroke-linecap="square" opacity="0.3"/>
    <line x1="82" y1="24" x2="90" y2="50" stroke="#1E90FF" stroke-width="1.5" stroke-linecap="square" opacity="0.3"/>
    <line x1="26" y1="76" x2="78" y2="86" stroke="#8B5CF6" stroke-width="2" stroke-linecap="square" opacity="0.35"/>
    <circle cx="28" cy="24" r="4.5" fill="none" stroke="#1E90FF" stroke-width="2"/>
    <circle cx="82" cy="24" r="3.5" fill="none" stroke="#1E90FF" stroke-width="2"/>
    <circle cx="90" cy="50" r="3.5" fill="none" stroke="#1E90FF" stroke-width="2"/>
    <circle cx="26" cy="76" r="3.5" fill="none" stroke="#1E90FF" stroke-width="2"/>
    <circle cx="78" cy="86" r="5.5" fill="#8B5CF6"/>
    <circle cx="55" cy="55" r="7" fill="none" stroke="#1E90FF" stroke-width="3"/>
    <g stroke="#5a6f8a" stroke-width="1.5" fill="none" opacity="0.3">
      <polyline points="8,20 8,8 20,8"/>
      <polyline points="90,8 102,8 102,20"/>
      <polyline points="102,90 102,102 90,102"/>
      <polyline points="20,102 8,102 8,90"/>
    </g>
  </g>

  <!-- Synapse wordmark -->
  <text x="960" y="390" font-family="'Recursive', monospace" font-size="48" font-weight="700" fill="#8B5CF6" letter-spacing="2" text-anchor="middle">SYNAPSE</text>

  <!-- Synapse rule + tagline -->
  <g transform="translate(960, 410)" text-anchor="middle">
    <line x1="-15" y1="0" x2="15" y2="0" stroke="#4C1D95" stroke-width="1" opacity="0.6"/>
    <text x="0" y="20" font-family="'Recursive', monospace" font-size="11" font-weight="500" fill="#5a6f8a" letter-spacing="2.5">ON-BOARD INTELLIGENCE</text>
  </g>

  <!-- Synapse stats -->
  <g text-anchor="middle">
    <text x="880" y="478" font-family="'Recursive', monospace" font-size="10" font-weight="500" fill="#5a6f8a" letter-spacing="1">450μs</text>
    <text x="960" y="478" font-family="'Recursive', monospace" font-size="10" font-weight="500" fill="#5a6f8a" letter-spacing="1">72K RPS</text>
    <text x="1040" y="478" font-family="'Recursive', monospace" font-size="10" font-weight="500" fill="#5a6f8a" letter-spacing="1">25MB</text>
  </g>

  <!-- Footer -->
  <g text-anchor="middle">
    <line x1="550" y1="560" x2="570" y2="560" stroke="#2a3f5c" stroke-width="1"/>
    <text x="640" y="564" font-family="'Recursive', monospace" font-size="10" font-weight="500" fill="#5a6f8a" letter-spacing="2.5">FLEET INTELLIGENCE · EMBEDDED DETECTION · API SECURITY</text>
    <line x1="710" y1="560" x2="730" y2="560" stroke="#2a3f5c" stroke-width="1"/>
  </g>

  <!-- Corner brackets -->
  <g stroke="#5a6f8a" stroke-width="2" fill="none" opacity="0.15">
    <polyline points="24,56 24,24 56,24"/>
    <polyline points="1224,24 1256,24 1256,56"/>
    <polyline points="1256,584 1256,616 1224,616"/>
    <polyline points="56,616 24,616 24,584"/>
  </g>
</svg>