<?xml version="1.0" encoding="UTF-8" standalone="no"?>
<svg
   width="200"
   height="40"
   viewBox="0 0 200 40"
   version="1.1"
   id="svg10"
   xmlns="http://www.w3.org/2000/svg"
   xmlns:svg="http://www.w3.org/2000/svg">
  <defs
     id="defs1">
    <style
       id="style1">@import url('https://fonts.googleapis.com/css2?family=Recursive:slnt,wght,CASL,CRSV,MONO@-15..0,300..900,0..1,0..1,0..1&amp;display=swap');</style>
  </defs>
  <!-- Icon (scaled to 36px) -->
  <g
     transform="matrix(0.327,0,0,0.327,0,2)"
     id="g9">
    <rect
       width="110"
       height="110"
       fill="#0c1220"
       id="rect1"
       x="0"
       y="0" />
    <line
       x1="18"
       y1="50"
       x2="92"
       y2="50"
       stroke="#1e90ff"
       stroke-width="1.5"
       stroke-linecap="square"
       opacity="0.25"
       id="line1" />
    <path
       d="m 20,50 a 35,32 0 0 1 70,0"
       fill="none"
       stroke="#f97316"
       stroke-width="5"
       stroke-linecap="square"
       id="path1" />
    <path
       d="m 34,50 a 21,19 0 0 1 42,0"
       fill="none"
       stroke="#f97316"
       stroke-width="2.5"
       stroke-linecap="square"
       opacity="0.45"
       id="path2" />
    <circle
       cx="55"
       cy="50"
       r="4.5"
       fill="#f97316"
       id="circle2" />
    <line
       x1="55"
       y1="55"
       x2="26"
       y2="94"
       stroke="#1e90ff"
       stroke-width="3.5"
       stroke-linecap="square"
       id="line2" />
    <line
       x1="55"
       y1="55"
       x2="84"
       y2="94"
       stroke="#1e90ff"
       stroke-width="3.5"
       stroke-linecap="square"
       id="line3" />
    <line
       x1="55"
       y1="55"
       x2="18"
       y2="82"
       stroke="#f97316"
       stroke-width="2"
       stroke-linecap="square"
       opacity="0.45"
       id="line4" />
    <line
       x1="55"
       y1="55"
       x2="92"
       y2="82"
       stroke="#f97316"
       stroke-width="2"
       stroke-linecap="square"
       opacity="0.45"
       id="line5" />
    <g
       stroke="#5a6f8a"
       stroke-width="1.5"
       fill="none"
       opacity="0.3"
       id="g8">
      <polyline
         points="8,20 8,8 20,8"
         id="polyline5" />
      <polyline
         points="90,8 102,8 102,20"
         id="polyline6" />
      <polyline
         points="102,90 102,102 90,102"
         id="polyline7" />
      <polyline
         points="20,102 8,102 8,90"
         id="polyline8" />
    </g>
  </g>
  <!-- Wordmark -->
  <path
     d="M 55.960937,24 H 54.359375 V 17.164062 H 49.642578 V 24 H 48.041016 V 10.220703 h 1.601562 v 5.53711 h 4.716797 v -5.53711 h 1.601562 z M 65.178515,9.9570313 q 2.314454,0 3.525391,1.8359377 q 1.220703,1.826172 1.220703,5.322265 q 0,3.476563 -1.210937,5.3125 q -1.210938,1.835938 -3.535157,1.835938 q -2.304687,0 -3.52539,-1.826172 q -1.210938,-1.835938 -1.210938,-5.322266 q 0,-3.486328 1.210938,-5.322265 q 1.210937,-1.8359377 3.52539,-1.8359377 z m 0,12.9003907 q 3.046875,0 3.046875,-5.742188 q 0,-5.751953 -3.046875,-5.751953 q -1.484375,0 -2.265625,1.494141 q -0.771484,1.484375 -0.771484,4.257812 q 0,2.802735 0.771484,4.277344 q 0.771485,1.464844 2.265625,1.464844 z M 83.86875,24 H 81.866796 L 77.823828,17.740234 H 76.046484 V 24 H 74.444921 V 10.220703 h 3.896485 q 1.96289,0 3.095703,0.957031 q 1.142578,0.947266 1.142578,2.646485 q 0,1.259765 -0.830078,2.246093 q -0.830078,0.976563 -2.285156,1.328125 z m -7.822266,-7.65625 h 2.021484 q 1.269532,0 2.060547,-0.683594 q 0.791016,-0.693359 0.791016,-1.738281 q 0,-2.304687 -2.8125,-2.304687 H 76.046484 Z M 94.668358,24 h -6.259766 v -1.396484 h 2.373047 V 11.617188 h -2.373047 v -1.396485 h 6.259766 v 1.396485 h -2.285156 v 10.986328 h 2.285156 z M 108.96406,11.363281 l -6.55273,11.240235 h 6.43554 V 24 h -8.26171 v -1.123047 l 6.52343,-11.259765 h -6.24023 v -1.396485 h 8.0957 z m 9.02227,-1.4062497 q 2.31445,0 3.52539,1.8359377 q 1.2207,1.826172 1.2207,5.322265 q 0,3.476563 -1.21094,5.3125 q -1.21093,1.835938 -3.53515,1.835938 q -2.30469,0 -3.52539,-1.826172 Q 113.25,20.601562 113.25,17.115234 q 0,-3.486328 1.21094,-5.322265 q 1.21094,-1.8359377 3.52539,-1.8359377 z m 0,12.9003907 q 3.04687,0 3.04687,-5.742188 q 0,-5.751953 -3.04687,-5.751953 q -1.48438,0 -2.26563,1.494141 q -0.77148,1.484375 -0.77148,4.257812 q 0,2.802735 0.77148,4.277344 q 0.77149,1.464844 2.26563,1.464844 z M 135.36797,24 h -1.77735 l -4.9414,-10.878906 V 24 h -1.60157 V 10.220703 h 1.78711 l 4.96094,10.78125 v -10.78125 h 1.57227 z"
     id="text9"
     style="font-weight:700;font-size:20px;font-family:Recursive, monospace;letter-spacing:1.2;fill:#f97316"
     aria-label="HORIZON" />
  <!-- Rule + tagline -->
  <line
     x1="46"
     y1="31"
     x2="60"
     y2="31"
     stroke="#2a3f5c"
     stroke-width="0.75"
     id="line9" />
  <path
     d="m 66.680664,30.323242 q -0.369141,-0.125976 -0.700195,-0.125976 q -0.375,0 -0.612305,0.172851 q -0.234375,0.169922 -0.234375,0.486328 q 0,0.375 0.618164,0.65918 q 0.457031,0.210937 0.603516,0.292969 q 0.149414,0.08203 0.301758,0.225586 q 0.152343,0.143554 0.243164,0.339843 q 0.09375,0.19336 0.09375,0.436524 q 0,0.603515 -0.407227,0.9375 q -0.404297,0.331055 -0.955078,0.331055 q -0.533203,0 -0.93457,-0.210938 l 0.09961,-0.413086 q 0.47168,0.213867 0.823242,0.213867 q 0.410156,0 0.65625,-0.210937 q 0.249024,-0.213867 0.249024,-0.585938 q 0,-0.27539 -0.161133,-0.46582 Q 66.203126,32.212891 65.769532,32.013672 Q 65.32422,31.808594 65.192384,31.735352 Q 65.063477,31.65918 64.93457,31.527344 q -0.128906,-0.131836 -0.199218,-0.295899 q -0.07031,-0.164062 -0.07031,-0.357422 q 0,-0.512695 0.369141,-0.799804 q 0.36914,-0.28711 0.93457,-0.28711 q 0.413086,0 0.820312,0.125977 z M 72.009766,34 h -2.15918 v -4.133789 h 2.141601 v 0.418945 h -1.661132 v 1.280274 h 1.596679 v 0.418945 h -1.596679 v 1.59668 h 1.678711 z m 5.100586,0 h -2.15918 v -4.133789 h 2.141601 v 0.418945 h -1.661132 v 1.280274 h 1.596679 v 0.418945 h -1.596679 v 1.59668 h 1.678711 z M 87.34375,30.285156 h -1.710938 v 1.350586 h 1.558594 v 0.418945 H 85.632812 V 34 h -0.480468 v -4.133789 h 2.191406 z m 5.147461,2.414063 q 0,0.717773 -0.292969,1.048828 q -0.290039,0.331055 -0.884765,0.331055 q -1.198243,0 -1.198243,-1.368165 v -2.844726 h 0.480469 v 2.800781 q 0,0.990235 0.717774,0.990235 q 0.360351,0 0.527343,-0.234375 q 0.169922,-0.234375 0.169922,-0.761719 v -2.794922 h 0.480469 z M 98.042969,34 H 97.442383 L 96.229492,32.12207 H 95.696289 V 34 H 95.21582 v -4.133789 h 1.168946 q 0.588867,0 0.928711,0.287109 q 0.342773,0.28418 0.342773,0.793946 q 0,0.377929 -0.249023,0.673828 q -0.249024,0.292968 -0.685547,0.398437 z m -2.34668,-2.296875 h 0.606445 q 0.38086,0 0.618164,-0.205078 q 0.237305,-0.208008 0.237305,-0.521485 q 0,-0.691406 -0.84375,-0.691406 h -0.618164 z m 7.327151,-1.447266 h -1.27442 V 34 h -0.47754 v -3.744141 h -1.280269 v -0.389648 h 3.032229 z M 107.79297,34 h -0.48047 v -2.050781 h -1.41504 V 34 h -0.48047 v -4.133789 h 0.48047 v 1.661133 h 1.41504 v -1.661133 h 0.48047 z m 5.02148,0 h -2.15918 v -4.133789 h 2.14161 v 0.418945 h -1.66114 v 1.280274 h 1.59668 v 0.418945 h -1.59668 v 1.59668 h 1.67871 z m 5.63086,0 h -0.60058 l -1.21289,-1.87793 h -0.53321 V 34 h -0.48047 v -4.133789 h 1.16895 q 0.58887,0 0.92871,0.287109 q 0.34277,0.28418 0.34277,0.793946 q 0,0.377929 -0.24902,0.673828 q -0.24902,0.292968 -0.68555,0.398437 z m -2.34668,-2.296875 h 0.60645 q 0.38086,0 0.61816,-0.205078 q 0.23731,-0.208008 0.23731,-0.521485 q 0,-0.691406 -0.84375,-0.691406 h -0.61817 z m 5.78907,1.625977 q 0.15527,0 0.26074,0.105468 q 0.10547,0.105469 0.10547,0.260742 q 0,0.158204 -0.1084,0.272461 q -0.10547,0.111329 -0.25781,0.111329 q -0.14942,0 -0.25489,-0.111329 q -0.10547,-0.114257 -0.10547,-0.272461 q 0,-0.158203 0.10254,-0.260742 q 0.10547,-0.105468 0.25782,-0.105468 z M 133.75293,34 h -0.50391 l -0.45703,-1.447266 h -1.35644 L 130.97266,34 h -0.49805 l 1.35059,-4.133789 h 0.57714 z m -1.09863,-1.866211 l -0.542,-1.710937 l -0.53906,1.710937 z m 5.8916,1.608398 q -0.48633,0.336915 -1.12793,0.336915 q -0.80274,0 -1.22168,-0.550782 q -0.41602,-0.550781 -0.41602,-1.59375 q 0,-1.007812 0.4043,-1.576172 q 0.4043,-0.571289 1.2334,-0.571289 q 0.29883,0 0.5918,0.07617 q 0.29296,0.07617 0.47168,0.202149 l -0.15821,0.377929 q -0.41308,-0.234375 -0.90527,-0.234375 q -0.57129,0 -0.84961,0.416016 q -0.27832,0.413086 -0.27832,1.30957 q 0,1.722657 1.12793,1.722657 q 0.47754,0 0.97851,-0.292969 z m 5.28222,-3.486328 h -1.27441 V 34 h -0.47754 v -3.744141 h -1.28027 v -0.389648 h 3.03222 z m 9.82325,0.0293 h -1.71094 v 1.350586 h 1.55859 v 0.418945 h -1.55859 V 34 h -0.48047 v -4.133789 h 2.19141 z M 159.25586,34 h -0.50391 l -0.45703,-1.447266 h -1.35644 L 156.47559,34 h -0.49805 l 1.35058,-4.133789 h 0.57715 z m -1.09863,-1.866211 l -0.542,-1.710937 l -0.53906,1.710937 z m 5.43457,-1.810547 q -0.36914,-0.125976 -0.7002,-0.125976 q -0.375,0 -0.6123,0.172851 q -0.23438,0.169922 -0.23438,0.486328 q 0,0.375 0.61817,0.65918 q 0.45703,0.210937 0.60351,0.292969 q 0.14942,0.08203 0.30176,0.225586 q 0.15234,0.143554 0.24316,0.339843 q 0.0937,0.19336 0.0937,0.436524 q 0,0.603515 -0.40722,0.9375 q -0.4043,0.331055 -0.95508,0.331055 q -0.5332,0 -0.93457,-0.210938 l 0.0996,-0.413086 q 0.47168,0.213867 0.82324,0.213867 q 0.41016,0 0.65625,-0.210937 q 0.24902,-0.213867 0.24902,-0.585938 q 0,-0.27539 -0.16113,-0.46582 q -0.16113,-0.193359 -0.59473,-0.392578 q -0.44531,-0.205078 -0.57714,-0.27832 q -0.12891,-0.07617 -0.25782,-0.208008 q -0.1289,-0.131836 -0.19922,-0.295899 q -0.0703,-0.164062 -0.0703,-0.357422 q 0,-0.512695 0.36914,-0.799804 q 0.36914,-0.28711 0.93457,-0.28711 q 0.41309,0 0.82032,0.125977 z m 5.73925,-0.06738 h -1.27441 V 34 h -0.47754 v -3.744141 h -1.28027 v -0.389648 h 3.03222 z M 174.02148,34 h -2.15918 v -4.133789 h 2.14161 v 0.418945 h -1.66114 v 1.280274 h 1.59668 v 0.418945 h -1.59668 v 1.59668 h 1.67871 z m 5.63086,0 h -0.60058 l -1.21289,-1.87793 h -0.53321 V 34 h -0.48046 v -4.133789 h 1.16894 q 0.58887,0 0.92871,0.287109 q 0.34277,0.28418 0.34277,0.793946 q 0,0.377929 -0.24902,0.673828 q -0.24902,0.292968 -0.68555,0.398437 z m -2.34668,-2.296875 h 0.60645 q 0.38086,0 0.61816,-0.205078 q 0.23731,-0.208008 0.23731,-0.521485 q 0,-0.691406 -0.84375,-0.691406 h -0.61817 z m 5.78907,1.625977 q 0.15527,0 0.26074,0.105468 q 0.10547,0.105469 0.10547,0.260742 q 0,0.158204 -0.1084,0.272461 q -0.10547,0.111329 -0.25781,0.111329 q -0.14942,0 -0.25489,-0.111329 q -0.10547,-0.114257 -0.10547,-0.272461 q 0,-0.158203 0.10254,-0.260742 q 0.10547,-0.105468 0.25782,-0.105468 z"
     id="text10"
     style="font-weight:500;font-size:6px;font-family:Recursive, monospace;letter-spacing:1.5;fill:#5a6f8a"
     aria-label="SEE FURTHER. ACT FASTER." />
</svg>
