<?xml version="1.0" encoding="UTF-8" standalone="no"?>
<svg
   width="95.5"
   height="95.5"
   viewBox="0 0 95.5 95.5"
   version="1.1"
   id="svg14"
   xmlns="http://www.w3.org/2000/svg"
   xmlns:svg="http://www.w3.org/2000/svg">
  <defs
     id="defs14" />
  <rect
     x="14.75"
     y="14.75"
     width="66"
     height="66"
     fill="none"
     stroke="#1e90ff"
     stroke-width="1.5"
     stroke-linecap="square"
     opacity="0.2"
     stroke-dasharray="4, 4"
     id="rect2" />
  <line
     x1="47.75"
     y1="14.75"
     x2="47.75"
     y2="80.75"
     stroke="#1e90ff"
     stroke-width="1"
     stroke-linecap="square"
     opacity="0.12"
     id="line2" />
  <line
     x1="14.75"
     y1="47.75"
     x2="80.75"
     y2="47.75"
     stroke="#1e90ff"
     stroke-width="1"
     stroke-linecap="square"
     opacity="0.12"
     id="line3" />
  <rect
     x="20.75"
     y="20.75"
     width="10"
     height="10"
     fill="none"
     stroke="#f97316"
     stroke-width="2"
     id="rect3" />
  <rect
     x="42.75"
     y="20.75"
     width="10"
     height="10"
     fill="none"
     stroke="#f97316"
     stroke-width="2"
     id="rect4" />
  <rect
     x="64.75"
     y="20.75"
     width="10"
     height="10"
     fill="none"
     stroke="#f97316"
     stroke-width="2"
     id="rect5" />
  <rect
     x="20.75"
     y="42.75"
     width="10"
     height="10"
     fill="none"
     stroke="#f97316"
     stroke-width="2"
     id="rect6" />
  <rect
     x="42.75"
     y="42.75"
     width="10"
     height="10"
     fill="none"
     stroke="#1e90ff"
     stroke-width="3"
     id="rect7" />
  <rect
     x="64.75"
     y="42.75"
     width="10"
     height="10"
     fill="#f97316"
     id="rect8" />
  <rect
     x="20.75"
     y="64.75"
     width="10"
     height="10"
     fill="none"
     stroke="#f97316"
     stroke-width="2"
     id="rect9" />
  <rect
     x="42.75"
     y="64.75"
     width="10"
     height="10"
     fill="none"
     stroke="#f97316"
     stroke-width="1.5"
     opacity="0.4"
     id="rect10" />
  <rect
     x="64.75"
     y="64.75"
     width="10"
     height="10"
     fill="none"
     stroke="#f97316"
     stroke-width="1.5"
     opacity="0.4"
     id="rect11" />
  <g
     stroke="#5a6f8a"
     stroke-width="1.5"
     fill="none"
     opacity="0.3"
     id="g14"
     transform="translate(-7.25,-7.25)">
    <polyline
       points="8,20 8,8 20,8"
       id="polyline11" />
    <polyline
       points="90,8 102,8 102,20"
       id="polyline12" />
    <polyline
       points="102,90 102,102 90,102"
       id="polyline13" />
    <polyline
       points="20,102 8,102 8,90"
       id="polyline14" />
  </g>
</svg>
