<?xml version="1.0" encoding="UTF-8" standalone="no"?>
<svg
   width="95.5"
   height="95.5"
   viewBox="0 0 95.5 95.5"
   version="1.1"
   id="svg8"
   xmlns="http://www.w3.org/2000/svg"
   xmlns:svg="http://www.w3.org/2000/svg">
  <defs
     id="defs8" />
  <line
     x1="10.75"
     y1="42.75"
     x2="84.75"
     y2="42.75"
     stroke="#1e90ff"
     stroke-width="1.5"
     stroke-linecap="square"
     opacity="0.25"
     id="line1" />
  <path
     d="m 12.75,42.75 a 35,32 0 0 1 70,0"
     fill="none"
     stroke="#f97316"
     stroke-width="5"
     stroke-linecap="square"
     id="path1" />
  <path
     d="m 26.75,42.75 a 21,19 0 0 1 42,0"
     fill="none"
     stroke="#f97316"
     stroke-width="2.5"
     stroke-linecap="square"
     opacity="0.45"
     id="path2" />
  <circle
     cx="47.75"
     cy="42.75"
     r="4.5"
     fill="#f97316"
     id="circle2" />
  <line
     x1="47.75"
     y1="47.75"
     x2="18.75"
     y2="86.75"
     stroke="#1e90ff"
     stroke-width="3.5"
     stroke-linecap="square"
     id="line2" />
  <line
     x1="47.75"
     y1="47.75"
     x2="76.75"
     y2="86.75"
     stroke="#1e90ff"
     stroke-width="3.5"
     stroke-linecap="square"
     id="line3" />
  <line
     x1="47.75"
     y1="47.75"
     x2="10.75"
     y2="74.75"
     stroke="#f97316"
     stroke-width="2"
     stroke-linecap="square"
     opacity="0.45"
     id="line4" />
  <line
     x1="47.75"
     y1="47.75"
     x2="84.75"
     y2="74.75"
     stroke="#f97316"
     stroke-width="2"
     stroke-linecap="square"
     opacity="0.45"
     id="line5" />
  <g
     stroke="#5a6f8a"
     stroke-width="1.5"
     fill="none"
     opacity="0.3"
     id="g8"
     transform="translate(-7.25,-7.25)">
    <polyline
       points="8,20 8,8 20,8"
       id="polyline5" />
    <polyline
       points="90,8 102,8 102,20"
       id="polyline6" />
    <polyline
       points="102,90 102,102 90,102"
       id="polyline7" />
    <polyline
       points="20,102 8,102 8,90"
       id="polyline8" />
  </g>
</svg>
