<?xml version="1.0" encoding="UTF-8" standalone="no"?>
<svg
   width="95.5"
   height="95.5"
   viewBox="0 0 95.5 95.5"
   version="1.1"
   id="svg16"
   xmlns="http://www.w3.org/2000/svg"
   xmlns:svg="http://www.w3.org/2000/svg">
  <defs
     id="defs16" />
  <line
     x1="47.75"
     y1="47.75"
     x2="20.75"
     y2="16.75"
     stroke="#1e90ff"
     stroke-width="2.5"
     stroke-linecap="square"
     id="line1" />
  <line
     x1="47.75"
     y1="47.75"
     x2="74.75"
     y2="16.75"
     stroke="#1e90ff"
     stroke-width="2.5"
     stroke-linecap="square"
     id="line2" />
  <line
     x1="47.75"
     y1="47.75"
     x2="82.75"
     y2="42.75"
     stroke="#1e90ff"
     stroke-width="2.5"
     stroke-linecap="square"
     id="line3" />
  <line
     x1="47.75"
     y1="47.75"
     x2="18.75"
     y2="68.75"
     stroke="#1e90ff"
     stroke-width="2.5"
     stroke-linecap="square"
     id="line4" />
  <line
     x1="47.75"
     y1="47.75"
     x2="70.75"
     y2="78.75"
     stroke="#8b5cf6"
     stroke-width="3.5"
     stroke-linecap="square"
     id="line5" />
  <line
     x1="20.75"
     y1="16.75"
     x2="74.75"
     y2="16.75"
     stroke="#1e90ff"
     stroke-width="1.5"
     stroke-linecap="square"
     opacity="0.3"
     id="line6" />
  <line
     x1="74.75"
     y1="16.75"
     x2="82.75"
     y2="42.75"
     stroke="#1e90ff"
     stroke-width="1.5"
     stroke-linecap="square"
     opacity="0.3"
     id="line7" />
  <line
     x1="18.75"
     y1="68.75"
     x2="70.75"
     y2="78.75"
     stroke="#8b5cf6"
     stroke-width="2"
     stroke-linecap="square"
     opacity="0.35"
     id="line8" />
  <circle
     cx="20.75"
     cy="16.75"
     r="4.5"
     fill="none"
     stroke="#1e90ff"
     stroke-width="2"
     id="circle8" />
  <circle
     cx="74.75"
     cy="16.75"
     r="3.5"
     fill="none"
     stroke="#1e90ff"
     stroke-width="2"
     id="circle9" />
  <circle
     cx="82.75"
     cy="42.75"
     r="3.5"
     fill="none"
     stroke="#1e90ff"
     stroke-width="2"
     id="circle10" />
  <circle
     cx="18.75"
     cy="68.75"
     r="3.5"
     fill="none"
     stroke="#1e90ff"
     stroke-width="2"
     id="circle11" />
  <circle
     cx="70.75"
     cy="78.75"
     r="5.5"
     fill="#8b5cf6"
     id="circle12" />
  <circle
     cx="47.75"
     cy="47.75"
     r="7"
     fill="none"
     stroke="#1e90ff"
     stroke-width="3"
     id="circle13" />
  <g
     stroke="#5a6f8a"
     stroke-width="1.5"
     fill="none"
     opacity="0.3"
     id="g16"
     transform="translate(-7.25,-7.25)">
    <polyline
       points="8,20 8,8 20,8"
       id="polyline13" />
    <polyline
       points="90,8 102,8 102,20"
       id="polyline14" />
    <polyline
       points="102,90 102,102 90,102"
       id="polyline15" />
    <polyline
       points="20,102 8,102 8,90"
       id="polyline16" />
  </g>
</svg>
