<?xml version="1.0" encoding="UTF-8"?>
<svg width="1200" height="800" viewBox="0 0 1200 800" xmlns="http://www.w3.org/2000/svg">
  <defs>
    <style>@import url('https://fonts.googleapis.com/css2?family=Recursive:slnt,wght,CASL,CRSV,MONO@-15..0,300..900,0..1,0..1,0..1&amp;display=swap');</style>
  </defs>
  <rect width="1200" height="800" fill="#080b12"/>
  <text x="60" y="46" font-family="Recursive, monospace" font-weight="600" font-size="11" letter-spacing="0.2em" fill="#5a6f8a">HORIZON LOCKUPS — LIGHT WORDMARK</text>
  <line x1="60" y1="56" x2="1140" y2="56" stroke="#1e2d44" stroke-width="1"/>

  <!-- HORIZONTAL PRIMARY -->
  <text x="60" y="92" font-family="Recursive, monospace" font-size="9" letter-spacing="0.15em" fill="#5a6f8a">HORIZONTAL PRIMARY</text>
  <g transform="translate(60,108)">
    <svg width="80" height="80" viewBox="0 0 110 110">
      <rect width="110" height="110" fill="#0c1220"/>
      <line x1="18" y1="50" x2="92" y2="50" stroke="#1E90FF" stroke-width="1.5" stroke-linecap="square" opacity="0.25"/>
      <path d="M20,50 A35,32 0 0 1 90,50" fill="none" stroke="#F97316" stroke-width="5" stroke-linecap="square"/>
      <path d="M34,50 A21,19 0 0 1 76,50" fill="none" stroke="#F97316" stroke-width="2.5" stroke-linecap="square" opacity="0.45"/>
      <circle cx="55" cy="50" r="4.5" fill="#F97316"/>
      <line x1="55" y1="55" x2="26" y2="94" stroke="#1E90FF" stroke-width="3.5" stroke-linecap="square"/>
      <line x1="55" y1="55" x2="84" y2="94" stroke="#1E90FF" stroke-width="3.5" stroke-linecap="square"/>
      <line x1="55" y1="55" x2="18" y2="82" stroke="#F97316" stroke-width="2" stroke-linecap="square" opacity="0.45"/>
      <line x1="55" y1="55" x2="92" y2="82" stroke="#F97316" stroke-width="2" stroke-linecap="square" opacity="0.45"/>
      <g stroke="#5a6f8a" stroke-width="1.5" fill="none" opacity="0.3"><polyline points="8,20 8,8 20,8"/><polyline points="90,8 102,8 102,20"/><polyline points="102,90 102,102 90,102"/><polyline points="20,102 8,102 8,90"/></g>
    </svg>
    <text x="100" y="50" font-family="Recursive, monospace" font-weight="300" font-size="42" fill="#e8ecf4">Horizon</text>
  </g>

  <!-- HORIZONTAL WITH TAGLINE -->
  <text x="520" y="92" font-family="Recursive, monospace" font-size="9" letter-spacing="0.15em" fill="#5a6f8a">HORIZONTAL WITH TAGLINE</text>
  <g transform="translate(520,108)">
    <svg width="80" height="80" viewBox="0 0 110 110">
      <rect width="110" height="110" fill="#0c1220"/>
      <line x1="18" y1="50" x2="92" y2="50" stroke="#1E90FF" stroke-width="1.5" stroke-linecap="square" opacity="0.25"/>
      <path d="M20,50 A35,32 0 0 1 90,50" fill="none" stroke="#F97316" stroke-width="5" stroke-linecap="square"/>
      <path d="M34,50 A21,19 0 0 1 76,50" fill="none" stroke="#F97316" stroke-width="2.5" stroke-linecap="square" opacity="0.45"/>
      <circle cx="55" cy="50" r="4.5" fill="#F97316"/>
      <line x1="55" y1="55" x2="26" y2="94" stroke="#1E90FF" stroke-width="3.5" stroke-linecap="square"/>
      <line x1="55" y1="55" x2="84" y2="94" stroke="#1E90FF" stroke-width="3.5" stroke-linecap="square"/>
      <line x1="55" y1="55" x2="18" y2="82" stroke="#F97316" stroke-width="2" stroke-linecap="square" opacity="0.45"/>
      <line x1="55" y1="55" x2="92" y2="82" stroke="#F97316" stroke-width="2" stroke-linecap="square" opacity="0.45"/>
      <g stroke="#5a6f8a" stroke-width="1.5" fill="none" opacity="0.3"><polyline points="8,20 8,8 20,8"/><polyline points="90,8 102,8 102,20"/><polyline points="102,90 102,102 90,102"/><polyline points="20,102 8,102 8,90"/></g>
    </svg>
    <text x="100" y="44" font-family="Recursive, monospace" font-weight="300" font-size="36" fill="#e8ecf4">Horizon</text>
    <text x="100" y="62" font-family="Recursive, monospace" font-weight="500" font-size="12" letter-spacing="0.15em" fill="#1E90FF">Fleet Intelligence</text>
  </g>

  <!-- STACKED -->
  <text x="60" y="240" font-family="Recursive, monospace" font-size="9" letter-spacing="0.15em" fill="#5a6f8a">STACKED</text>
  <g transform="translate(60,256)">
    <svg x="14" width="80" height="80" viewBox="0 0 110 110">
      <rect width="110" height="110" fill="#0c1220"/>
      <line x1="18" y1="50" x2="92" y2="50" stroke="#1E90FF" stroke-width="1.5" stroke-linecap="square" opacity="0.25"/>
      <path d="M20,50 A35,32 0 0 1 90,50" fill="none" stroke="#F97316" stroke-width="5" stroke-linecap="square"/>
      <path d="M34,50 A21,19 0 0 1 76,50" fill="none" stroke="#F97316" stroke-width="2.5" stroke-linecap="square" opacity="0.45"/>
      <circle cx="55" cy="50" r="4.5" fill="#F97316"/>
      <line x1="55" y1="55" x2="26" y2="94" stroke="#1E90FF" stroke-width="3.5" stroke-linecap="square"/>
      <line x1="55" y1="55" x2="84" y2="94" stroke="#1E90FF" stroke-width="3.5" stroke-linecap="square"/>
      <g stroke="#5a6f8a" stroke-width="1.5" fill="none" opacity="0.3"><polyline points="8,20 8,8 20,8"/><polyline points="90,8 102,8 102,20"/><polyline points="102,90 102,102 90,102"/><polyline points="20,102 8,102 8,90"/></g>
    </svg>
    <text x="54" y="102" text-anchor="middle" font-family="Recursive, monospace" font-weight="300" font-size="28" fill="#e8ecf4">Horizon</text>
  </g>

  <!-- STACKED + TAGLINE -->
  <text x="240" y="240" font-family="Recursive, monospace" font-size="9" letter-spacing="0.15em" fill="#5a6f8a">STACKED + TAGLINE</text>
  <g transform="translate(240,256)">
    <svg x="18" width="80" height="80" viewBox="0 0 110 110">
      <rect width="110" height="110" fill="#0c1220"/>
      <line x1="18" y1="50" x2="92" y2="50" stroke="#1E90FF" stroke-width="1.5" stroke-linecap="square" opacity="0.25"/>
      <path d="M20,50 A35,32 0 0 1 90,50" fill="none" stroke="#F97316" stroke-width="5" stroke-linecap="square"/>
      <path d="M34,50 A21,19 0 0 1 76,50" fill="none" stroke="#F97316" stroke-width="2.5" stroke-linecap="square" opacity="0.45"/>
      <circle cx="55" cy="50" r="4.5" fill="#F97316"/>
      <line x1="55" y1="55" x2="26" y2="94" stroke="#1E90FF" stroke-width="3.5" stroke-linecap="square"/>
      <line x1="55" y1="55" x2="84" y2="94" stroke="#1E90FF" stroke-width="3.5" stroke-linecap="square"/>
      <g stroke="#5a6f8a" stroke-width="1.5" fill="none" opacity="0.3"><polyline points="8,20 8,8 20,8"/><polyline points="90,8 102,8 102,20"/><polyline points="102,90 102,102 90,102"/><polyline points="20,102 8,102 8,90"/></g>
    </svg>
    <text x="58" y="98" text-anchor="middle" font-family="Recursive, monospace" font-weight="300" font-size="24" fill="#e8ecf4">Horizon</text>
    <text x="58" y="114" text-anchor="middle" font-family="Recursive, monospace" font-weight="500" font-size="10" letter-spacing="0.15em" fill="#1E90FF">Fleet Intelligence</text>
  </g>

  <!-- WORDMARK ONLY -->
  <text x="480" y="240" font-family="Recursive, monospace" font-size="9" letter-spacing="0.15em" fill="#5a6f8a">WORDMARK ONLY</text>
  <text x="480" y="310" font-family="Recursive, monospace" font-weight="300" font-size="48" fill="#e8ecf4">Horizon</text>

  <!-- SIZE VARIATIONS -->
  <text x="60" y="420" font-family="Recursive, monospace" font-size="9" letter-spacing="0.15em" fill="#5a6f8a">SIZE VARIATIONS</text>
  <g transform="translate(60,438)">
    <svg width="64" height="64" viewBox="0 0 110 110"><rect width="110" height="110" fill="#0c1220"/><path d="M20,50 A35,32 0 0 1 90,50" fill="none" stroke="#F97316" stroke-width="5"/><circle cx="55" cy="50" r="4.5" fill="#F97316"/><line x1="55" y1="55" x2="26" y2="94" stroke="#1E90FF" stroke-width="3.5"/><line x1="55" y1="55" x2="84" y2="94" stroke="#1E90FF" stroke-width="3.5"/><g stroke="#5a6f8a" stroke-width="1.5" fill="none" opacity="0.3"><polyline points="8,20 8,8 20,8"/><polyline points="90,8 102,8 102,20"/><polyline points="102,90 102,102 90,102"/><polyline points="20,102 8,102 8,90"/></g></svg>
    <text x="80" y="42" font-family="Recursive, monospace" font-weight="300" font-size="32" fill="#e8ecf4">Horizon</text>
    <text x="38" y="82" text-anchor="middle" font-family="Recursive, monospace" font-size="9" letter-spacing="0.1em" fill="#5a6f8a">64px</text>
  </g>
  <g transform="translate(350,448)">
    <svg width="44" height="44" viewBox="0 0 110 110"><rect width="110" height="110" fill="#0c1220"/><path d="M20,50 A35,32 0 0 1 90,50" fill="none" stroke="#F97316" stroke-width="5"/><circle cx="55" cy="50" r="4.5" fill="#F97316"/><line x1="55" y1="55" x2="26" y2="94" stroke="#1E90FF" stroke-width="3.5"/><line x1="55" y1="55" x2="84" y2="94" stroke="#1E90FF" stroke-width="3.5"/><g stroke="#5a6f8a" stroke-width="1.5" fill="none" opacity="0.3"><polyline points="8,20 8,8 20,8"/><polyline points="90,8 102,8 102,20"/><polyline points="102,90 102,102 90,102"/><polyline points="20,102 8,102 8,90"/></g></svg>
    <text x="56" y="30" font-family="Recursive, monospace" font-weight="300" font-size="22" fill="#e8ecf4">Horizon</text>
    <text x="26" y="62" text-anchor="middle" font-family="Recursive, monospace" font-size="9" letter-spacing="0.1em" fill="#5a6f8a">44px</text>
  </g>
  <g transform="translate(560,456)">
    <svg width="28" height="28" viewBox="0 0 110 110"><rect width="110" height="110" fill="#0c1220"/><path d="M20,50 A35,32 0 0 1 90,50" fill="none" stroke="#F97316" stroke-width="6"/><circle cx="55" cy="50" r="5" fill="#F97316"/><line x1="55" y1="55" x2="26" y2="94" stroke="#1E90FF" stroke-width="4"/><line x1="55" y1="55" x2="84" y2="94" stroke="#1E90FF" stroke-width="4"/></svg>
    <text x="38" y="20" font-family="Recursive, monospace" font-weight="300" font-size="16" fill="#e8ecf4">Horizon</text>
    <text x="18" y="44" text-anchor="middle" font-family="Recursive, monospace" font-size="9" letter-spacing="0.1em" fill="#5a6f8a">28px</text>
  </g>
  <g transform="translate(710,460)">
    <svg width="20" height="20" viewBox="0 0 110 110"><rect width="110" height="110" fill="#0c1220"/><path d="M20,50 A35,32 0 0 1 90,50" fill="none" stroke="#F97316" stroke-width="7"/><circle cx="55" cy="50" r="6" fill="#F97316"/><line x1="55" y1="55" x2="30" y2="90" stroke="#1E90FF" stroke-width="5"/><line x1="55" y1="55" x2="80" y2="90" stroke="#1E90FF" stroke-width="5"/></svg>
    <text x="28" y="14" font-family="Recursive, monospace" font-weight="300" font-size="12" fill="#e8ecf4">Horizon</text>
    <text x="14" y="36" text-anchor="middle" font-family="Recursive, monospace" font-size="9" letter-spacing="0.1em" fill="#5a6f8a">20px</text>
  </g>

  <!-- BADGE -->
  <text x="60" y="560" font-family="Recursive, monospace" font-size="9" letter-spacing="0.15em" fill="#5a6f8a">BADGE</text>
  <g transform="translate(60,576)">
    <rect width="300" height="60" fill="#101828" stroke="#0A6ED8" stroke-width="1"/>
    <svg x="12" y="10" width="40" height="40" viewBox="0 0 110 110"><rect width="110" height="110" fill="#0c1220"/><path d="M20,50 A35,32 0 0 1 90,50" fill="none" stroke="#F97316" stroke-width="5"/><circle cx="55" cy="50" r="4.5" fill="#F97316"/><line x1="55" y1="55" x2="26" y2="94" stroke="#1E90FF" stroke-width="3.5"/><line x1="55" y1="55" x2="84" y2="94" stroke="#1E90FF" stroke-width="3.5"/></svg>
    <text x="64" y="36" font-family="Recursive, monospace" font-weight="300" font-size="18" fill="#e8ecf4">Horizon</text>
    <line x1="168" y1="14" x2="168" y2="46" stroke="#1e2d44" stroke-width="1"/>
    <text x="184" y="32" font-family="Recursive, monospace" font-weight="500" font-size="14" letter-spacing="0.05em" fill="#F97316">$50M/yr</text>
    <text x="184" y="46" font-family="Recursive, monospace" font-weight="400" font-size="9" fill="#5a6f8a">Protected Revenue</text>
  </g>

  <!-- FOOTER -->
  <rect x="0" y="760" width="1200" height="40" fill="#0c1220"/>
  <text x="600" y="784" text-anchor="middle" font-family="Recursive, monospace" font-size="10" letter-spacing="0.15em" fill="#5a6f8a">HORIZON LOCKUPS · LIGHT WORDMARK · ATLAS CREW</text>
</svg>
