<?xml version="1.0" encoding="UTF-8"?>
<svg width="1200" height="800" viewBox="0 0 1200 800" xmlns="http://www.w3.org/2000/svg">
  <defs>
    <style>@import url('https://fonts.googleapis.com/css2?family=Recursive:slnt,wght,CASL,CRSV,MONO@-15..0,300..900,0..1,0..1,0..1&amp;display=swap');</style>
  </defs>
  <rect width="1200" height="800" fill="#080b12"/>
  <text x="60" y="46" font-family="Recursive, monospace" font-weight="600" font-size="11" letter-spacing="0.2em" fill="#5a6f8a">SYNAPSE LOCKUPS — DARK BACKGROUND</text>
  <line x1="60" y1="56" x2="1140" y2="56" stroke="#1e2d44" stroke-width="1"/>

  <!-- HORIZONTAL PRIMARY -->
  <text x="60" y="92" font-family="Recursive, monospace" font-size="9" letter-spacing="0.15em" fill="#5a6f8a">HORIZONTAL PRIMARY</text>
  <g transform="translate(60,108)">
    <svg width="80" height="80" viewBox="0 0 110 110">
      <rect width="110" height="110" fill="#0c1220"/>
      <line x1="55" y1="55" x2="28" y2="24" stroke="#1E90FF" stroke-width="2.5" stroke-linecap="square"/><line x1="55" y1="55" x2="82" y2="24" stroke="#1E90FF" stroke-width="2.5" stroke-linecap="square"/>
      <line x1="55" y1="55" x2="90" y2="50" stroke="#1E90FF" stroke-width="2.5" stroke-linecap="square"/><line x1="55" y1="55" x2="26" y2="76" stroke="#1E90FF" stroke-width="2.5" stroke-linecap="square"/>
      <line x1="55" y1="55" x2="78" y2="86" stroke="#8B5CF6" stroke-width="3.5" stroke-linecap="square"/>
      <line x1="28" y1="24" x2="82" y2="24" stroke="#1E90FF" stroke-width="1.5" opacity="0.3"/><line x1="82" y1="24" x2="90" y2="50" stroke="#1E90FF" stroke-width="1.5" opacity="0.3"/>
      <line x1="26" y1="76" x2="78" y2="86" stroke="#8B5CF6" stroke-width="2" opacity="0.35"/>
      <circle cx="28" cy="24" r="4.5" fill="none" stroke="#1E90FF" stroke-width="2"/><circle cx="82" cy="24" r="3.5" fill="none" stroke="#1E90FF" stroke-width="2"/>
      <circle cx="90" cy="50" r="3.5" fill="none" stroke="#1E90FF" stroke-width="2"/><circle cx="26" cy="76" r="3.5" fill="none" stroke="#1E90FF" stroke-width="2"/>
      <circle cx="78" cy="86" r="5.5" fill="#8B5CF6"/><circle cx="55" cy="55" r="7" fill="none" stroke="#1E90FF" stroke-width="3"/>
      <g stroke="#5a6f8a" stroke-width="1.5" fill="none" opacity="0.3"><polyline points="8,20 8,8 20,8"/><polyline points="90,8 102,8 102,20"/><polyline points="102,90 102,102 90,102"/><polyline points="20,102 8,102 8,90"/></g>
    </svg>
    <text x="100" y="50" font-family="Recursive, monospace" font-weight="400" font-size="38" letter-spacing="0.2em" fill="#A78BFA">SYNAPSE</text>
  </g>

  <!-- HORIZONTAL WITH TAGLINE -->
  <text x="540" y="92" font-family="Recursive, monospace" font-size="9" letter-spacing="0.15em" fill="#5a6f8a">HORIZONTAL WITH TAGLINE</text>
  <g transform="translate(540,108)">
    <svg width="80" height="80" viewBox="0 0 110 110">
      <rect width="110" height="110" fill="#0c1220"/>
      <line x1="55" y1="55" x2="28" y2="24" stroke="#1E90FF" stroke-width="2.5"/><line x1="55" y1="55" x2="82" y2="24" stroke="#1E90FF" stroke-width="2.5"/>
      <line x1="55" y1="55" x2="90" y2="50" stroke="#1E90FF" stroke-width="2.5"/><line x1="55" y1="55" x2="26" y2="76" stroke="#1E90FF" stroke-width="2.5"/>
      <line x1="55" y1="55" x2="78" y2="86" stroke="#8B5CF6" stroke-width="3.5"/>
      <line x1="28" y1="24" x2="82" y2="24" stroke="#1E90FF" stroke-width="1.5" opacity="0.3"/><line x1="82" y1="24" x2="90" y2="50" stroke="#1E90FF" stroke-width="1.5" opacity="0.3"/>
      <line x1="26" y1="76" x2="78" y2="86" stroke="#8B5CF6" stroke-width="2" opacity="0.35"/>
      <circle cx="28" cy="24" r="4.5" fill="none" stroke="#1E90FF" stroke-width="2"/><circle cx="82" cy="24" r="3.5" fill="none" stroke="#1E90FF" stroke-width="2"/>
      <circle cx="90" cy="50" r="3.5" fill="none" stroke="#1E90FF" stroke-width="2"/><circle cx="26" cy="76" r="3.5" fill="none" stroke="#1E90FF" stroke-width="2"/>
      <circle cx="78" cy="86" r="5.5" fill="#8B5CF6"/><circle cx="55" cy="55" r="7" fill="none" stroke="#1E90FF" stroke-width="3"/>
      <g stroke="#5a6f8a" stroke-width="1.5" fill="none" opacity="0.3"><polyline points="8,20 8,8 20,8"/><polyline points="90,8 102,8 102,20"/><polyline points="102,90 102,102 90,102"/><polyline points="20,102 8,102 8,90"/></g>
    </svg>
    <text x="100" y="42" font-family="Recursive, monospace" font-weight="400" font-size="32" letter-spacing="0.2em" fill="#A78BFA">SYNAPSE</text>
    <text x="100" y="60" font-family="Recursive, monospace" font-weight="500" font-size="10" letter-spacing="0.15em" fill="#5a6f8a">ON-BOARD INTELLIGENCE</text>
  </g>

  <!-- STACKED -->
  <text x="60" y="240" font-family="Recursive, monospace" font-size="9" letter-spacing="0.15em" fill="#5a6f8a">STACKED</text>
  <g transform="translate(60,256)">
    <svg x="26" width="80" height="80" viewBox="0 0 110 110">
      <rect width="110" height="110" fill="#0c1220"/>
      <line x1="55" y1="55" x2="28" y2="24" stroke="#1E90FF" stroke-width="2.5"/><line x1="55" y1="55" x2="82" y2="24" stroke="#1E90FF" stroke-width="2.5"/>
      <line x1="55" y1="55" x2="90" y2="50" stroke="#1E90FF" stroke-width="2.5"/><line x1="55" y1="55" x2="26" y2="76" stroke="#1E90FF" stroke-width="2.5"/>
      <line x1="55" y1="55" x2="78" y2="86" stroke="#8B5CF6" stroke-width="3.5"/>
      <circle cx="28" cy="24" r="4.5" fill="none" stroke="#1E90FF" stroke-width="2"/><circle cx="82" cy="24" r="3.5" fill="none" stroke="#1E90FF" stroke-width="2"/>
      <circle cx="90" cy="50" r="3.5" fill="none" stroke="#1E90FF" stroke-width="2"/><circle cx="26" cy="76" r="3.5" fill="none" stroke="#1E90FF" stroke-width="2"/>
      <circle cx="78" cy="86" r="5.5" fill="#8B5CF6"/><circle cx="55" cy="55" r="7" fill="none" stroke="#1E90FF" stroke-width="3"/>
      <g stroke="#5a6f8a" stroke-width="1.5" fill="none" opacity="0.3"><polyline points="8,20 8,8 20,8"/><polyline points="90,8 102,8 102,20"/><polyline points="102,90 102,102 90,102"/><polyline points="20,102 8,102 8,90"/></g>
    </svg>
    <text x="66" y="102" text-anchor="middle" font-family="Recursive, monospace" font-weight="400" font-size="26" letter-spacing="0.2em" fill="#A78BFA">SYNAPSE</text>
  </g>

  <!-- STACKED + TAGLINE -->
  <text x="280" y="240" font-family="Recursive, monospace" font-size="9" letter-spacing="0.15em" fill="#5a6f8a">STACKED + TAGLINE</text>
  <g transform="translate(280,256)">
    <svg x="28" width="80" height="80" viewBox="0 0 110 110">
      <rect width="110" height="110" fill="#0c1220"/>
      <line x1="55" y1="55" x2="28" y2="24" stroke="#1E90FF" stroke-width="2.5"/><line x1="55" y1="55" x2="82" y2="24" stroke="#1E90FF" stroke-width="2.5"/>
      <line x1="55" y1="55" x2="90" y2="50" stroke="#1E90FF" stroke-width="2.5"/><line x1="55" y1="55" x2="26" y2="76" stroke="#1E90FF" stroke-width="2.5"/>
      <line x1="55" y1="55" x2="78" y2="86" stroke="#8B5CF6" stroke-width="3.5"/>
      <circle cx="28" cy="24" r="4.5" fill="none" stroke="#1E90FF" stroke-width="2"/><circle cx="82" cy="24" r="3.5" fill="none" stroke="#1E90FF" stroke-width="2"/>
      <circle cx="90" cy="50" r="3.5" fill="none" stroke="#1E90FF" stroke-width="2"/><circle cx="26" cy="76" r="3.5" fill="none" stroke="#1E90FF" stroke-width="2"/>
      <circle cx="78" cy="86" r="5.5" fill="#8B5CF6"/><circle cx="55" cy="55" r="7" fill="none" stroke="#1E90FF" stroke-width="3"/>
      <g stroke="#5a6f8a" stroke-width="1.5" fill="none" opacity="0.3"><polyline points="8,20 8,8 20,8"/><polyline points="90,8 102,8 102,20"/><polyline points="102,90 102,102 90,102"/><polyline points="20,102 8,102 8,90"/></g>
    </svg>
    <text x="68" y="98" text-anchor="middle" font-family="Recursive, monospace" font-weight="400" font-size="22" letter-spacing="0.2em" fill="#A78BFA">SYNAPSE</text>
    <text x="68" y="114" text-anchor="middle" font-family="Recursive, monospace" font-weight="500" font-size="8" letter-spacing="0.15em" fill="#5a6f8a">ON-BOARD INTELLIGENCE</text>
  </g>

  <!-- WORDMARK ONLY -->
  <text x="520" y="240" font-family="Recursive, monospace" font-size="9" letter-spacing="0.15em" fill="#5a6f8a">WORDMARK ONLY</text>
  <text x="520" y="310" font-family="Recursive, monospace" font-weight="400" font-size="48" letter-spacing="0.2em" fill="#A78BFA">SYNAPSE</text>

  <!-- SIZE VARIATIONS -->
  <text x="60" y="430" font-family="Recursive, monospace" font-size="9" letter-spacing="0.15em" fill="#5a6f8a">SIZE VARIATIONS</text>
  <g transform="translate(60,448)">
    <svg width="64" height="64" viewBox="0 0 110 110"><rect width="110" height="110" fill="#0c1220"/><line x1="55" y1="55" x2="28" y2="24" stroke="#1E90FF" stroke-width="2.5"/><line x1="55" y1="55" x2="82" y2="24" stroke="#1E90FF" stroke-width="2.5"/><line x1="55" y1="55" x2="90" y2="50" stroke="#1E90FF" stroke-width="2.5"/><line x1="55" y1="55" x2="78" y2="86" stroke="#8B5CF6" stroke-width="3.5"/><circle cx="28" cy="24" r="4.5" fill="none" stroke="#1E90FF" stroke-width="2"/><circle cx="82" cy="24" r="3.5" fill="none" stroke="#1E90FF" stroke-width="2"/><circle cx="90" cy="50" r="3.5" fill="none" stroke="#1E90FF" stroke-width="2"/><circle cx="26" cy="76" r="3.5" fill="none" stroke="#1E90FF" stroke-width="2"/><circle cx="78" cy="86" r="5.5" fill="#8B5CF6"/><circle cx="55" cy="55" r="7" fill="none" stroke="#1E90FF" stroke-width="3"/><g stroke="#5a6f8a" stroke-width="1.5" fill="none" opacity="0.3"><polyline points="8,20 8,8 20,8"/><polyline points="90,8 102,8 102,20"/><polyline points="102,90 102,102 90,102"/><polyline points="20,102 8,102 8,90"/></g></svg>
    <text x="80" y="42" font-family="Recursive, monospace" font-weight="400" font-size="30" letter-spacing="0.2em" fill="#A78BFA">SYNAPSE</text>
    <text x="38" y="82" text-anchor="middle" font-family="Recursive, monospace" font-size="9" letter-spacing="0.1em" fill="#5a6f8a">64px</text>
  </g>
  <g transform="translate(390,458)">
    <svg width="44" height="44" viewBox="0 0 110 110"><rect width="110" height="110" fill="#0c1220"/><line x1="55" y1="55" x2="28" y2="24" stroke="#1E90FF" stroke-width="2.5"/><line x1="55" y1="55" x2="82" y2="24" stroke="#1E90FF" stroke-width="2.5"/><line x1="55" y1="55" x2="78" y2="86" stroke="#8B5CF6" stroke-width="3.5"/><circle cx="28" cy="24" r="4" fill="none" stroke="#1E90FF" stroke-width="2"/><circle cx="82" cy="24" r="3" fill="none" stroke="#1E90FF" stroke-width="2"/><circle cx="78" cy="86" r="5" fill="#8B5CF6"/><circle cx="55" cy="55" r="6" fill="none" stroke="#1E90FF" stroke-width="3"/><g stroke="#5a6f8a" stroke-width="1.5" fill="none" opacity="0.3"><polyline points="8,20 8,8 20,8"/><polyline points="90,8 102,8 102,20"/><polyline points="102,90 102,102 90,102"/><polyline points="20,102 8,102 8,90"/></g></svg>
    <text x="56" y="30" font-family="Recursive, monospace" font-weight="400" font-size="20" letter-spacing="0.2em" fill="#A78BFA">SYNAPSE</text>
    <text x="26" y="62" text-anchor="middle" font-family="Recursive, monospace" font-size="9" letter-spacing="0.1em" fill="#5a6f8a">44px</text>
  </g>
  <g transform="translate(620,466)">
    <svg width="28" height="28" viewBox="0 0 110 110"><rect width="110" height="110" fill="#0c1220"/><line x1="55" y1="55" x2="28" y2="24" stroke="#1E90FF" stroke-width="3"/><line x1="55" y1="55" x2="82" y2="24" stroke="#1E90FF" stroke-width="3"/><line x1="55" y1="55" x2="78" y2="86" stroke="#8B5CF6" stroke-width="4"/><circle cx="78" cy="86" r="7" fill="#8B5CF6"/><circle cx="55" cy="55" r="8" fill="none" stroke="#1E90FF" stroke-width="3.5"/></svg>
    <text x="38" y="20" font-family="Recursive, monospace" font-weight="400" font-size="14" letter-spacing="0.2em" fill="#A78BFA">SYNAPSE</text>
    <text x="18" y="44" text-anchor="middle" font-family="Recursive, monospace" font-size="9" letter-spacing="0.1em" fill="#5a6f8a">28px</text>
  </g>
  <g transform="translate(790,470)">
    <svg width="20" height="20" viewBox="0 0 110 110"><rect width="110" height="110" fill="#0c1220"/><line x1="55" y1="55" x2="28" y2="24" stroke="#1E90FF" stroke-width="4"/><line x1="55" y1="55" x2="82" y2="24" stroke="#1E90FF" stroke-width="4"/><line x1="55" y1="55" x2="78" y2="86" stroke="#8B5CF6" stroke-width="5"/><circle cx="78" cy="86" r="8" fill="#8B5CF6"/><circle cx="55" cy="55" r="9" fill="none" stroke="#1E90FF" stroke-width="4"/></svg>
    <text x="28" y="14" font-family="Recursive, monospace" font-weight="400" font-size="11" letter-spacing="0.2em" fill="#A78BFA">SYNAPSE</text>
    <text x="14" y="36" text-anchor="middle" font-family="Recursive, monospace" font-size="9" letter-spacing="0.1em" fill="#5a6f8a">20px</text>
  </g>

  <!-- BADGE -->
  <text x="60" y="580" font-family="Recursive, monospace" font-size="9" letter-spacing="0.15em" fill="#5a6f8a">BADGE</text>
  <g transform="translate(60,596)">
    <rect width="260" height="60" fill="#101828" stroke="#1e2d44" stroke-width="1"/>
    <svg x="12" y="10" width="40" height="40" viewBox="0 0 110 110"><rect width="110" height="110" fill="#0c1220"/><line x1="55" y1="55" x2="28" y2="24" stroke="#1E90FF" stroke-width="2.5"/><line x1="55" y1="55" x2="82" y2="24" stroke="#1E90FF" stroke-width="2.5"/><line x1="55" y1="55" x2="90" y2="50" stroke="#1E90FF" stroke-width="2.5"/><line x1="55" y1="55" x2="78" y2="86" stroke="#8B5CF6" stroke-width="3.5"/><circle cx="78" cy="86" r="5.5" fill="#8B5CF6"/><circle cx="55" cy="55" r="7" fill="none" stroke="#1E90FF" stroke-width="3"/></svg>
    <text x="64" y="36" font-family="Recursive, monospace" font-weight="400" font-size="16" letter-spacing="0.2em" fill="#A78BFA">SYNAPSE</text>
    <line x1="196" y1="14" x2="196" y2="46" stroke="#1e2d44" stroke-width="1"/>
    <text x="210" y="32" font-family="Recursive, monospace" font-weight="600" font-size="14" letter-spacing="0.05em" fill="#A78BFA">&lt;1ms</text>
    <text x="210" y="46" font-family="Recursive, monospace" font-weight="400" font-size="9" fill="#5a6f8a">Decision Latency</text>
  </g>

  <!-- FOOTER -->
  <rect x="0" y="760" width="1200" height="40" fill="#0c1220"/>
  <text x="600" y="784" text-anchor="middle" font-family="Recursive, monospace" font-size="10" letter-spacing="0.15em" fill="#5a6f8a">SYNAPSE BRAND LOCKUPS · ATLAS CREW · EDGE PROTECTION PLATFORM</text>
</svg>
