<?xml version="1.0" encoding="UTF-8"?>
<svg width="1200" height="800" viewBox="0 0 1200 800" xmlns="http://www.w3.org/2000/svg">
  <defs>
    <style>@import url('https://fonts.googleapis.com/css2?family=Recursive:slnt,wght,CASL,CRSV,MONO@-15..0,300..900,0..1,0..1,0..1&amp;display=swap');</style>
  </defs>
  <rect width="1200" height="800" fill="#080b12"/>
  <text x="60" y="46" font-family="Recursive, monospace" font-weight="600" font-size="11" letter-spacing="0.2em" fill="#5a6f8a">SYNAPSE LOCKUPS — LIGHT WORDMARK</text>
  <line x1="60" y1="56" x2="1140" y2="56" stroke="#1e2d44" stroke-width="1"/>

  <!-- HORIZONTAL PRIMARY -->
  <text x="60" y="92" font-family="Recursive, monospace" font-size="9" letter-spacing="0.15em" fill="#5a6f8a">HORIZONTAL PRIMARY</text>
  <g transform="translate(60,108)">
    <svg width="80" height="80" viewBox="0 0 110 110">
      <rect width="110" height="110" fill="#0c1220"/>
      <line x1="55" y1="55" x2="28" y2="24" stroke="#1E90FF" stroke-width="2.5" stroke-linecap="square"/><line x1="55" y1="55" x2="82" y2="24" stroke="#1E90FF" stroke-width="2.5" stroke-linecap="square"/>
      <line x1="55" y1="55" x2="90" y2="50" stroke="#1E90FF" stroke-width="2.5" stroke-linecap="square"/><line x1="55" y1="55" x2="26" y2="76" stroke="#1E90FF" stroke-width="2.5" stroke-linecap="square"/>
      <line x1="55" y1="55" x2="78" y2="86" stroke="#8B5CF6" stroke-width="3.5" stroke-linecap="square"/>
      <line x1="28" y1="24" x2="82" y2="24" stroke="#1E90FF" stroke-width="1.5" opacity="0.3"/><line x1="82" y1="24" x2="90" y2="50" stroke="#1E90FF" stroke-width="1.5" opacity="0.3"/>
      <line x1="26" y1="76" x2="78" y2="86" stroke="#8B5CF6" stroke-width="2" opacity="0.35"/>
      <circle cx="28" cy="24" r="4.5" fill="none" stroke="#1E90FF" stroke-width="2"/><circle cx="82" cy="24" r="3.5" fill="none" stroke="#1E90FF" stroke-width="2"/>
      <circle cx="90" cy="50" r="3.5" fill="none" stroke="#1E90FF" stroke-width="2"/><circle cx="26" cy="76" r="3.5" fill="none" stroke="#1E90FF" stroke-width="2"/>
      <circle cx="78" cy="86" r="5.5" fill="#8B5CF6"/><circle cx="55" cy="55" r="7" fill="none" stroke="#1E90FF" stroke-width="3"/>
      <g stroke="#5a6f8a" stroke-width="1.5" fill="none" opacity="0.3"><polyline points="8,20 8,8 20,8"/><polyline points="90,8 102,8 102,20"/><polyline points="102,90 102,102 90,102"/><polyline points="20,102 8,102 8,90"/></g>
    </svg>
    <text x="100" y="50" font-family="Recursive, monospace" font-weight="300" font-size="42" fill="#e8ecf4">Synapse</text>
  </g>

  <!-- HORIZONTAL WITH TAGLINE -->
  <text x="540" y="92" font-family="Recursive, monospace" font-size="9" letter-spacing="0.15em" fill="#5a6f8a">HORIZONTAL WITH TAGLINE</text>
  <g transform="translate(540,108)">
    <svg width="80" height="80" viewBox="0 0 110 110">
      <rect width="110" height="110" fill="#0c1220"/>
      <line x1="55" y1="55" x2="28" y2="24" stroke="#1E90FF" stroke-width="2.5"/><line x1="55" y1="55" x2="82" y2="24" stroke="#1E90FF" stroke-width="2.5"/>
      <line x1="55" y1="55" x2="90" y2="50" stroke="#1E90FF" stroke-width="2.5"/><line x1="55" y1="55" x2="26" y2="76" stroke="#1E90FF" stroke-width="2.5"/>
      <line x1="55" y1="55" x2="78" y2="86" stroke="#8B5CF6" stroke-width="3.5"/>
      <line x1="28" y1="24" x2="82" y2="24" stroke="#1E90FF" stroke-width="1.5" opacity="0.3"/><line x1="82" y1="24" x2="90" y2="50" stroke="#1E90FF" stroke-width="1.5" opacity="0.3"/>
      <line x1="26" y1="76" x2="78" y2="86" stroke="#8B5CF6" stroke-width="2" opacity="0.35"/>
      <circle cx="28" cy="24" r="4.5" fill="none" stroke="#1E90FF" stroke-width="2"/><circle cx="82" cy="24" r="3.5" fill="none" stroke="#1E90FF" stroke-width="2"/>
      <circle cx="90" cy="50" r="3.5" fill="none" stroke="#1E90FF" stroke-width="2"/><circle cx="26" cy="76" r="3.5" fill="none" stroke="#1E90FF" stroke-width="2"/>
      <circle cx="78" cy="86" r="5.5" fill="#8B5CF6"/><circle cx="55" cy="55" r="7" fill="none" stroke="#1E90FF" stroke-width="3"/>
      <g stroke="#5a6f8a" stroke-width="1.5" fill="none" opacity="0.3"><polyline points="8,20 8,8 20,8"/><polyline points="90,8 102,8 102,20"/><polyline points="102,90 102,102 90,102"/><polyline points="20,102 8,102 8,90"/></g>
    </svg>
    <text x="100" y="44" font-family="Recursive, monospace" font-weight="300" font-size="36" fill="#e8ecf4">Synapse</text>
    <text x="100" y="62" font-family="Recursive, monospace" font-weight="500" font-size="12" letter-spacing="0.15em" fill="#8B5CF6">On-Board Intelligence</text>
  </g>

  <!-- STACKED -->
  <text x="60" y="240" font-family="Recursive, monospace" font-size="9" letter-spacing="0.15em" fill="#5a6f8a">STACKED</text>
  <g transform="translate(60,256)">
    <svg x="18" width="80" height="80" viewBox="0 0 110 110">
      <rect width="110" height="110" fill="#0c1220"/>
      <line x1="55" y1="55" x2="28" y2="24" stroke="#1E90FF" stroke-width="2.5"/><line x1="55" y1="55" x2="82" y2="24" stroke="#1E90FF" stroke-width="2.5"/>
      <line x1="55" y1="55" x2="90" y2="50" stroke="#1E90FF" stroke-width="2.5"/><line x1="55" y1="55" x2="26" y2="76" stroke="#1E90FF" stroke-width="2.5"/>
      <line x1="55" y1="55" x2="78" y2="86" stroke="#8B5CF6" stroke-width="3.5"/>
      <circle cx="28" cy="24" r="4.5" fill="none" stroke="#1E90FF" stroke-width="2"/><circle cx="82" cy="24" r="3.5" fill="none" stroke="#1E90FF" stroke-width="2"/>
      <circle cx="90" cy="50" r="3.5" fill="none" stroke="#1E90FF" stroke-width="2"/><circle cx="26" cy="76" r="3.5" fill="none" stroke="#1E90FF" stroke-width="2"/>
      <circle cx="78" cy="86" r="5.5" fill="#8B5CF6"/><circle cx="55" cy="55" r="7" fill="none" stroke="#1E90FF" stroke-width="3"/>
      <g stroke="#5a6f8a" stroke-width="1.5" fill="none" opacity="0.3"><polyline points="8,20 8,8 20,8"/><polyline points="90,8 102,8 102,20"/><polyline points="102,90 102,102 90,102"/><polyline points="20,102 8,102 8,90"/></g>
    </svg>
    <text x="58" y="102" text-anchor="middle" font-family="Recursive, monospace" font-weight="300" font-size="28" fill="#e8ecf4">Synapse</text>
  </g>

  <!-- STACKED + TAGLINE -->
  <text x="260" y="240" font-family="Recursive, monospace" font-size="9" letter-spacing="0.15em" fill="#5a6f8a">STACKED + TAGLINE</text>
  <g transform="translate(260,256)">
    <svg x="22" width="80" height="80" viewBox="0 0 110 110">
      <rect width="110" height="110" fill="#0c1220"/>
      <line x1="55" y1="55" x2="28" y2="24" stroke="#1E90FF" stroke-width="2.5"/><line x1="55" y1="55" x2="82" y2="24" stroke="#1E90FF" stroke-width="2.5"/>
      <line x1="55" y1="55" x2="90" y2="50" stroke="#1E90FF" stroke-width="2.5"/><line x1="55" y1="55" x2="26" y2="76" stroke="#1E90FF" stroke-width="2.5"/>
      <line x1="55" y1="55" x2="78" y2="86" stroke="#8B5CF6" stroke-width="3.5"/>
      <circle cx="28" cy="24" r="4.5" fill="none" stroke="#1E90FF" stroke-width="2"/><circle cx="82" cy="24" r="3.5" fill="none" stroke="#1E90FF" stroke-width="2"/>
      <circle cx="90" cy="50" r="3.5" fill="none" stroke="#1E90FF" stroke-width="2"/><circle cx="26" cy="76" r="3.5" fill="none" stroke="#1E90FF" stroke-width="2"/>
      <circle cx="78" cy="86" r="5.5" fill="#8B5CF6"/><circle cx="55" cy="55" r="7" fill="none" stroke="#1E90FF" stroke-width="3"/>
      <g stroke="#5a6f8a" stroke-width="1.5" fill="none" opacity="0.3"><polyline points="8,20 8,8 20,8"/><polyline points="90,8 102,8 102,20"/><polyline points="102,90 102,102 90,102"/><polyline points="20,102 8,102 8,90"/></g>
    </svg>
    <text x="62" y="98" text-anchor="middle" font-family="Recursive, monospace" font-weight="300" font-size="24" fill="#e8ecf4">Synapse</text>
    <text x="62" y="114" text-anchor="middle" font-family="Recursive, monospace" font-weight="500" font-size="10" letter-spacing="0.15em" fill="#8B5CF6">On-Board Intelligence</text>
  </g>

  <!-- WORDMARK ONLY -->
  <text x="500" y="240" font-family="Recursive, monospace" font-size="9" letter-spacing="0.15em" fill="#5a6f8a">WORDMARK ONLY</text>
  <text x="500" y="310" font-family="Recursive, monospace" font-weight="300" font-size="48" fill="#e8ecf4">Synapse</text>

  <!-- SIZE VARIATIONS -->
  <text x="60" y="420" font-family="Recursive, monospace" font-size="9" letter-spacing="0.15em" fill="#5a6f8a">SIZE VARIATIONS</text>
  <g transform="translate(60,438)">
    <svg width="64" height="64" viewBox="0 0 110 110"><rect width="110" height="110" fill="#0c1220"/><line x1="55" y1="55" x2="28" y2="24" stroke="#1E90FF" stroke-width="2.5"/><line x1="55" y1="55" x2="82" y2="24" stroke="#1E90FF" stroke-width="2.5"/><line x1="55" y1="55" x2="90" y2="50" stroke="#1E90FF" stroke-width="2.5"/><line x1="55" y1="55" x2="78" y2="86" stroke="#8B5CF6" stroke-width="3.5"/><circle cx="28" cy="24" r="4.5" fill="none" stroke="#1E90FF" stroke-width="2"/><circle cx="82" cy="24" r="3.5" fill="none" stroke="#1E90FF" stroke-width="2"/><circle cx="90" cy="50" r="3.5" fill="none" stroke="#1E90FF" stroke-width="2"/><circle cx="26" cy="76" r="3.5" fill="none" stroke="#1E90FF" stroke-width="2"/><circle cx="78" cy="86" r="5.5" fill="#8B5CF6"/><circle cx="55" cy="55" r="7" fill="none" stroke="#1E90FF" stroke-width="3"/><g stroke="#5a6f8a" stroke-width="1.5" fill="none" opacity="0.3"><polyline points="8,20 8,8 20,8"/><polyline points="90,8 102,8 102,20"/><polyline points="102,90 102,102 90,102"/><polyline points="20,102 8,102 8,90"/></g></svg>
    <text x="80" y="42" font-family="Recursive, monospace" font-weight="300" font-size="32" fill="#e8ecf4">Synapse</text>
    <text x="38" y="82" text-anchor="middle" font-family="Recursive, monospace" font-size="9" letter-spacing="0.1em" fill="#5a6f8a">64px</text>
  </g>
  <g transform="translate(370,448)">
    <svg width="44" height="44" viewBox="0 0 110 110"><rect width="110" height="110" fill="#0c1220"/><line x1="55" y1="55" x2="28" y2="24" stroke="#1E90FF" stroke-width="2.5"/><line x1="55" y1="55" x2="82" y2="24" stroke="#1E90FF" stroke-width="2.5"/><line x1="55" y1="55" x2="78" y2="86" stroke="#8B5CF6" stroke-width="3.5"/><circle cx="28" cy="24" r="4" fill="none" stroke="#1E90FF" stroke-width="2"/><circle cx="82" cy="24" r="3" fill="none" stroke="#1E90FF" stroke-width="2"/><circle cx="78" cy="86" r="5" fill="#8B5CF6"/><circle cx="55" cy="55" r="6" fill="none" stroke="#1E90FF" stroke-width="3"/><g stroke="#5a6f8a" stroke-width="1.5" fill="none" opacity="0.3"><polyline points="8,20 8,8 20,8"/><polyline points="90,8 102,8 102,20"/><polyline points="102,90 102,102 90,102"/><polyline points="20,102 8,102 8,90"/></g></svg>
    <text x="56" y="30" font-family="Recursive, monospace" font-weight="300" font-size="22" fill="#e8ecf4">Synapse</text>
    <text x="26" y="62" text-anchor="middle" font-family="Recursive, monospace" font-size="9" letter-spacing="0.1em" fill="#5a6f8a">44px</text>
  </g>
  <g transform="translate(580,456)">
    <svg width="28" height="28" viewBox="0 0 110 110"><rect width="110" height="110" fill="#0c1220"/><line x1="55" y1="55" x2="28" y2="24" stroke="#1E90FF" stroke-width="3"/><line x1="55" y1="55" x2="82" y2="24" stroke="#1E90FF" stroke-width="3"/><line x1="55" y1="55" x2="78" y2="86" stroke="#8B5CF6" stroke-width="4"/><circle cx="78" cy="86" r="7" fill="#8B5CF6"/><circle cx="55" cy="55" r="8" fill="none" stroke="#1E90FF" stroke-width="3.5"/></svg>
    <text x="38" y="20" font-family="Recursive, monospace" font-weight="300" font-size="16" fill="#e8ecf4">Synapse</text>
    <text x="18" y="44" text-anchor="middle" font-family="Recursive, monospace" font-size="9" letter-spacing="0.1em" fill="#5a6f8a">28px</text>
  </g>
  <g transform="translate(730,460)">
    <svg width="20" height="20" viewBox="0 0 110 110"><rect width="110" height="110" fill="#0c1220"/><line x1="55" y1="55" x2="28" y2="24" stroke="#1E90FF" stroke-width="4"/><line x1="55" y1="55" x2="82" y2="24" stroke="#1E90FF" stroke-width="4"/><line x1="55" y1="55" x2="78" y2="86" stroke="#8B5CF6" stroke-width="5"/><circle cx="78" cy="86" r="8" fill="#8B5CF6"/><circle cx="55" cy="55" r="9" fill="none" stroke="#1E90FF" stroke-width="4"/></svg>
    <text x="28" y="14" font-family="Recursive, monospace" font-weight="300" font-size="12" fill="#e8ecf4">Synapse</text>
    <text x="14" y="36" text-anchor="middle" font-family="Recursive, monospace" font-size="9" letter-spacing="0.1em" fill="#5a6f8a">20px</text>
  </g>

  <!-- BADGE -->
  <text x="60" y="560" font-family="Recursive, monospace" font-size="9" letter-spacing="0.15em" fill="#5a6f8a">BADGE</text>
  <g transform="translate(60,576)">
    <rect width="280" height="60" fill="#101828" stroke="#0A6ED8" stroke-width="1"/>
    <svg x="12" y="10" width="40" height="40" viewBox="0 0 110 110"><rect width="110" height="110" fill="#0c1220"/><line x1="55" y1="55" x2="28" y2="24" stroke="#1E90FF" stroke-width="2.5"/><line x1="55" y1="55" x2="82" y2="24" stroke="#1E90FF" stroke-width="2.5"/><line x1="55" y1="55" x2="90" y2="50" stroke="#1E90FF" stroke-width="2.5"/><line x1="55" y1="55" x2="78" y2="86" stroke="#8B5CF6" stroke-width="3.5"/><circle cx="78" cy="86" r="5.5" fill="#8B5CF6"/><circle cx="55" cy="55" r="7" fill="none" stroke="#1E90FF" stroke-width="3"/></svg>
    <text x="64" y="36" font-family="Recursive, monospace" font-weight="300" font-size="18" fill="#e8ecf4">Synapse</text>
    <line x1="168" y1="14" x2="168" y2="46" stroke="#1e2d44" stroke-width="1"/>
    <text x="184" y="32" font-family="Recursive, monospace" font-weight="500" font-size="14" letter-spacing="0.05em" fill="#A78BFA">&lt;1ms</text>
    <text x="184" y="46" font-family="Recursive, monospace" font-weight="400" font-size="9" fill="#5a6f8a">Decision Latency</text>
  </g>

  <!-- FOOTER -->
  <rect x="0" y="760" width="1200" height="40" fill="#0c1220"/>
  <text x="600" y="784" text-anchor="middle" font-family="Recursive, monospace" font-size="10" letter-spacing="0.15em" fill="#5a6f8a">SYNAPSE LOCKUPS · LIGHT WORDMARK · ATLAS CREW</text>
</svg>
