<?xml version="1.0" encoding="UTF-8"?>
<svg width="1280" height="640" viewBox="0 0 1280 640" xmlns="http://www.w3.org/2000/svg">
  <defs>
    <style>
      @import url('https://fonts.googleapis.com/css2?family=Recursive:slnt,wght,CASL,CRSV,MONO@-15..0,300..900,0..1,0..1,0..1&amp;display=swap');
    </style>
    <linearGradient id="bg" x1="0" y1="0" x2="0" y2="1">
      <stop offset="0%" stop-color="#131c2e"/>
      <stop offset="100%" stop-color="#0c1220"/>
    </linearGradient>
    <radialGradient id="glow-violet" cx="0.35" cy="0.45" r="0.5">
      <stop offset="0%" stop-color="#8B5CF6" stop-opacity="0.06"/>
      <stop offset="100%" stop-color="#8B5CF6" stop-opacity="0"/>
    </radialGradient>
    <radialGradient id="glow-blue" cx="0.7" cy="0.6" r="0.4">
      <stop offset="0%" stop-color="#1E90FF" stop-opacity="0.04"/>
      <stop offset="100%" stop-color="#1E90FF" stop-opacity="0"/>
    </radialGradient>
  </defs>

  <!-- Background -->
  <rect width="1280" height="640" fill="url(#bg)"/>
  <rect width="1280" height="640" fill="url(#glow-violet)"/>
  <rect width="1280" height="640" fill="url(#glow-blue)"/>

  <!-- Grid -->
  <g stroke="#8B5CF6" stroke-width="0.5" opacity="0.03">
    <line x1="0" y1="0" x2="0" y2="640"/><line x1="60" y1="0" x2="60" y2="640"/>
    <line x1="120" y1="0" x2="120" y2="640"/><line x1="180" y1="0" x2="180" y2="640"/>
    <line x1="240" y1="0" x2="240" y2="640"/><line x1="300" y1="0" x2="300" y2="640"/>
    <line x1="360" y1="0" x2="360" y2="640"/><line x1="420" y1="0" x2="420" y2="640"/>
    <line x1="480" y1="0" x2="480" y2="640"/><line x1="540" y1="0" x2="540" y2="640"/>
    <line x1="600" y1="0" x2="600" y2="640"/><line x1="660" y1="0" x2="660" y2="640"/>
    <line x1="720" y1="0" x2="720" y2="640"/><line x1="780" y1="0" x2="780" y2="640"/>
    <line x1="840" y1="0" x2="840" y2="640"/><line x1="900" y1="0" x2="900" y2="640"/>
    <line x1="960" y1="0" x2="960" y2="640"/><line x1="1020" y1="0" x2="1020" y2="640"/>
    <line x1="1080" y1="0" x2="1080" y2="640"/><line x1="1140" y1="0" x2="1140" y2="640"/>
    <line x1="1200" y1="0" x2="1200" y2="640"/><line x1="1260" y1="0" x2="1260" y2="640"/>
    <line x1="0" y1="60" x2="1280" y2="60"/><line x1="0" y1="120" x2="1280" y2="120"/>
    <line x1="0" y1="180" x2="1280" y2="180"/><line x1="0" y1="240" x2="1280" y2="240"/>
    <line x1="0" y1="300" x2="1280" y2="300"/><line x1="0" y1="360" x2="1280" y2="360"/>
    <line x1="0" y1="420" x2="1280" y2="420"/><line x1="0" y1="480" x2="1280" y2="480"/>
    <line x1="0" y1="540" x2="1280" y2="540"/><line x1="0" y1="600" x2="1280" y2="600"/>
  </g>

  <!-- Large neural graph (left, faded) -->
  <g transform="translate(80, 120) scale(3.2)" opacity="0.1">
    <line x1="55" y1="55" x2="28" y2="24" stroke="#1E90FF" stroke-width="2.5" stroke-linecap="square"/>
    <line x1="55" y1="55" x2="82" y2="24" stroke="#1E90FF" stroke-width="2.5" stroke-linecap="square"/>
    <line x1="55" y1="55" x2="90" y2="50" stroke="#1E90FF" stroke-width="2.5" stroke-linecap="square"/>
    <line x1="55" y1="55" x2="26" y2="76" stroke="#1E90FF" stroke-width="2.5" stroke-linecap="square"/>
    <line x1="55" y1="55" x2="78" y2="86" stroke="#8B5CF6" stroke-width="3.5" stroke-linecap="square"/>
    <line x1="28" y1="24" x2="82" y2="24" stroke="#1E90FF" stroke-width="1.5" stroke-linecap="square" opacity="0.3"/>
    <line x1="82" y1="24" x2="90" y2="50" stroke="#1E90FF" stroke-width="1.5" stroke-linecap="square" opacity="0.3"/>
    <line x1="26" y1="76" x2="78" y2="86" stroke="#8B5CF6" stroke-width="2" stroke-linecap="square" opacity="0.35"/>
    <circle cx="28" cy="24" r="4.5" fill="none" stroke="#1E90FF" stroke-width="2"/>
    <circle cx="82" cy="24" r="3.5" fill="none" stroke="#1E90FF" stroke-width="2"/>
    <circle cx="90" cy="50" r="3.5" fill="none" stroke="#1E90FF" stroke-width="2"/>
    <circle cx="26" cy="76" r="3.5" fill="none" stroke="#1E90FF" stroke-width="2"/>
    <circle cx="78" cy="86" r="5.5" fill="#8B5CF6"/>
    <circle cx="55" cy="55" r="7" fill="none" stroke="#1E90FF" stroke-width="3"/>
  </g>

  <!-- Icon -->
  <g transform="translate(434, 222)">
    <rect width="110" height="110" fill="#0c1220"/>
    <line x1="55" y1="55" x2="28" y2="24" stroke="#1E90FF" stroke-width="2.5" stroke-linecap="square"/>
    <line x1="55" y1="55" x2="82" y2="24" stroke="#1E90FF" stroke-width="2.5" stroke-linecap="square"/>
    <line x1="55" y1="55" x2="90" y2="50" stroke="#1E90FF" stroke-width="2.5" stroke-linecap="square"/>
    <line x1="55" y1="55" x2="26" y2="76" stroke="#1E90FF" stroke-width="2.5" stroke-linecap="square"/>
    <line x1="55" y1="55" x2="78" y2="86" stroke="#8B5CF6" stroke-width="3.5" stroke-linecap="square"/>
    <line x1="28" y1="24" x2="82" y2="24" stroke="#1E90FF" stroke-width="1.5" stroke-linecap="square" opacity="0.3"/>
    <line x1="82" y1="24" x2="90" y2="50" stroke="#1E90FF" stroke-width="1.5" stroke-linecap="square" opacity="0.3"/>
    <line x1="26" y1="76" x2="78" y2="86" stroke="#8B5CF6" stroke-width="2" stroke-linecap="square" opacity="0.35"/>
    <circle cx="28" cy="24" r="4.5" fill="none" stroke="#1E90FF" stroke-width="2"/>
    <circle cx="82" cy="24" r="3.5" fill="none" stroke="#1E90FF" stroke-width="2"/>
    <circle cx="90" cy="50" r="3.5" fill="none" stroke="#1E90FF" stroke-width="2"/>
    <circle cx="26" cy="76" r="3.5" fill="none" stroke="#1E90FF" stroke-width="2"/>
    <circle cx="78" cy="86" r="5.5" fill="#8B5CF6"/>
    <circle cx="55" cy="55" r="7" fill="none" stroke="#1E90FF" stroke-width="3"/>
    <g stroke="#5a6f8a" stroke-width="1.5" fill="none" opacity="0.3">
      <polyline points="8,20 8,8 20,8"/>
      <polyline points="90,8 102,8 102,20"/>
      <polyline points="102,90 102,102 90,102"/>
      <polyline points="20,102 8,102 8,90"/>
    </g>
  </g>

  <!-- Wordmark -->
  <text x="570" y="298" font-family="'Recursive', monospace" font-size="64" font-weight="700" fill="#8B5CF6" letter-spacing="2">SYNAPSE</text>

  <!-- Rule + tagline (violet rule) -->
  <line x1="570" y1="324" x2="600" y2="324" stroke="#4C1D95" stroke-width="1" opacity="0.6"/>
  <text x="614" y="328" font-family="'Recursive', monospace" font-size="13" font-weight="500" fill="#5a6f8a" letter-spacing="3">ON-BOARD INTELLIGENCE</text>

  <!-- Feature labels -->
  <g transform="translate(570, 380)">
    <text x="0" y="0" font-family="'Recursive', monospace" font-size="11" font-weight="500" fill="#5a6f8a" letter-spacing="1">450μs detection · 72K RPS · 500+ bot signatures</text>
    <text x="0" y="22" font-family="'Recursive', monospace" font-size="11" font-weight="500" fill="#5a6f8a" letter-spacing="1">22+ DLP patterns · 13 anomaly types · 8 campaign detectors</text>
  </g>

  <!-- Decorative neural spokes (bottom right) -->
  <g opacity="0.05">
    <line x1="1080" y1="460" x2="980" y2="380" stroke="#1E90FF" stroke-width="3" stroke-linecap="square"/>
    <line x1="1080" y1="460" x2="1200" y2="380" stroke="#1E90FF" stroke-width="3" stroke-linecap="square"/>
    <line x1="1080" y1="460" x2="1220" y2="500" stroke="#1E90FF" stroke-width="3" stroke-linecap="square"/>
    <line x1="1080" y1="460" x2="1000" y2="560" stroke="#1E90FF" stroke-width="3" stroke-linecap="square"/>
    <line x1="1080" y1="460" x2="1180" y2="580" stroke="#8B5CF6" stroke-width="4" stroke-linecap="square"/>
    <circle cx="1080" cy="460" r="10" fill="none" stroke="#1E90FF" stroke-width="3"/>
    <circle cx="1180" cy="580" r="8" fill="#8B5CF6"/>
  </g>

  <!-- Corner brackets -->
  <g stroke="#5a6f8a" stroke-width="2" fill="none" opacity="0.15">
    <polyline points="24,56 24,24 56,24"/>
    <polyline points="1224,24 1256,24 1256,56"/>
    <polyline points="1256,584 1256,616 1224,616"/>
    <polyline points="56,616 24,616 24,584"/>
  </g>
</svg>