<?xml version="1.0" encoding="UTF-8"?>
<svg width="960" height="120" viewBox="0 0 960 120" xmlns="http://www.w3.org/2000/svg">
  <defs>
    <style>@import url('https://fonts.googleapis.com/css2?family=Recursive:slnt,wght,CASL,CRSV,MONO@-15..0,300..900,0..1,0..1,0..1&amp;display=swap');</style>
  </defs>
  <rect width="960" height="120" fill="#0c1220"/>
  <g stroke="#5a6f8a" stroke-width="1.5" fill="none" opacity="0.2">
    <polyline points="8,20 8,8 20,8"/><polyline points="940,8 952,8 952,20"/>
    <polyline points="952,100 952,112 940,112"/><polyline points="20,112 8,112 8,100"/>
  </g>
  <!-- HORIZON -->
  <g transform="translate(40,20)">
    <svg width="80" height="80" viewBox="0 0 110 110">
      <line x1="18" y1="50" x2="92" y2="50" stroke="#1E90FF" stroke-width="1.5" stroke-linecap="square" opacity="0.25"/>
      <path d="M20,50 A35,32 0 0 1 90,50" fill="none" stroke="#F97316" stroke-width="5" stroke-linecap="square"/>
      <path d="M34,50 A21,19 0 0 1 76,50" fill="none" stroke="#F97316" stroke-width="2.5" stroke-linecap="square" opacity="0.45"/>
      <circle cx="55" cy="50" r="4.5" fill="#F97316"/>
      <line x1="55" y1="55" x2="26" y2="94" stroke="#1E90FF" stroke-width="3.5" stroke-linecap="square"/>
      <line x1="55" y1="55" x2="84" y2="94" stroke="#1E90FF" stroke-width="3.5" stroke-linecap="square"/>
      <line x1="55" y1="55" x2="18" y2="82" stroke="#F97316" stroke-width="2" stroke-linecap="square" opacity="0.45"/>
      <line x1="55" y1="55" x2="92" y2="82" stroke="#F97316" stroke-width="2" stroke-linecap="square" opacity="0.45"/>
      <g stroke="#5a6f8a" stroke-width="1.5" fill="none" opacity="0.3">
        <polyline points="8,20 8,8 20,8"/><polyline points="90,8 102,8 102,20"/>
        <polyline points="102,90 102,102 90,102"/><polyline points="20,102 8,102 8,90"/>
      </g>
    </svg>
    <text x="96" y="42" font-family="Recursive, monospace" font-weight="300" font-size="32" fill="#e8ecf4">Horizon</text>
    <text x="96" y="60" font-family="Recursive, monospace" font-weight="500" font-size="10" letter-spacing="0.15em" fill="#1E90FF">Fleet Intelligence</text>
  </g>
  <!-- Divider -->
  <line x1="460" y1="24" x2="460" y2="96" stroke="#1e2d44" stroke-width="1"/>
  <!-- SYNAPSE -->
  <g transform="translate(480,20)">
    <svg width="80" height="80" viewBox="0 0 110 110">
      <line x1="55" y1="55" x2="28" y2="24" stroke="#1E90FF" stroke-width="2.5" stroke-linecap="square"/>
      <line x1="55" y1="55" x2="82" y2="24" stroke="#1E90FF" stroke-width="2.5" stroke-linecap="square"/>
      <line x1="55" y1="55" x2="90" y2="50" stroke="#1E90FF" stroke-width="2.5" stroke-linecap="square"/>
      <line x1="55" y1="55" x2="26" y2="76" stroke="#1E90FF" stroke-width="2.5" stroke-linecap="square"/>
      <line x1="55" y1="55" x2="78" y2="86" stroke="#8B5CF6" stroke-width="3.5" stroke-linecap="square"/>
      <line x1="28" y1="24" x2="82" y2="24" stroke="#1E90FF" stroke-width="1.5" opacity="0.3"/>
      <line x1="82" y1="24" x2="90" y2="50" stroke="#1E90FF" stroke-width="1.5" opacity="0.3"/>
      <line x1="26" y1="76" x2="78" y2="86" stroke="#8B5CF6" stroke-width="2" opacity="0.35"/>
      <circle cx="28" cy="24" r="4.5" fill="none" stroke="#1E90FF" stroke-width="2"/>
      <circle cx="82" cy="24" r="3.5" fill="none" stroke="#1E90FF" stroke-width="2"/>
      <circle cx="90" cy="50" r="3.5" fill="none" stroke="#1E90FF" stroke-width="2"/>
      <circle cx="26" cy="76" r="3.5" fill="none" stroke="#1E90FF" stroke-width="2"/>
      <circle cx="78" cy="86" r="5.5" fill="#8B5CF6"/>
      <circle cx="55" cy="55" r="7" fill="none" stroke="#1E90FF" stroke-width="3"/>
      <g stroke="#5a6f8a" stroke-width="1.5" fill="none" opacity="0.3">
        <polyline points="8,20 8,8 20,8"/><polyline points="90,8 102,8 102,20"/>
        <polyline points="102,90 102,102 90,102"/><polyline points="20,102 8,102 8,90"/>
      </g>
    </svg>
    <text x="96" y="42" font-family="Recursive, monospace" font-weight="300" font-size="32" fill="#e8ecf4">Synapse</text>
    <text x="96" y="60" font-family="Recursive, monospace" font-weight="500" font-size="10" letter-spacing="0.15em" fill="#8B5CF6">On-Board Intelligence</text>
  </g>
</svg>
