<?xml version="1.0" encoding="UTF-8" standalone="no"?>
<svg
   width="831.61816"
   height="95.5"
   viewBox="0 0 831.61816 95.5"
   version="1.1"
   id="svg28"
   xmlns="http://www.w3.org/2000/svg"
   xmlns:svg="http://www.w3.org/2000/svg">
  <defs
     id="defs1">
    <style
       id="style1">@import url('https://fonts.googleapis.com/css2?family=Recursive:slnt,wght,CASL,CRSV,MONO@-15..0,300..900,0..1,0..1,0..1&amp;display=swap');</style>
  </defs>
  <!-- Horizon icon -->
  <g
     id="g9"
     transform="translate(-7.25,-7.25)">
    <line
       x1="18"
       y1="50"
       x2="92"
       y2="50"
       stroke="#1e90ff"
       stroke-width="1.5"
       stroke-linecap="square"
       opacity="0.25"
       id="line1" />
    <path
       d="m 20,50 a 35,32 0 0 1 70,0"
       fill="none"
       stroke="#f97316"
       stroke-width="5"
       stroke-linecap="square"
       id="path1" />
    <path
       d="m 34,50 a 21,19 0 0 1 42,0"
       fill="none"
       stroke="#f97316"
       stroke-width="2.5"
       stroke-linecap="square"
       opacity="0.45"
       id="path2" />
    <circle
       cx="55"
       cy="50"
       r="4.5"
       fill="#f97316"
       id="circle2" />
    <line
       x1="55"
       y1="55"
       x2="26"
       y2="94"
       stroke="#1e90ff"
       stroke-width="3.5"
       stroke-linecap="square"
       id="line2" />
    <line
       x1="55"
       y1="55"
       x2="84"
       y2="94"
       stroke="#1e90ff"
       stroke-width="3.5"
       stroke-linecap="square"
       id="line3" />
    <line
       x1="55"
       y1="55"
       x2="18"
       y2="82"
       stroke="#f97316"
       stroke-width="2"
       stroke-linecap="square"
       opacity="0.45"
       id="line4" />
    <line
       x1="55"
       y1="55"
       x2="92"
       y2="82"
       stroke="#f97316"
       stroke-width="2"
       stroke-linecap="square"
       opacity="0.45"
       id="line5" />
    <g
       stroke="#5a6f8a"
       stroke-width="1.5"
       fill="none"
       opacity="0.3"
       id="g8">
      <polyline
         points="8,20 8,8 20,8"
         id="polyline5" />
      <polyline
         points="90,8 102,8 102,20"
         id="polyline6" />
      <polyline
         points="102,90 102,102 90,102"
         id="polyline7" />
      <polyline
         points="20,102 8,102 8,90"
         id="polyline8" />
    </g>
  </g>
  <!-- Horizon wordmark -->
  <path
     d="m 139.66797,48.75 h -3.36328 V 34.394531 h -9.90528 V 48.75 h -3.36328 V 19.813477 h 3.36328 v 11.627929 h 9.90528 V 19.813477 h 3.36328 z m 18.33691,-29.490234 q 4.86035,0 7.40332,3.855468 q 2.56348,3.834961 2.56348,11.176758 q 0,7.300781 -2.54297,11.15625 q -2.54297,3.855469 -7.42383,3.855469 q -4.83984,0 -7.40332,-3.834961 q -2.54297,-3.855469 -2.54297,-11.176758 q 0,-7.321289 2.54297,-11.176758 q 2.54297,-3.855468 7.40332,-3.855468 z m 0,27.09082 q 6.39844,0 6.39844,-12.058594 q 0,-12.079101 -6.39844,-12.079101 q -3.11718,0 -4.75781,3.137695 q -1.62012,3.117187 -1.62012,8.941406 q 0,5.885742 1.62012,8.982422 q 1.62012,3.076172 4.75781,3.076172 z M 196.23437,48.75 h -4.2041 l -8.49023,-13.145508 h -3.73242 V 48.75 h -3.36328 V 19.813477 h 8.18261 q 4.12207,0 6.50098,2.009765 q 2.39941,1.989258 2.39941,5.557617 q 0,2.645508 -1.74316,4.716797 q -1.74316,2.050781 -4.79883,2.789063 z M 179.80762,32.671875 h 4.24511 q 2.66602,0 4.32715,-1.435547 q 1.66114,-1.456055 1.66114,-3.650391 q 0,-4.839843 -5.90625,-4.839843 h -4.32715 z M 217.89355,48.75 h -13.1455 v -2.932617 h 4.9834 V 22.746094 h -4.9834 v -2.932617 h 13.1455 v 2.932617 h -4.79882 v 23.071289 h 4.79882 z m 29.00098,-26.537109 l -13.76074,23.604492 h 13.51465 V 48.75 h -17.34961 v -2.358398 l 13.69922,-23.645508 h -13.1045 v -2.932617 h 17.00098 z m 17.92676,-2.953125 q 4.86035,0 7.40332,3.855468 q 2.56348,3.834961 2.56348,11.176758 q 0,7.300781 -2.54297,11.15625 q -2.54297,3.855469 -7.42383,3.855469 q -4.83984,0 -7.40332,-3.834961 Q 254.875,41.613281 254.875,34.291992 q 0,-7.321289 2.54297,-11.176758 q 2.54297,-3.855468 7.40332,-3.855468 z m 0,27.09082 q 6.39844,0 6.39844,-12.058594 q 0,-12.079101 -6.39844,-12.079101 q -3.11719,0 -4.75781,3.137695 q -1.62012,3.117187 -1.62012,8.941406 q 0,5.885742 1.62012,8.982422 q 1.62011,3.076172 4.75781,3.076172 z M 300.30273,48.75 h -3.73242 L 286.19336,25.904297 V 48.75 h -3.36328 V 19.813477 h 3.75293 l 10.41797,22.640625 V 19.813477 h 3.30175 z"
     id="text9"
     style="font-weight:700;font-size:42px;font-family:Recursive, monospace;letter-spacing:1.5;fill:#f97316"
     aria-label="HORIZON" />
  <line
     x1="118.75"
     y1="64.75"
     x2="144.75"
     y2="64.75"
     stroke="#2a3f5c"
     stroke-width="1"
     id="line9" />
  <path
     d="m 161.21777,62.62207 q -0.61523,-0.209961 -1.16699,-0.209961 q -0.625,0 -1.02051,0.288086 q -0.39062,0.283203 -0.39062,0.810547 q 0,0.625 1.03027,1.098633 q 0.76172,0.351562 1.00586,0.488281 q 0.24902,0.136719 0.50293,0.375977 q 0.25391,0.239258 0.40527,0.566406 q 0.15625,0.322266 0.15625,0.727539 q 0,1.005859 -0.67871,1.5625 q -0.67382,0.551758 -1.59179,0.551758 q -0.88868,0 -1.55762,-0.351563 l 0.16601,-0.688476 q 0.78614,0.356445 1.37208,0.356445 q 0.68359,0 1.09375,-0.351562 q 0.41503,-0.356446 0.41503,-0.976563 q 0,-0.458984 -0.26855,-0.776367 q -0.26856,-0.322266 -0.99121,-0.654297 q -0.74219,-0.341797 -0.96192,-0.463867 q -0.21484,-0.126953 -0.42968,-0.34668 q -0.21485,-0.219726 -0.33203,-0.493164 q -0.11719,-0.273437 -0.11719,-0.595703 q 0,-0.854492 0.61523,-1.333008 q 0.61524,-0.478515 1.55762,-0.478515 q 0.68848,0 1.36719,0.209961 z m 8.88184,6.12793 h -3.59863 v -6.889648 h 3.56933 v 0.698242 h -2.76855 v 2.133789 h 2.66113 v 0.698242 h -2.66113 v 2.661133 h 2.79785 z m 8.50098,0 h -3.59864 v -6.889648 h 3.56934 v 0.698242 h -2.76856 v 2.133789 h 2.66114 v 0.698242 h -2.66114 v 2.661133 h 2.79786 z m 17.05566,-6.191406 h -2.85156 v 2.250976 h 2.59765 v 0.698242 h -2.59765 V 68.75 h -0.80078 v -6.889648 h 3.65234 z m 8.5791,4.023437 q 0,1.196289 -0.48828,1.748047 q -0.4834,0.551758 -1.47461,0.551758 q -1.99707,0 -1.99707,-2.280274 v -4.74121 h 0.80078 v 4.667968 q 0,1.650391 1.19629,1.650391 q 0.60059,0 0.87891,-0.390625 q 0.2832,-0.390625 0.2832,-1.269531 v -4.658203 h 0.80078 z M 213.48828,68.75 h -1.00098 l -2.02148,-3.129883 h -0.88867 V 68.75 h -0.80078 v -6.889648 h 1.94824 q 0.98144,0 1.54785,0.478515 q 0.57129,0.473633 0.57129,1.323242 q 0,0.629883 -0.41504,1.123047 q -0.41504,0.488281 -1.14258,0.664063 z m -3.91113,-3.828125 h 1.01074 q 0.63477,0 1.03027,-0.341797 q 0.39551,-0.34668 0.39551,-0.869141 q 0,-1.152343 -1.40625,-1.152343 h -1.03027 z m 12.21191,-2.412109 h -2.12402 V 68.75 h -0.7959 v -6.240234 h -2.13379 v -0.649414 h 5.05371 z M 229.73828,68.75 h -0.80078 v -3.417969 h -2.3584 V 68.75 h -0.80078 v -6.889648 h 0.80078 v 2.768554 h 2.3584 v -2.768554 h 0.80078 z m 8.36914,0 h -3.59863 v -6.889648 h 3.56933 v 0.698242 h -2.76855 v 2.133789 h 2.66113 v 0.698242 h -2.66113 v 2.661133 h 2.79785 z m 9.38477,0 h -1.00098 l -2.02148,-3.129883 h -0.88868 V 68.75 h -0.80078 v -6.889648 h 1.94825 q 0.98144,0 1.54785,0.478515 q 0.57129,0.473633 0.57129,1.323242 q 0,0.629883 -0.41504,1.123047 q -0.41504,0.488281 -1.14258,0.664063 z m -3.91114,-3.828125 h 1.01075 q 0.63476,0 1.03027,-0.341797 q 0.39551,-0.34668 0.39551,-0.869141 q 0,-1.152343 -1.40625,-1.152343 h -1.03028 z m 9.64844,2.709961 q 0.25879,0 0.43457,0.175781 q 0.17578,0.175781 0.17578,0.43457 q 0,0.263672 -0.18066,0.454102 q -0.17578,0.185547 -0.42969,0.185547 q -0.24902,0 -0.4248,-0.185547 q -0.17578,-0.19043 -0.17578,-0.454102 q 0,-0.263671 0.17089,-0.43457 q 0.17579,-0.175781 0.42969,-0.175781 z M 273.00488,68.75 h -0.83984 l -0.76172,-2.412109 h -2.26074 L 268.37109,68.75 h -0.83007 l 2.25097,-6.889648 h 0.96192 z m -1.83105,-3.110352 l -0.90332,-2.851562 l -0.89844,2.851562 z m 9.81933,2.680664 q -0.81054,0.561524 -1.87988,0.561524 q -1.33789,0 -2.03613,-0.917969 q -0.69336,-0.917969 -0.69336,-2.65625 q 0,-1.679687 0.67383,-2.626953 q 0.67383,-0.952148 2.05566,-0.952148 q 0.49805,0 0.98633,0.126953 q 0.48828,0.126953 0.78613,0.336914 l -0.26367,0.629883 q -0.68848,-0.390625 -1.50879,-0.390625 q -0.95215,0 -1.41601,0.693359 q -0.46387,0.688477 -0.46387,2.182617 q 0,2.871094 1.87988,2.871094 q 0.7959,0 1.63086,-0.488281 z m 8.80371,-5.810546 h -2.12402 V 68.75 h -0.7959 v -6.240234 h -2.13379 v -0.649414 h 5.05371 z m 16.37208,0.04883 h -2.85157 v 2.250976 h 2.59766 v 0.698242 h -2.59766 V 68.75 h -0.80078 v -6.889648 h 3.65235 z M 315.50977,68.75 h -0.83985 l -0.76172,-2.412109 h -2.26074 L 310.87598,68.75 h -0.83008 l 2.25097,-6.889648 h 0.96192 z m -1.83106,-3.110352 l -0.90332,-2.851562 l -0.89844,2.851562 z m 9.05762,-3.017578 q -0.61524,-0.209961 -1.16699,-0.209961 q -0.625,0 -1.02051,0.288086 q -0.39063,0.283203 -0.39063,0.810547 q 0,0.625 1.03028,1.098633 q 0.76172,0.351562 1.00586,0.488281 q 0.24902,0.136719 0.50293,0.375977 q 0.2539,0.239258 0.40527,0.566406 q 0.15625,0.322266 0.15625,0.727539 q 0,1.005859 -0.67871,1.5625 q -0.67383,0.551758 -1.5918,0.551758 q -0.88867,0 -1.55762,-0.351563 l 0.16602,-0.688476 q 0.78613,0.356445 1.37207,0.356445 q 0.68359,0 1.09375,-0.351562 q 0.41504,-0.356446 0.41504,-0.976563 q 0,-0.458984 -0.26856,-0.776367 q -0.26855,-0.322266 -0.99121,-0.654297 q -0.74218,-0.341797 -0.96191,-0.463867 q -0.21484,-0.126953 -0.42969,-0.34668 q -0.21484,-0.219726 -0.33203,-0.493164 q -0.11719,-0.273437 -0.11719,-0.595703 q 0,-0.854492 0.61524,-1.333008 q 0.61523,-0.478515 1.55761,-0.478515 q 0.68848,0 1.36719,0.209961 z m 9.56543,-0.112304 h -2.12403 V 68.75 h -0.79589 v -6.240234 h -2.13379 v -0.649414 h 5.05371 z M 340.11914,68.75 h -3.59863 v -6.889648 h 3.56933 v 0.698242 h -2.76855 v 2.133789 h 2.66113 v 0.698242 h -2.66113 v 2.661133 h 2.79785 z m 9.38477,0 h -1.00098 l -2.02148,-3.129883 h -0.88868 V 68.75 h -0.80078 v -6.889648 h 1.94824 q 0.98145,0 1.54786,0.478515 q 0.57128,0.473633 0.57128,1.323242 q 0,0.629883 -0.41503,1.123047 q -0.41504,0.488281 -1.14258,0.664063 z m -3.91114,-3.828125 h 1.01075 q 0.63476,0 1.03027,-0.341797 q 0.39551,-0.34668 0.39551,-0.869141 q 0,-1.152343 -1.40625,-1.152343 h -1.03028 z m 9.64844,2.709961 q 0.25879,0 0.43457,0.175781 q 0.17578,0.175781 0.17578,0.43457 q 0,0.263672 -0.18066,0.454102 q -0.17578,0.185547 -0.42969,0.185547 q -0.24902,0 -0.4248,-0.185547 q -0.17579,-0.19043 -0.17579,-0.454102 q 0,-0.263671 0.1709,-0.43457 q 0.17578,-0.175781 0.42969,-0.175781 z"
     id="text10"
     style="font-weight:500;font-size:10px;font-family:Recursive, monospace;letter-spacing:2.5;fill:#5a6f8a"
     aria-label="SEE FURTHER. ACT FASTER." />
  <!-- Divider -->
  <line
     x1="472.75"
     y1="12.75"
     x2="472.75"
     y2="82.75"
     stroke="#1e2d44"
     stroke-width="1"
     id="line10" />
  <!-- Synapse icon -->
  <g
     transform="translate(492.75,-7.25)"
     id="g27">
    <line
       x1="55"
       y1="55"
       x2="28"
       y2="24"
       stroke="#1e90ff"
       stroke-width="2.5"
       stroke-linecap="square"
       id="line11" />
    <line
       x1="55"
       y1="55"
       x2="82"
       y2="24"
       stroke="#1e90ff"
       stroke-width="2.5"
       stroke-linecap="square"
       id="line12" />
    <line
       x1="55"
       y1="55"
       x2="90"
       y2="50"
       stroke="#1e90ff"
       stroke-width="2.5"
       stroke-linecap="square"
       id="line13" />
    <line
       x1="55"
       y1="55"
       x2="26"
       y2="76"
       stroke="#1e90ff"
       stroke-width="2.5"
       stroke-linecap="square"
       id="line14" />
    <line
       x1="55"
       y1="55"
       x2="78"
       y2="86"
       stroke="#8b5cf6"
       stroke-width="3.5"
       stroke-linecap="square"
       id="line15" />
    <line
       x1="28"
       y1="24"
       x2="82"
       y2="24"
       stroke="#1e90ff"
       stroke-width="1.5"
       stroke-linecap="square"
       opacity="0.3"
       id="line16" />
    <line
       x1="82"
       y1="24"
       x2="90"
       y2="50"
       stroke="#1e90ff"
       stroke-width="1.5"
       stroke-linecap="square"
       opacity="0.3"
       id="line17" />
    <line
       x1="26"
       y1="76"
       x2="78"
       y2="86"
       stroke="#8b5cf6"
       stroke-width="2"
       stroke-linecap="square"
       opacity="0.35"
       id="line18" />
    <circle
       cx="28"
       cy="24"
       r="4.5"
       fill="none"
       stroke="#1e90ff"
       stroke-width="2"
       id="circle18" />
    <circle
       cx="82"
       cy="24"
       r="3.5"
       fill="none"
       stroke="#1e90ff"
       stroke-width="2"
       id="circle19" />
    <circle
       cx="90"
       cy="50"
       r="3.5"
       fill="none"
       stroke="#1e90ff"
       stroke-width="2"
       id="circle20" />
    <circle
       cx="26"
       cy="76"
       r="3.5"
       fill="none"
       stroke="#1e90ff"
       stroke-width="2"
       id="circle21" />
    <circle
       cx="78"
       cy="86"
       r="5.5"
       fill="#8b5cf6"
       id="circle22" />
    <circle
       cx="55"
       cy="55"
       r="7"
       fill="none"
       stroke="#1e90ff"
       stroke-width="3"
       id="circle23" />
    <g
       stroke="#5a6f8a"
       stroke-width="1.5"
       fill="none"
       opacity="0.3"
       id="g26">
      <polyline
         points="8,20 8,8 20,8"
         id="polyline23" />
      <polyline
         points="90,8 102,8 102,20"
         id="polyline24" />
      <polyline
         points="102,90 102,102 90,102"
         id="polyline25" />
      <polyline
         points="20,102 8,102 8,90"
         id="polyline26" />
    </g>
  </g>
  <!-- Synapse wordmark -->
  <path
     d="m 637.51465,23.012695 q -2.58399,-0.881836 -4.90137,-0.881836 q -2.625,0 -4.28613,1.209961 q -1.64063,1.189453 -1.64063,3.404297 q 0,2.625 4.32715,4.614258 q 3.19922,1.476562 4.22461,2.050781 q 1.0459,0.574219 2.11231,1.579102 q 1.0664,1.004883 1.70214,2.378906 q 0.65625,1.353516 0.65625,3.055664 q 0,4.224609 -2.85058,6.5625 q -2.83008,2.317383 -6.68555,2.317383 q -3.73242,0 -6.54199,-1.476563 l 0.69726,-2.891601 q 3.30176,1.49707 5.7627,1.49707 q 2.87109,0 4.59375,-1.476562 q 1.74316,-1.497071 1.74316,-4.101563 q 0,-1.927734 -1.12793,-3.260742 q -1.12793,-1.353516 -4.16308,-2.748047 q -3.11719,-1.435547 -4.04004,-1.948242 q -0.90234,-0.533203 -1.80469,-1.456055 q -0.90234,-0.922851 -1.39453,-2.071289 q -0.49219,-1.148437 -0.49219,-2.501953 q 0,-3.588867 2.58399,-5.598633 q 2.58398,-2.009765 6.54199,-2.009765 q 2.8916,0 5.74219,0.881836 z m 31.29785,-3.199218 l -9.04395,16.549804 V 48.75 h -3.34277 V 36.363281 l -9.04394,-16.549804 h 3.79394 l 6.91113,13.02246 l 6.93164,-13.02246 z M 693.48633,48.75 h -3.73242 L 679.37695,25.904297 V 48.75 h -3.36328 V 19.813477 h 3.75293 l 10.41797,22.640625 V 19.813477 h 3.30176 z m 29.49316,0 h -3.52734 l -3.19922,-10.130859 h -9.49512 L 703.51758,48.75 h -3.48633 l 9.4541,-28.936523 h 4.04004 z m -7.69043,-13.063477 l -3.79394,-11.976562 l -3.77344,11.976562 z m 15.52735,-15.873046 h 7.34179 q 4.16309,0 6.66504,2.091796 q 2.50196,2.091797 2.50196,5.762696 q 0,3.691406 -2.50196,5.90625 q -2.48144,2.194336 -6.52148,2.194336 h -4.12207 V 48.75 h -3.36328 z m 3.36328,13.02246 h 3.65039 q 5.92676,0 5.92676,-4.96289 q 0,-2.296875 -1.62012,-3.711914 q -1.59961,-1.415039 -4.14258,-1.415039 h -3.81445 z m 36.85547,-9.823242 q -2.58399,-0.881836 -4.90137,-0.881836 q -2.625,0 -4.28613,1.209961 q -1.64063,1.189453 -1.64063,3.404297 q 0,2.625 4.32715,4.614258 q 3.19922,1.476562 4.22461,2.050781 q 1.0459,0.574219 2.1123,1.579102 q 1.06641,1.004883 1.70215,2.378906 q 0.65625,1.353516 0.65625,3.055664 q 0,4.224609 -2.85058,6.5625 q -2.83008,2.317383 -6.68555,2.317383 q -3.73242,0 -6.54199,-1.476563 l 0.69726,-2.891601 q 3.30176,1.49707 5.7627,1.49707 q 2.87109,0 4.59375,-1.476562 q 1.74316,-1.497071 1.74316,-4.101563 q 0,-1.927734 -1.12793,-3.260742 q -1.12793,-1.353516 -4.16308,-2.748047 q -3.11719,-1.435547 -4.04004,-1.948242 q -0.90235,-0.533203 -1.80469,-1.456055 q -0.90234,-0.922851 -1.39453,-2.071289 q -0.49219,-1.148437 -0.49219,-2.501953 q 0,-3.588867 2.58399,-5.598633 q 2.58398,-2.009765 6.54199,-2.009765 q 2.8916,0 5.74219,0.881836 z M 799.33887,48.75 H 784.22461 V 19.813477 h 14.99121 v 2.932617 h -11.62793 v 8.961914 h 11.17676 v 2.932617 h -11.17676 v 11.176758 h 11.75098 z"
     id="text27"
     style="font-weight:700;font-size:42px;font-family:Recursive, monospace;letter-spacing:1.5;fill:#8b5cf6"
     aria-label="SYNAPSE" />
  <line
     x1="618.75"
     y1="64.75"
     x2="644.75"
     y2="64.75"
     stroke="#4c1d95"
     stroke-width="1"
     opacity="0.6"
     id="line27" />
  <path
     d="m 659.73828,61.728516 q 1.15723,0 1.7627,0.917968 q 0.61035,0.913086 0.61035,2.661133 q 0,1.738281 -0.60547,2.65625 q -0.60547,0.917969 -1.76758,0.917969 q -1.15234,0 -1.76269,-0.913086 q -0.60547,-0.917969 -0.60547,-2.661133 q 0,-1.743164 0.60547,-2.661133 q 0.60546,-0.917968 1.76269,-0.917968 z m 0,6.450195 q 1.52344,0 1.52344,-2.871094 q 0,-2.875976 -1.52344,-2.875976 q -0.74219,0 -1.13281,0.74707 q -0.38574,0.742187 -0.38574,2.128906 q 0,1.401367 0.38574,2.138672 q 0.38574,0.732422 1.13281,0.732422 z M 670.3291,68.75 h -0.88867 l -2.4707,-5.439453 V 68.75 h -0.80078 v -6.889648 h 0.89355 l 2.48047,5.390625 v -5.390625 h 0.78613 z m 7.82227,-2.37793 h -2.90039 v -0.742187 h 2.90039 z m 7.92968,-1.401367 q 0.68848,0.161133 1.07911,0.625 q 0.39062,0.463867 0.39062,1.103516 q 0,0.9375 -0.68359,1.49414 Q 686.18848,68.75 685.23145,68.75 h -1.95801 v -6.889648 h 1.90918 q 0.99609,0 1.55761,0.439453 q 0.56153,0.43457 0.56153,1.230468 q 0,0.488282 -0.32715,0.869141 q -0.32227,0.380859 -0.89356,0.551758 z m -2.00683,-0.371094 h 0.9375 q 1.46973,0 1.46973,-1.049804 q 0,-0.478516 -0.36133,-0.732422 q -0.36133,-0.258789 -1.05957,-0.258789 h -0.98633 z m 0,3.452149 h 0.9082 q 0.7959,0 1.25977,-0.361328 q 0.46875,-0.361328 0.46875,-0.991211 q 0,-0.668946 -0.45899,-1.035157 q -0.45898,-0.36621 -1.32812,-0.36621 h -0.84961 z m 9.66797,-6.323242 q 1.15722,0 1.76269,0.917968 q 0.61035,0.913086 0.61035,2.661133 q 0,1.738281 -0.60546,2.65625 q -0.60547,0.917969 -1.76758,0.917969 q -1.15235,0 -1.7627,-0.913086 q -0.60547,-0.917969 -0.60547,-2.661133 q 0,-1.743164 0.60547,-2.661133 q 0.60547,-0.917968 1.7627,-0.917968 z m 0,6.450195 q 1.52343,0 1.52343,-2.871094 q 0,-2.875976 -1.52343,-2.875976 q -0.74219,0 -1.13282,0.74707 q -0.38574,0.742187 -0.38574,2.128906 q 0,1.401367 0.38574,2.138672 q 0.38575,0.732422 1.13282,0.732422 z M 704.99707,68.75 h -0.83984 l -0.76172,-2.412109 h -2.26074 L 700.36328,68.75 h -0.83008 l 2.25098,-6.889648 h 0.96191 z m -1.83105,-3.110352 l -0.90332,-2.851562 l -0.89844,2.851562 z M 713.48828,68.75 h -1.00098 l -2.02148,-3.129883 h -0.88867 V 68.75 h -0.80078 v -6.889648 h 1.94824 q 0.98144,0 1.54785,0.478515 q 0.57129,0.473633 0.57129,1.323242 q 0,0.629883 -0.41504,1.123047 q -0.41504,0.488281 -1.14258,0.664063 z m -3.91113,-3.828125 h 1.01074 q 0.63477,0 1.03027,-0.341797 q 0.39551,-0.34668 0.39551,-0.869141 q 0,-1.152343 -1.40625,-1.152343 h -1.03027 z m 7.70019,-3.061523 h 1.35743 q 1.35253,0 2.16796,0.922851 q 0.81543,0.917969 0.81543,2.524414 q 0,1.640625 -0.83007,2.543945 Q 719.96289,68.75 718.66895,68.75 h -1.39161 z m 0.80078,6.191406 h 0.56641 q 0.98145,0 1.55274,-0.727539 q 0.57128,-0.727539 0.57128,-2.016602 q 0,-1.279297 -0.57617,-2.011719 q -0.57129,-0.737304 -1.54785,-0.737304 h -0.56641 z M 737.79004,68.75 h -3.12988 v -0.698242 h 1.18652 v -5.493164 h -1.18652 v -0.698242 h 3.12988 v 0.698242 h -1.14258 v 5.493164 h 1.14258 z m 9.04785,0 h -0.88867 l -2.4707,-5.439453 V 68.75 h -0.80079 v -6.889648 h 0.89356 l 2.48047,5.390625 v -5.390625 h 0.78613 z m 8.95508,-6.240234 h -2.12402 V 68.75 h -0.7959 v -6.240234 h -2.13379 v -0.649414 h 5.05371 z M 763.61035,68.75 h -3.59863 v -6.889648 h 3.56933 v 0.698242 h -2.76855 v 2.133789 h 2.66113 v 0.698242 h -2.66113 v 2.661133 h 2.79785 z m 8.65235,0 h -3.75 v -6.889648 h 0.80078 v 6.191406 h 2.94922 z m 8.50097,0 h -3.75 v -6.889648 h 0.80078 v 6.191406 h 2.94922 z m 8.03223,0 h -3.12988 v -0.698242 h 1.18652 v -5.493164 h -1.18652 v -0.698242 h 3.12988 v 0.698242 h -1.14258 v 5.493164 h 1.14258 z m 9.18945,-0.488281 q -0.84473,0.620117 -1.87012,0.620117 q -1.34277,0 -2.03613,-0.908203 q -0.69336,-0.913086 -0.69336,-2.666016 q 0,-1.694336 0.66895,-2.636719 q 0.67383,-0.942382 2.06054,-0.942382 q 0.49805,0 0.98633,0.126953 q 0.48828,0.126953 0.78614,0.336914 l -0.26368,0.629883 q -0.68847,-0.390625 -1.50879,-0.390625 q -0.94726,0 -1.41601,0.693359 q -0.46387,0.693359 -0.46387,2.182617 q 0,2.871094 1.87988,2.871094 q 0.70801,0 1.06934,-0.297852 v -1.699218 h -1.24023 v -0.69336 h 2.04101 z M 806.11523,68.75 h -3.59863 v -6.889648 h 3.56934 v 0.698242 h -2.76856 v 2.133789 h 2.66114 v 0.698242 h -2.66114 v 2.661133 h 2.79785 z m 8.73047,0 h -0.88867 l -2.4707,-5.439453 V 68.75 h -0.80078 v -6.889648 h 0.89355 l 2.48047,5.390625 v -5.390625 h 0.78613 z m 8.65235,-0.429688 q -0.81055,0.561524 -1.87989,0.561524 q -1.33789,0 -2.03613,-0.917969 q -0.69336,-0.917969 -0.69336,-2.65625 q 0,-1.679687 0.67383,-2.626953 q 0.67383,-0.952148 2.05566,-0.952148 q 0.49805,0 0.98633,0.126953 q 0.48828,0.126953 0.78613,0.336914 l -0.26367,0.629883 q -0.68847,-0.390625 -1.50879,-0.390625 q -0.95214,0 -1.41601,0.693359 q -0.46387,0.688477 -0.46387,2.182617 q 0,2.871094 1.87988,2.871094 q 0.7959,0 1.63086,-0.488281 z M 831.61816,68.75 h -3.59863 v -6.889648 h 3.56934 v 0.698242 h -2.76856 v 2.133789 h 2.66114 v 0.698242 h -2.66114 v 2.661133 h 2.79785 z"
     id="text28"
     style="font-weight:500;font-size:10px;font-family:Recursive, monospace;letter-spacing:2.5;fill:#5a6f8a"
     aria-label="ON-BOARD INTELLIGENCE" />
</svg>
