<?xml version="1.0" encoding="UTF-8" standalone="no"?>
<svg
   width="520"
   height="110"
   viewBox="0 0 520 110"
   version="1.1"
   id="svg10"
   xmlns="http://www.w3.org/2000/svg"
   xmlns:svg="http://www.w3.org/2000/svg">
  <defs
     id="defs1">
    <style
       id="style1">@import url('https://fonts.googleapis.com/css2?family=Recursive:slnt,wght,CASL,CRSV,MONO@-15..0,300..900,0..1,0..1,0..1&amp;display=swap');</style>
  </defs>
  <!-- Icon -->
  <g
     id="g9">
    <line
       x1="18"
       y1="50"
       x2="92"
       y2="50"
       stroke="#1e90ff"
       stroke-width="1.5"
       stroke-linecap="square"
       opacity="0.25"
       id="line1" />
    <path
       d="m 20,50 a 35,32 0 0 1 70,0"
       fill="none"
       stroke="#f97316"
       stroke-width="5"
       stroke-linecap="square"
       id="path1" />
    <path
       d="m 34,50 a 21,19 0 0 1 42,0"
       fill="none"
       stroke="#f97316"
       stroke-width="2.5"
       stroke-linecap="square"
       opacity="0.45"
       id="path2" />
    <circle
       cx="55"
       cy="50"
       r="4.5"
       fill="#f97316"
       id="circle2" />
    <line
       x1="55"
       y1="55"
       x2="26"
       y2="94"
       stroke="#1e90ff"
       stroke-width="3.5"
       stroke-linecap="square"
       id="line2" />
    <line
       x1="55"
       y1="55"
       x2="84"
       y2="94"
       stroke="#1e90ff"
       stroke-width="3.5"
       stroke-linecap="square"
       id="line3" />
    <line
       x1="55"
       y1="55"
       x2="18"
       y2="82"
       stroke="#f97316"
       stroke-width="2"
       stroke-linecap="square"
       opacity="0.45"
       id="line4" />
    <line
       x1="55"
       y1="55"
       x2="92"
       y2="82"
       stroke="#f97316"
       stroke-width="2"
       stroke-linecap="square"
       opacity="0.45"
       id="line5" />
    <g
       stroke="#5a6f8a"
       stroke-width="1.5"
       fill="none"
       opacity="0.3"
       id="g8">
      <polyline
         points="8,20 8,8 20,8"
         id="polyline5" />
      <polyline
         points="90,8 102,8 102,20"
         id="polyline6" />
      <polyline
         points="102,90 102,102 90,102"
         id="polyline7" />
      <polyline
         points="20,102 8,102 8,90"
         id="polyline8" />
    </g>
  </g>
  <!-- Wordmark -->
  <path
     d="m 146.91797,56 h -3.36328 V 41.644531 h -9.90528 V 56 h -3.36328 V 27.063477 h 3.36328 v 11.627929 h 9.90528 V 27.063477 h 3.36328 z m 18.33691,-29.490234 q 4.86035,0 7.40332,3.855468 q 2.56348,3.834961 2.56348,11.176758 q 0,7.300781 -2.54297,11.15625 q -2.54297,3.855469 -7.42383,3.855469 q -4.83984,0 -7.40332,-3.834961 q -2.54297,-3.855469 -2.54297,-11.176758 q 0,-7.321289 2.54297,-11.176758 q 2.54297,-3.855468 7.40332,-3.855468 z m 0,27.09082 q 6.39844,0 6.39844,-12.058594 q 0,-12.079101 -6.39844,-12.079101 q -3.11718,0 -4.75781,3.137695 q -1.62012,3.117187 -1.62012,8.941406 q 0,5.885742 1.62012,8.982422 q 1.62012,3.076172 4.75781,3.076172 z M 203.48437,56 h -4.2041 l -8.49023,-13.145508 h -3.73242 V 56 h -3.36328 V 27.063477 h 8.18261 q 4.12207,0 6.50098,2.009765 q 2.39941,1.989258 2.39941,5.557617 q 0,2.645508 -1.74316,4.716797 q -1.74316,2.050781 -4.79883,2.789063 z M 187.05762,39.921875 h 4.24511 q 2.66602,0 4.32715,-1.435547 q 1.66114,-1.456055 1.66114,-3.650391 q 0,-4.839843 -5.90625,-4.839843 h -4.32715 z M 225.14355,56 h -13.1455 v -2.932617 h 4.9834 V 29.996094 h -4.9834 v -2.932617 h 13.1455 v 2.932617 h -4.79882 v 23.071289 h 4.79882 z m 29.00098,-26.537109 l -13.76074,23.604492 h 13.51465 V 56 h -17.34961 v -2.358398 l 13.69922,-23.645508 h -13.1045 v -2.932617 h 17.00098 z m 17.92676,-2.953125 q 4.86035,0 7.40332,3.855468 q 2.56348,3.834961 2.56348,11.176758 q 0,7.300781 -2.54297,11.15625 q -2.54297,3.855469 -7.42383,3.855469 q -4.83984,0 -7.40332,-3.834961 Q 262.125,48.863281 262.125,41.541992 q 0,-7.321289 2.54297,-11.176758 q 2.54297,-3.855468 7.40332,-3.855468 z m 0,27.09082 q 6.39844,0 6.39844,-12.058594 q 0,-12.079101 -6.39844,-12.079101 q -3.11719,0 -4.75781,3.137695 q -1.62012,3.117187 -1.62012,8.941406 q 0,5.885742 1.62012,8.982422 q 1.62011,3.076172 4.75781,3.076172 z M 307.55273,56 h -3.73242 L 293.44336,33.154297 V 56 h -3.36328 V 27.063477 h 3.75293 l 10.41797,22.640625 V 27.063477 h 3.30175 z"
     id="text9"
     style="font-weight:700;font-size:42px;font-family:Recursive, monospace;letter-spacing:1.5;fill:#f97316"
     aria-label="HORIZON" />
  <!-- Rule + tagline -->
  <line
     x1="126"
     y1="72"
     x2="152"
     y2="72"
     stroke="#2a3f5c"
     stroke-width="1"
     id="line9" />
  <path
     d="m 168.46777,69.87207 q -0.61523,-0.209961 -1.16699,-0.209961 q -0.625,0 -1.02051,0.288086 q -0.39062,0.283203 -0.39062,0.810547 q 0,0.625 1.03027,1.098633 q 0.76172,0.351562 1.00586,0.488281 q 0.24902,0.136719 0.50293,0.375977 q 0.25391,0.239258 0.40527,0.566406 q 0.15625,0.322266 0.15625,0.727539 q 0,1.005859 -0.67871,1.5625 q -0.67382,0.551758 -1.59179,0.551758 q -0.88868,0 -1.55762,-0.351563 l 0.16601,-0.688476 q 0.78614,0.356445 1.37208,0.356445 q 0.68359,0 1.09375,-0.351562 q 0.41503,-0.356446 0.41503,-0.976563 q 0,-0.458984 -0.26855,-0.776367 q -0.26856,-0.322266 -0.99121,-0.654297 q -0.74219,-0.341797 -0.96192,-0.463867 q -0.21484,-0.126953 -0.42968,-0.34668 q -0.21485,-0.219726 -0.33203,-0.493164 q -0.11719,-0.273437 -0.11719,-0.595703 q 0,-0.854492 0.61523,-1.333008 q 0.61524,-0.478515 1.55762,-0.478515 q 0.68848,0 1.36719,0.209961 z M 177.34961,76 h -3.59863 v -6.889648 h 3.56933 v 0.698242 h -2.76855 v 2.133789 h 2.66113 v 0.698242 h -2.66113 v 2.661133 h 2.79785 z m 8.50098,0 h -3.59864 v -6.889648 h 3.56934 v 0.698242 h -2.76856 v 2.133789 h 2.66114 v 0.698242 h -2.66114 v 2.661133 h 2.79786 z m 17.05566,-6.191406 h -2.85156 v 2.250976 h 2.59765 v 0.698242 h -2.59765 V 76 h -0.80078 v -6.889648 h 3.65234 z m 8.5791,4.023437 q 0,1.196289 -0.48828,1.748047 q -0.4834,0.551758 -1.47461,0.551758 q -1.99707,0 -1.99707,-2.280274 v -4.74121 h 0.80078 v 4.667968 q 0,1.650391 1.19629,1.650391 q 0.60059,0 0.87891,-0.390625 q 0.2832,-0.390625 0.2832,-1.269531 v -4.658203 h 0.80078 z M 220.73828,76 h -1.00098 l -2.02148,-3.129883 h -0.88867 V 76 h -0.80078 v -6.889648 h 1.94824 q 0.98144,0 1.54785,0.478515 q 0.57129,0.473633 0.57129,1.323242 q 0,0.629883 -0.41504,1.123047 q -0.41504,0.488281 -1.14258,0.664063 z m -3.91113,-3.828125 h 1.01074 q 0.63477,0 1.03027,-0.341797 q 0.39551,-0.34668 0.39551,-0.869141 q 0,-1.152343 -1.40625,-1.152343 h -1.03027 z m 12.21191,-2.412109 h -2.12402 V 76 h -0.7959 v -6.240234 h -2.13379 v -0.649414 h 5.05371 z M 236.98828,76 h -0.80078 v -3.417969 h -2.3584 V 76 h -0.80078 v -6.889648 h 0.80078 v 2.768554 h 2.3584 v -2.768554 h 0.80078 z m 8.36914,0 h -3.59863 v -6.889648 h 3.56933 v 0.698242 h -2.76855 v 2.133789 h 2.66113 v 0.698242 h -2.66113 v 2.661133 h 2.79785 z m 9.38477,0 h -1.00098 l -2.02148,-3.129883 h -0.88868 V 76 h -0.80078 v -6.889648 h 1.94825 q 0.98144,0 1.54785,0.478515 q 0.57129,0.473633 0.57129,1.323242 q 0,0.629883 -0.41504,1.123047 q -0.41504,0.488281 -1.14258,0.664063 z m -3.91114,-3.828125 h 1.01075 q 0.63476,0 1.03027,-0.341797 q 0.39551,-0.34668 0.39551,-0.869141 q 0,-1.152343 -1.40625,-1.152343 h -1.03028 z m 9.64844,2.709961 q 0.25879,0 0.43457,0.175781 q 0.17578,0.175781 0.17578,0.43457 q 0,0.263672 -0.18066,0.454102 q -0.17578,0.185547 -0.42969,0.185547 q -0.24902,0 -0.4248,-0.185547 q -0.17578,-0.19043 -0.17578,-0.454102 q 0,-0.263671 0.17089,-0.43457 q 0.17579,-0.175781 0.42969,-0.175781 z M 280.25488,76 h -0.83984 l -0.76172,-2.412109 h -2.26074 L 275.62109,76 h -0.83007 l 2.25097,-6.889648 h 0.96192 z m -1.83105,-3.110352 l -0.90332,-2.851562 l -0.89844,2.851562 z m 9.81933,2.680664 q -0.81054,0.561524 -1.87988,0.561524 q -1.33789,0 -2.03613,-0.917969 q -0.69336,-0.917969 -0.69336,-2.65625 q 0,-1.679687 0.67383,-2.626953 q 0.67383,-0.952148 2.05566,-0.952148 q 0.49805,0 0.98633,0.126953 q 0.48828,0.126953 0.78613,0.336914 l -0.26367,0.629883 q -0.68848,-0.390625 -1.50879,-0.390625 q -0.95215,0 -1.41601,0.693359 q -0.46387,0.688477 -0.46387,2.182617 q 0,2.871094 1.87988,2.871094 q 0.7959,0 1.63086,-0.488281 z m 8.80371,-5.810546 h -2.12402 V 76 h -0.7959 v -6.240234 h -2.13379 v -0.649414 h 5.05371 z m 16.37208,0.04883 h -2.85157 v 2.250976 h 2.59766 v 0.698242 h -2.59766 V 76 h -0.80078 v -6.889648 h 3.65235 z M 322.75977,76 h -0.83985 l -0.76172,-2.412109 h -2.26074 L 318.12598,76 h -0.83008 l 2.25097,-6.889648 h 0.96192 z m -1.83106,-3.110352 l -0.90332,-2.851562 l -0.89844,2.851562 z m 9.05762,-3.017578 q -0.61524,-0.209961 -1.16699,-0.209961 q -0.625,0 -1.02051,0.288086 q -0.39063,0.283203 -0.39063,0.810547 q 0,0.625 1.03028,1.098633 q 0.76172,0.351562 1.00586,0.488281 q 0.24902,0.136719 0.50293,0.375977 q 0.2539,0.239258 0.40527,0.566406 q 0.15625,0.322266 0.15625,0.727539 q 0,1.005859 -0.67871,1.5625 q -0.67383,0.551758 -1.5918,0.551758 q -0.88867,0 -1.55762,-0.351563 l 0.16602,-0.688476 q 0.78613,0.356445 1.37207,0.356445 q 0.68359,0 1.09375,-0.351562 q 0.41504,-0.356446 0.41504,-0.976563 q 0,-0.458984 -0.26856,-0.776367 q -0.26855,-0.322266 -0.99121,-0.654297 q -0.74218,-0.341797 -0.96191,-0.463867 q -0.21484,-0.126953 -0.42969,-0.34668 q -0.21484,-0.219726 -0.33203,-0.493164 q -0.11719,-0.273437 -0.11719,-0.595703 q 0,-0.854492 0.61524,-1.333008 q 0.61523,-0.478515 1.55761,-0.478515 q 0.68848,0 1.36719,0.209961 z m 9.56543,-0.112304 h -2.12403 V 76 h -0.79589 v -6.240234 h -2.13379 v -0.649414 h 5.05371 z M 347.36914,76 h -3.59863 v -6.889648 h 3.56933 v 0.698242 h -2.76855 v 2.133789 h 2.66113 v 0.698242 h -2.66113 v 2.661133 h 2.79785 z m 9.38477,0 h -1.00098 l -2.02148,-3.129883 h -0.88868 V 76 h -0.80078 v -6.889648 h 1.94824 q 0.98145,0 1.54786,0.478515 q 0.57128,0.473633 0.57128,1.323242 q 0,0.629883 -0.41503,1.123047 q -0.41504,0.488281 -1.14258,0.664063 z m -3.91114,-3.828125 h 1.01075 q 0.63476,0 1.03027,-0.341797 q 0.39551,-0.34668 0.39551,-0.869141 q 0,-1.152343 -1.40625,-1.152343 h -1.03028 z m 9.64844,2.709961 q 0.25879,0 0.43457,0.175781 q 0.17578,0.175781 0.17578,0.43457 q 0,0.263672 -0.18066,0.454102 q -0.17578,0.185547 -0.42969,0.185547 q -0.24902,0 -0.4248,-0.185547 q -0.17579,-0.19043 -0.17579,-0.454102 q 0,-0.263671 0.1709,-0.43457 q 0.17578,-0.175781 0.42969,-0.175781 z"
     id="text10"
     style="font-weight:500;font-size:10px;font-family:Recursive, monospace;letter-spacing:2.5;fill:#5a6f8a"
     aria-label="SEE FURTHER. ACT FASTER." />
</svg>
