<?xml version="1.0" encoding="UTF-8" standalone="no"?>
<svg
   width="520"
   height="160"
   viewBox="0 0 520 160"
   version="1.1"
   id="svg16"
   xmlns="http://www.w3.org/2000/svg"
   xmlns:svg="http://www.w3.org/2000/svg">
  <defs
     id="defs1">
    <style
       id="style1">@import url('https://fonts.googleapis.com/css2?family=Recursive:slnt,wght,CASL,CRSV,MONO@-15..0,300..900,0..1,0..1,0..1&amp;display=swap');</style>
  </defs>
  <!-- Icon -->
  <g
     id="g9">
    <line
       x1="18"
       y1="50"
       x2="92"
       y2="50"
       stroke="#1e90ff"
       stroke-width="1.5"
       stroke-linecap="square"
       opacity="0.25"
       id="line1" />
    <path
       d="m 20,50 a 35,32 0 0 1 70,0"
       fill="none"
       stroke="#f97316"
       stroke-width="5"
       stroke-linecap="square"
       id="path1" />
    <path
       d="m 34,50 a 21,19 0 0 1 42,0"
       fill="none"
       stroke="#f97316"
       stroke-width="2.5"
       stroke-linecap="square"
       opacity="0.45"
       id="path2" />
    <circle
       cx="55"
       cy="50"
       r="4.5"
       fill="#f97316"
       id="circle2" />
    <line
       x1="55"
       y1="55"
       x2="26"
       y2="94"
       stroke="#1e90ff"
       stroke-width="3.5"
       stroke-linecap="square"
       id="line2" />
    <line
       x1="55"
       y1="55"
       x2="84"
       y2="94"
       stroke="#1e90ff"
       stroke-width="3.5"
       stroke-linecap="square"
       id="line3" />
    <line
       x1="55"
       y1="55"
       x2="18"
       y2="82"
       stroke="#f97316"
       stroke-width="2"
       stroke-linecap="square"
       opacity="0.45"
       id="line4" />
    <line
       x1="55"
       y1="55"
       x2="92"
       y2="82"
       stroke="#f97316"
       stroke-width="2"
       stroke-linecap="square"
       opacity="0.45"
       id="line5" />
    <g
       stroke="#5a6f8a"
       stroke-width="1.5"
       fill="none"
       opacity="0.3"
       id="g8">
      <polyline
         points="8,20 8,8 20,8"
         id="polyline5" />
      <polyline
         points="90,8 102,8 102,20"
         id="polyline6" />
      <polyline
         points="102,90 102,102 90,102"
         id="polyline7" />
      <polyline
         points="20,102 8,102 8,90"
         id="polyline8" />
    </g>
  </g>
  <!-- Wordmark -->
  <path
     d="m 146.91797,56 h -3.36328 V 41.644531 h -9.90528 V 56 h -3.36328 V 27.063477 h 3.36328 v 11.627929 h 9.90528 V 27.063477 h 3.36328 z m 18.33691,-29.490234 q 4.86035,0 7.40332,3.855468 q 2.56348,3.834961 2.56348,11.176758 q 0,7.300781 -2.54297,11.15625 q -2.54297,3.855469 -7.42383,3.855469 q -4.83984,0 -7.40332,-3.834961 q -2.54297,-3.855469 -2.54297,-11.176758 q 0,-7.321289 2.54297,-11.176758 q 2.54297,-3.855468 7.40332,-3.855468 z m 0,27.09082 q 6.39844,0 6.39844,-12.058594 q 0,-12.079101 -6.39844,-12.079101 q -3.11718,0 -4.75781,3.137695 q -1.62012,3.117187 -1.62012,8.941406 q 0,5.885742 1.62012,8.982422 q 1.62012,3.076172 4.75781,3.076172 z M 203.48437,56 h -4.2041 l -8.49023,-13.145508 h -3.73242 V 56 h -3.36328 V 27.063477 h 8.18261 q 4.12207,0 6.50098,2.009765 q 2.39941,1.989258 2.39941,5.557617 q 0,2.645508 -1.74316,4.716797 q -1.74316,2.050781 -4.79883,2.789063 z M 187.05762,39.921875 h 4.24511 q 2.66602,0 4.32715,-1.435547 q 1.66114,-1.456055 1.66114,-3.650391 q 0,-4.839843 -5.90625,-4.839843 h -4.32715 z M 225.14355,56 h -13.1455 v -2.932617 h 4.9834 V 29.996094 h -4.9834 v -2.932617 h 13.1455 v 2.932617 h -4.79882 v 23.071289 h 4.79882 z m 29.00098,-26.537109 l -13.76074,23.604492 h 13.51465 V 56 h -17.34961 v -2.358398 l 13.69922,-23.645508 h -13.1045 v -2.932617 h 17.00098 z m 17.92676,-2.953125 q 4.86035,0 7.40332,3.855468 q 2.56348,3.834961 2.56348,11.176758 q 0,7.300781 -2.54297,11.15625 q -2.54297,3.855469 -7.42383,3.855469 q -4.83984,0 -7.40332,-3.834961 Q 262.125,48.863281 262.125,41.541992 q 0,-7.321289 2.54297,-11.176758 q 2.54297,-3.855468 7.40332,-3.855468 z m 0,27.09082 q 6.39844,0 6.39844,-12.058594 q 0,-12.079101 -6.39844,-12.079101 q -3.11719,0 -4.75781,3.137695 q -1.62012,3.117187 -1.62012,8.941406 q 0,5.885742 1.62012,8.982422 q 1.62011,3.076172 4.75781,3.076172 z M 307.55273,56 h -3.73242 L 293.44336,33.154297 V 56 h -3.36328 V 27.063477 h 3.75293 l 10.41797,22.640625 V 27.063477 h 3.30175 z"
     id="text9"
     style="font-weight:700;font-size:42px;font-family:Recursive, monospace;letter-spacing:1.5;fill:#f97316"
     aria-label="HORIZON" />
  <!-- Rule + tagline -->
  <line
     x1="126"
     y1="72"
     x2="152"
     y2="72"
     stroke="#2a3f5c"
     stroke-width="1"
     id="line9" />
  <path
     d="m 168.46777,69.87207 q -0.61523,-0.209961 -1.16699,-0.209961 q -0.625,0 -1.02051,0.288086 q -0.39062,0.283203 -0.39062,0.810547 q 0,0.625 1.03027,1.098633 q 0.76172,0.351562 1.00586,0.488281 q 0.24902,0.136719 0.50293,0.375977 q 0.25391,0.239258 0.40527,0.566406 q 0.15625,0.322266 0.15625,0.727539 q 0,1.005859 -0.67871,1.5625 q -0.67382,0.551758 -1.59179,0.551758 q -0.88868,0 -1.55762,-0.351563 l 0.16601,-0.688476 q 0.78614,0.356445 1.37208,0.356445 q 0.68359,0 1.09375,-0.351562 q 0.41503,-0.356446 0.41503,-0.976563 q 0,-0.458984 -0.26855,-0.776367 q -0.26856,-0.322266 -0.99121,-0.654297 q -0.74219,-0.341797 -0.96192,-0.463867 q -0.21484,-0.126953 -0.42968,-0.34668 q -0.21485,-0.219726 -0.33203,-0.493164 q -0.11719,-0.273437 -0.11719,-0.595703 q 0,-0.854492 0.61523,-1.333008 q 0.61524,-0.478515 1.55762,-0.478515 q 0.68848,0 1.36719,0.209961 z M 177.34961,76 h -3.59863 v -6.889648 h 3.56933 v 0.698242 h -2.76855 v 2.133789 h 2.66113 v 0.698242 h -2.66113 v 2.661133 h 2.79785 z m 8.50098,0 h -3.59864 v -6.889648 h 3.56934 v 0.698242 h -2.76856 v 2.133789 h 2.66114 v 0.698242 h -2.66114 v 2.661133 h 2.79786 z m 17.05566,-6.191406 h -2.85156 v 2.250976 h 2.59765 v 0.698242 h -2.59765 V 76 h -0.80078 v -6.889648 h 3.65234 z m 8.5791,4.023437 q 0,1.196289 -0.48828,1.748047 q -0.4834,0.551758 -1.47461,0.551758 q -1.99707,0 -1.99707,-2.280274 v -4.74121 h 0.80078 v 4.667968 q 0,1.650391 1.19629,1.650391 q 0.60059,0 0.87891,-0.390625 q 0.2832,-0.390625 0.2832,-1.269531 v -4.658203 h 0.80078 z M 220.73828,76 h -1.00098 l -2.02148,-3.129883 h -0.88867 V 76 h -0.80078 v -6.889648 h 1.94824 q 0.98144,0 1.54785,0.478515 q 0.57129,0.473633 0.57129,1.323242 q 0,0.629883 -0.41504,1.123047 q -0.41504,0.488281 -1.14258,0.664063 z m -3.91113,-3.828125 h 1.01074 q 0.63477,0 1.03027,-0.341797 q 0.39551,-0.34668 0.39551,-0.869141 q 0,-1.152343 -1.40625,-1.152343 h -1.03027 z m 12.21191,-2.412109 h -2.12402 V 76 h -0.7959 v -6.240234 h -2.13379 v -0.649414 h 5.05371 z M 236.98828,76 h -0.80078 v -3.417969 h -2.3584 V 76 h -0.80078 v -6.889648 h 0.80078 v 2.768554 h 2.3584 v -2.768554 h 0.80078 z m 8.36914,0 h -3.59863 v -6.889648 h 3.56933 v 0.698242 h -2.76855 v 2.133789 h 2.66113 v 0.698242 h -2.66113 v 2.661133 h 2.79785 z m 9.38477,0 h -1.00098 l -2.02148,-3.129883 h -0.88868 V 76 h -0.80078 v -6.889648 h 1.94825 q 0.98144,0 1.54785,0.478515 q 0.57129,0.473633 0.57129,1.323242 q 0,0.629883 -0.41504,1.123047 q -0.41504,0.488281 -1.14258,0.664063 z m -3.91114,-3.828125 h 1.01075 q 0.63476,0 1.03027,-0.341797 q 0.39551,-0.34668 0.39551,-0.869141 q 0,-1.152343 -1.40625,-1.152343 h -1.03028 z m 9.64844,2.709961 q 0.25879,0 0.43457,0.175781 q 0.17578,0.175781 0.17578,0.43457 q 0,0.263672 -0.18066,0.454102 q -0.17578,0.185547 -0.42969,0.185547 q -0.24902,0 -0.4248,-0.185547 q -0.17578,-0.19043 -0.17578,-0.454102 q 0,-0.263671 0.17089,-0.43457 q 0.17579,-0.175781 0.42969,-0.175781 z M 280.25488,76 h -0.83984 l -0.76172,-2.412109 h -2.26074 L 275.62109,76 h -0.83007 l 2.25097,-6.889648 h 0.96192 z m -1.83105,-3.110352 l -0.90332,-2.851562 l -0.89844,2.851562 z m 9.81933,2.680664 q -0.81054,0.561524 -1.87988,0.561524 q -1.33789,0 -2.03613,-0.917969 q -0.69336,-0.917969 -0.69336,-2.65625 q 0,-1.679687 0.67383,-2.626953 q 0.67383,-0.952148 2.05566,-0.952148 q 0.49805,0 0.98633,0.126953 q 0.48828,0.126953 0.78613,0.336914 l -0.26367,0.629883 q -0.68848,-0.390625 -1.50879,-0.390625 q -0.95215,0 -1.41601,0.693359 q -0.46387,0.688477 -0.46387,2.182617 q 0,2.871094 1.87988,2.871094 q 0.7959,0 1.63086,-0.488281 z m 8.80371,-5.810546 h -2.12402 V 76 h -0.7959 v -6.240234 h -2.13379 v -0.649414 h 5.05371 z m 16.37208,0.04883 h -2.85157 v 2.250976 h 2.59766 v 0.698242 h -2.59766 V 76 h -0.80078 v -6.889648 h 3.65235 z M 322.75977,76 h -0.83985 l -0.76172,-2.412109 h -2.26074 L 318.12598,76 h -0.83008 l 2.25097,-6.889648 h 0.96192 z m -1.83106,-3.110352 l -0.90332,-2.851562 l -0.89844,2.851562 z m 9.05762,-3.017578 q -0.61524,-0.209961 -1.16699,-0.209961 q -0.625,0 -1.02051,0.288086 q -0.39063,0.283203 -0.39063,0.810547 q 0,0.625 1.03028,1.098633 q 0.76172,0.351562 1.00586,0.488281 q 0.24902,0.136719 0.50293,0.375977 q 0.2539,0.239258 0.40527,0.566406 q 0.15625,0.322266 0.15625,0.727539 q 0,1.005859 -0.67871,1.5625 q -0.67383,0.551758 -1.5918,0.551758 q -0.88867,0 -1.55762,-0.351563 l 0.16602,-0.688476 q 0.78613,0.356445 1.37207,0.356445 q 0.68359,0 1.09375,-0.351562 q 0.41504,-0.356446 0.41504,-0.976563 q 0,-0.458984 -0.26856,-0.776367 q -0.26855,-0.322266 -0.99121,-0.654297 q -0.74218,-0.341797 -0.96191,-0.463867 q -0.21484,-0.126953 -0.42969,-0.34668 q -0.21484,-0.219726 -0.33203,-0.493164 q -0.11719,-0.273437 -0.11719,-0.595703 q 0,-0.854492 0.61524,-1.333008 q 0.61523,-0.478515 1.55761,-0.478515 q 0.68848,0 1.36719,0.209961 z m 9.56543,-0.112304 h -2.12403 V 76 h -0.79589 v -6.240234 h -2.13379 v -0.649414 h 5.05371 z M 347.36914,76 h -3.59863 v -6.889648 h 3.56933 v 0.698242 h -2.76855 v 2.133789 h 2.66113 v 0.698242 h -2.66113 v 2.661133 h 2.79785 z m 9.38477,0 h -1.00098 l -2.02148,-3.129883 h -0.88868 V 76 h -0.80078 v -6.889648 h 1.94824 q 0.98145,0 1.54786,0.478515 q 0.57128,0.473633 0.57128,1.323242 q 0,0.629883 -0.41503,1.123047 q -0.41504,0.488281 -1.14258,0.664063 z m -3.91114,-3.828125 h 1.01075 q 0.63476,0 1.03027,-0.341797 q 0.39551,-0.34668 0.39551,-0.869141 q 0,-1.152343 -1.40625,-1.152343 h -1.03028 z m 9.64844,2.709961 q 0.25879,0 0.43457,0.175781 q 0.17578,0.175781 0.17578,0.43457 q 0,0.263672 -0.18066,0.454102 q -0.17578,0.185547 -0.42969,0.185547 q -0.24902,0 -0.4248,-0.185547 q -0.17579,-0.19043 -0.17579,-0.454102 q 0,-0.263671 0.1709,-0.43457 q 0.17578,-0.175781 0.42969,-0.175781 z"
     id="text10"
     style="font-weight:500;font-size:10px;font-family:Recursive, monospace;letter-spacing:2.5;fill:#5a6f8a"
     aria-label="SEE FURTHER. ACT FASTER." />
  <!-- Module divider -->
  <line
     x1="126"
     y1="104"
     x2="480"
     y2="104"
     stroke="#1e2d44"
     stroke-width="1"
     id="line10" />
  <!-- Module labels -->
  <path
     d="m 130.91455,121.25928 q -0.67676,-0.23096 -1.28369,-0.23096 q -0.6875,0 -1.12256,0.31689 q -0.42969,0.31153 -0.42969,0.89161 q 0,0.6875 1.1333,1.20849 q 0.83789,0.38672 1.10645,0.53711 q 0.27393,0.15039 0.55322,0.41358 q 0.2793,0.26318 0.4458,0.62304 q 0.17188,0.3545 0.17188,0.8003 q 0,1.10644 -0.74658,1.71875 q -0.74122,0.60693 -1.75098,0.60693 q -0.97754,0 -1.71338,-0.38672 l 0.18262,-0.75732 q 0.86474,0.39209 1.50927,0.39209 q 0.75196,0 1.20313,-0.38672 q 0.45654,-0.39209 0.45654,-1.07422 q 0,-0.50488 -0.29541,-0.854 q -0.29541,-0.3545 -1.09033,-0.71973 q -0.81641,-0.37598 -1.0581,-0.51026 q -0.23633,-0.13964 -0.47266,-0.38134 q -0.23633,-0.2417 -0.36524,-0.54248 q -0.1289,-0.30078 -0.1289,-0.65528 q 0,-0.93994 0.67676,-1.46631 q 0.67675,-0.52636 1.71337,-0.52636 q 0.75733,0 1.50391,0.23095 z m 9.8042,-0.83789 l -2.36865,4.33447 V 128 h -0.87549 v -3.24414 l -2.36865,-4.33447 h 0.99365 l 1.81006,3.41064 l 1.81543,-3.41064 z M 148.78809,128 h -0.97754 l -2.71778,-5.9834 V 128 h -0.88086 v -7.57861 h 0.98291 l 2.72852,5.92968 v -5.92968 h 0.86475 z m 9.33154,0 h -0.92383 l -0.83789,-2.65332 h -2.48682 L 153.02246,128 h -0.91309 l 2.47608,-7.57861 h 1.0581 z m -2.01416,-3.42139 l -0.99365,-3.13672 l -0.98828,3.13672 z m 5.67383,-4.15722 h 1.92285 q 1.09033,0 1.7456,0.54785 q 0.65528,0.54785 0.65528,1.50928 q 0,0.96679 -0.65528,1.54687 q -0.6499,0.57471 -1.708,0.57471 h -1.07959 V 128 h -0.88086 z m 0.88086,3.41064 h 0.95605 q 1.55225,0 1.55225,-1.2998 q 0,-0.60157 -0.42432,-0.97217 q -0.41894,-0.37061 -1.08496,-0.37061 h -0.99902 z m 11.25976,-2.57275 q -0.67676,-0.23096 -1.28369,-0.23096 q -0.6875,0 -1.12256,0.31689 q -0.42969,0.31153 -0.42969,0.89161 q 0,0.6875 1.13331,1.20849 q 0.83789,0.38672 1.10644,0.53711 q 0.27393,0.15039 0.55322,0.41358 q 0.2793,0.26318 0.4458,0.62304 q 0.17188,0.3545 0.17188,0.8003 q 0,1.10644 -0.74658,1.71875 q -0.74121,0.60693 -1.75098,0.60693 q -0.97754,0 -1.71338,-0.38672 l 0.18262,-0.75732 q 0.86474,0.39209 1.50928,0.39209 q 0.75195,0 1.20312,-0.38672 q 0.45654,-0.39209 0.45654,-1.07422 q 0,-0.50488 -0.29541,-0.854 q -0.29541,-0.3545 -1.09033,-0.71973 q -0.8164,-0.37598 -1.0581,-0.51026 q -0.23633,-0.13964 -0.47266,-0.38134 q -0.23633,-0.2417 -0.36523,-0.54248 q -0.12891,-0.30078 -0.12891,-0.65528 q 0,-0.93994 0.67676,-1.46631 q 0.67675,-0.52636 1.71338,-0.52636 q 0.75732,0 1.5039,0.23095 z M 182.93994,128 h -3.95849 v -7.57861 h 3.92626 v 0.76806 h -3.04541 v 2.34717 h 2.92725 v 0.76807 h -2.92725 v 2.92724 h 3.07764 z"
     id="text11"
     style="font-weight:600;font-size:11px;font-family:Recursive, monospace;letter-spacing:2;fill:#8b5cf6"
     aria-label="SYNAPSE" />
  <path
     d="m 126.91846,135.79932 h 1.22168 q 1.21728,0 1.95117,0.83056 q 0.73389,0.82617 0.73389,2.27198 q 0,1.47656 -0.74708,2.28955 Q 129.33545,142 128.1709,142 h -1.25244 z m 0.7207,5.57226 h 0.50977 q 0.8833,0 1.39746,-0.65478 q 0.51416,-0.65479 0.51416,-1.81494 q 0,-1.15137 -0.51856,-1.81055 q -0.51416,-0.66358 -1.39306,-0.66358 h -0.50977 z M 136.76465,142 h -3.23877 v -6.20068 h 3.2124 v 0.62841 h -2.4917 v 1.92041 h 2.39502 v 0.62842 h -2.39502 v 2.39502 h 2.51807 z m 6.44922,-5.57227 h -2.56641 v 2.02588 h 2.33789 v 0.62842 h -2.33789 V 142 h -0.7207 v -6.20068 h 3.28711 z M 149.56641,142 h -3.23877 v -6.20068 h 3.2124 v 0.62841 h -2.4917 v 1.92041 h 2.39502 v 0.62842 h -2.39502 v 2.39502 h 2.51807 z m 6.60742,0 h -0.79981 l -2.22363,-4.89551 V 142 h -0.7207 v -6.20068 h 0.8042 l 2.23242,4.85156 v -4.85156 h 0.70752 z m 5.85156,-5.51514 q -0.55371,-0.18896 -1.05029,-0.18896 q -0.5625,0 -0.91846,0.25928 q -0.35156,0.25488 -0.35156,0.72949 q 0,0.5625 0.92724,0.98877 q 0.68555,0.3164 0.90528,0.43945 q 0.22412,0.12305 0.45263,0.33838 q 0.22852,0.21533 0.36475,0.50977 q 0.14063,0.29003 0.14063,0.65478 q 0,0.90527 -0.61084,1.40625 q -0.60645,0.49658 -1.43262,0.49658 q -0.79981,0 -1.40186,-0.3164 l 0.14942,-0.61963 q 0.70752,0.3208 1.23486,0.3208 q 0.61523,0 0.98438,-0.31641 q 0.37353,-0.3208 0.37353,-0.8789 q 0,-0.41309 -0.2417,-0.69874 q -0.2417,-0.29003 -0.89209,-0.58886 q -0.66797,-0.30762 -0.86572,-0.41748 q -0.19336,-0.11426 -0.38672,-0.31201 q -0.19336,-0.19776 -0.29883,-0.44385 q -0.10547,-0.2461 -0.10547,-0.53613 q 0,-0.76905 0.55371,-1.19971 q 0.55371,-0.43067 1.40186,-0.43067 q 0.61963,0 1.23047,0.18897 z M 168.76904,142 h -3.23877 v -6.20068 h 3.21241 v 0.62841 h -2.4917 v 1.92041 h 2.39502 v 0.62842 h -2.39502 v 2.39502 h 2.51806 z"
     id="text12"
     style="font-size:9px;font-family:Recursive, monospace;letter-spacing:1;fill:#5a6f8a"
     aria-label="DEFENSE" />
  <path
     d="m 264.21094,123.84277 q 0.75732,0.17725 1.18701,0.6875 q 0.42969,0.51026 0.42969,1.21387 q 0,1.03125 -0.75196,1.64356 Q 264.3291,128 263.27637,128 h -2.15381 v -7.57861 h 2.1001 q 1.0957,0 1.71338,0.4834 q 0.61767,0.47802 0.61767,1.35351 q 0,0.53711 -0.35986,0.95606 q -0.35449,0.41894 -0.98291,0.60693 z m -2.20752,-0.4082 h 1.03125 q 1.6167,0 1.6167,-1.15478 q 0,-0.52637 -0.39746,-0.80567 q -0.39746,-0.28467 -1.16553,-0.28467 h -1.08496 z m 0,3.79736 h 0.99902 q 0.87549,0 1.38574,-0.39746 q 0.51563,-0.39746 0.51563,-1.09033 q 0,-0.73584 -0.50488,-1.13867 q -0.50489,-0.40283 -1.46094,-0.40283 h -0.93457 z M 274.90674,128 h -1.10108 l -2.22363,-3.44287 h -0.97754 V 128 h -0.88086 v -7.57861 h 2.14307 q 1.07959,0 1.70264,0.52636 q 0.62841,0.521 0.62841,1.45557 q 0,0.69287 -0.45654,1.23535 q -0.45654,0.53711 -1.25684,0.73047 z m -4.30225,-4.21094 h 1.11182 q 0.69824,0 1.1333,-0.37597 q 0.43506,-0.38135 0.43506,-0.95606 q 0,-1.26758 -1.54688,-1.26758 h -1.1333 z M 282.18652,128 h -3.44287 v -0.76807 h 1.30518 v -6.04248 h -1.30518 v -0.76806 h 3.44287 v 0.76806 h -1.25683 v 6.04248 h 1.25683 z m 4.73926,-7.57861 h 1.49317 q 1.48779,0 2.38476,1.01513 q 0.89697,1.00977 0.89697,2.77686 q 0,1.80469 -0.91308,2.79834 Q 289.87988,128 288.45654,128 h -1.53076 z m 0.88086,6.81054 h 0.62305 q 1.07959,0 1.70801,-0.80029 q 0.62841,-0.80029 0.62841,-2.21826 q 0,-1.40723 -0.63379,-2.21289 q -0.62841,-0.81104 -1.70263,-0.81104 h -0.62305 z m 12.33936,0.23096 q -0.9292,0.68213 -2.05713,0.68213 q -1.47705,0 -2.23975,-0.99902 q -0.76269,-1.0044 -0.76269,-2.93262 q 0,-1.86377 0.73584,-2.90039 q 0.74121,-1.03662 2.2666,-1.03662 q 0.54785,0 1.08496,0.13965 q 0.53711,0.13964 0.86474,0.3706 l -0.29003,0.69287 q -0.75733,-0.42969 -1.65967,-0.42969 q -1.042,0 -1.55762,0.7627 q -0.51025,0.7627 -0.51025,2.40088 q 0,3.1582 2.06787,3.1582 q 0.77881,0 1.17627,-0.32763 v -1.86915 h -1.36426 v -0.76269 H 300.146 Z M 308.33887,128 h -3.9585 v -7.57861 h 3.92627 v 0.76806 h -3.04541 v 2.34717 h 2.92725 v 0.76807 h -2.92725 v 2.92724 h 3.07764 z"
     id="text13"
     style="font-weight:600;font-size:11px;font-family:Recursive, monospace;letter-spacing:2;fill:#f97316"
     aria-label="BRIDGE" />
  <path
     d="m 260.91846,135.79932 h 1.22168 q 1.21728,0 1.95117,0.83056 q 0.73389,0.82617 0.73389,2.27198 q 0,1.47656 -0.74708,2.28955 Q 263.33545,142 262.1709,142 h -1.25244 z m 0.7207,5.57226 h 0.50977 q 0.8833,0 1.39746,-0.65478 q 0.51416,-0.65479 0.51416,-1.81494 q 0,-1.15137 -0.51856,-1.81055 q -0.51416,-0.66358 -1.39306,-0.66358 h -0.50977 z M 270.76465,142 h -3.23877 v -6.20068 h 3.2124 v 0.62841 h -2.4917 v 1.92041 h 2.39502 v 0.62842 h -2.39502 v 2.39502 h 2.51807 z m 3.16211,-6.20068 H 275.5 q 0.89209,0 1.42822,0.44824 q 0.53614,0.44824 0.53614,1.23486 q 0,0.79102 -0.53614,1.26563 q -0.53174,0.47021 -1.39746,0.47021 h -0.8833 V 142 h -0.7207 z m 0.7207,2.79052 h 0.78223 q 1.27002,0 1.27002,-1.06347 q 0,-0.49219 -0.34717,-0.79541 q -0.34277,-0.30323 -0.8877,-0.30323 h -0.81738 z M 283.70264,142 h -3.375 v -6.20068 h 0.7207 v 5.57226 h 2.6543 z m 4.59033,-6.31934 q 1.0415,0 1.58642,0.82618 q 0.54932,0.82177 0.54932,2.39502 q 0,1.56445 -0.54492,2.39062 q -0.54492,0.82617 -1.59082,0.82617 q -1.03711,0 -1.58643,-0.82178 q -0.54492,-0.82617 -0.54492,-2.39501 q 0,-1.56885 0.54492,-2.39502 q 0.54492,-0.82618 1.58643,-0.82618 z m 0,5.80518 q 1.37109,0 1.37109,-2.58398 q 0,-2.58838 -1.37109,-2.58838 q -0.66797,0 -1.01953,0.67236 q -0.34717,0.66797 -0.34717,1.91602 q 0,1.26123 0.34717,1.9248 q 0.34717,0.65918 1.01953,0.65918 z m 8.7168,-5.68652 l -1.93799,3.54638 V 142 h -0.71631 v -2.6543 l -1.93799,-3.54638 h 0.81299 l 1.48096,2.79052 l 1.48535,-2.79052 z M 303.10303,142 h -0.69434 v -5.31738 l -0.93603,2.54443 h -0.68116 l -0.93603,-2.54443 V 142 h -0.69434 v -6.20068 h 0.93604 l 1.03711,2.82568 l 1.03271,-2.82568 h 0.93604 z m 6.06689,0 h -3.23877 v -6.20068 h 3.2124 v 0.62841 h -2.49169 v 1.92041 h 2.39501 v 0.62842 h -2.39501 v 2.39502 h 2.51806 z m 6.60742,0 h -0.7998 l -2.22363,-4.89551 V 142 h -0.72071 v -6.20068 h 0.8042 l 2.23242,4.85156 v -4.85156 h 0.70752 z m 6.80957,-5.61621 h -1.91162 V 142 h -0.71631 v -5.61621 h -1.92041 v -0.58447 h 4.54834 z"
     id="text14"
     style="font-size:9px;font-family:Recursive, monospace;letter-spacing:1;fill:#5a6f8a"
     aria-label="DEPLOYMENT" />
  <path
     d="m 384.21094,123.84277 q 0.75732,0.17725 1.18701,0.6875 q 0.42969,0.51026 0.42969,1.21387 q 0,1.03125 -0.75196,1.64356 Q 384.3291,128 383.27637,128 h -2.15381 v -7.57861 h 2.1001 q 1.0957,0 1.71338,0.4834 q 0.61767,0.47802 0.61767,1.35351 q 0,0.53711 -0.35986,0.95606 q -0.35449,0.41894 -0.98291,0.60693 z m -2.20752,-0.4082 h 1.03125 q 1.6167,0 1.6167,-1.15478 q 0,-0.52637 -0.39746,-0.80567 q -0.39746,-0.28467 -1.16553,-0.28467 h -1.08496 z m 0,3.79736 h 0.99902 q 0.87549,0 1.38574,-0.39746 q 0.51563,-0.39746 0.51563,-1.09033 q 0,-0.73584 -0.50488,-1.13867 q -0.50489,-0.40283 -1.46094,-0.40283 h -0.93457 z M 393.93457,128 h -3.9585 v -7.57861 h 3.92627 v 0.76806 h -3.04541 v 2.34717 h 2.92725 v 0.76807 h -2.92725 v 2.92724 h 3.07764 z m 9.58398,0 h -0.92382 l -0.83789,-2.65332 h -2.48682 L 398.42139,128 h -0.91309 l 2.47607,-7.57861 h 1.05811 z m -2.01416,-3.42139 l -0.99365,-3.13672 l -0.98828,3.13672 z M 411.54492,128 h -0.84863 v -6.49902 l -1.14404,3.10986 h -0.83252 l -1.14405,-3.10986 V 128 h -0.84863 v -7.57861 h 1.14404 l 1.26758,3.45361 l 1.26221,-3.45361 h 1.14404 z"
     id="text15"
     style="font-weight:600;font-size:11px;font-family:Recursive, monospace;letter-spacing:2;fill:#f97316"
     aria-label="BEAM" />
  <path
     d="m 382.68945,135.68066 q 1.04151,0 1.58643,0.82618 q 0.54932,0.82177 0.54932,2.39502 q 0,1.56445 -0.54493,2.39062 q -0.54492,0.82617 -1.59082,0.82617 q -1.03711,0 -1.58642,-0.82178 q -0.54492,-0.82617 -0.54492,-2.39501 q 0,-1.56885 0.54492,-2.39502 q 0.54492,-0.82618 1.58642,-0.82618 z m 0,5.80518 q 1.3711,0 1.3711,-2.58398 q 0,-2.58838 -1.3711,-2.58838 q -0.66797,0 -1.01953,0.67236 q -0.34717,0.66797 -0.34717,1.91602 q 0,1.26123 0.34717,1.9248 q 0.34717,0.65918 1.01953,0.65918 z m 7.15674,-2.88721 q 0.61963,0.14502 0.97119,0.5625 q 0.35157,0.41748 0.35157,0.99317 q 0,0.84375 -0.61524,1.34472 Q 389.94287,142 389.08154,142 h -1.7622 v -6.20068 h 1.71826 q 0.89648,0 1.40185,0.3955 q 0.50537,0.39112 0.50537,1.10743 q 0,0.43945 -0.29443,0.78222 q -0.29004,0.34278 -0.8042,0.49658 z m -1.80615,-0.33398 h 0.84375 q 1.32275,0 1.32275,-0.94483 q 0,-0.43066 -0.32519,-0.65918 q -0.3252,-0.23291 -0.95362,-0.23291 h -0.88769 z m 0,3.10693 h 0.81738 q 0.71631,0 1.13379,-0.32519 q 0.42188,-0.3252 0.42188,-0.89209 q 0,-0.60205 -0.41309,-0.93164 q -0.41309,-0.32959 -1.19531,-0.32959 h -0.76465 z m 8.78271,-4.88672 q -0.55371,-0.18896 -1.05029,-0.18896 q -0.5625,0 -0.91846,0.25928 q -0.35156,0.25488 -0.35156,0.72949 q 0,0.5625 0.92725,0.98877 q 0.68554,0.3164 0.90527,0.43945 q 0.22412,0.12305 0.45264,0.33838 q 0.22851,0.21533 0.36474,0.50977 q 0.14063,0.29003 0.14063,0.65478 q 0,0.90527 -0.61084,1.40625 q -0.60645,0.49658 -1.43262,0.49658 q -0.7998,0 -1.40185,-0.3164 l 0.14941,-0.61963 q 0.70752,0.3208 1.23486,0.3208 q 0.61524,0 0.98438,-0.31641 q 0.37353,-0.3208 0.37353,-0.8789 q 0,-0.41309 -0.2417,-0.69874 q -0.24169,-0.29003 -0.89209,-0.58886 q -0.66796,-0.30762 -0.86572,-0.41748 q -0.19336,-0.11426 -0.38672,-0.31201 q -0.19336,-0.19776 -0.29882,-0.44385 q -0.10547,-0.2461 -0.10547,-0.53613 q 0,-0.76905 0.55371,-1.19971 q 0.55371,-0.43067 1.40185,-0.43067 q 0.61963,0 1.23047,0.18897 z M 403.56641,142 h -3.23877 v -6.20068 h 3.2124 v 0.62841 h -2.4917 v 1.92041 h 2.39502 v 0.62842 h -2.39502 v 2.39502 h 2.51807 z m 7.19629,0 h -0.90088 l -1.81934,-2.81689 h -0.7998 V 142 h -0.72071 v -6.20068 h 1.75342 q 0.8833,0 1.39307,0.43066 q 0.51416,0.42627 0.51416,1.19092 q 0,0.56689 -0.37354,1.01074 q -0.37353,0.43945 -1.02832,0.59766 z m -3.52002,-3.44531 h 0.90966 q 0.57129,0 0.92725,-0.30762 q 0.35596,-0.31201 0.35596,-0.78223 q 0,-1.03711 -1.26563,-1.03711 h -0.92724 z m 9.90771,-2.75537 L 415.12891,142 h -0.86573 l -2.02588,-6.20068 h 0.75586 l 1.70069,5.36572 l 1.70947,-5.36572 z M 423.57324,142 h -0.75586 l -0.68554,-2.1709 h -2.03467 L 419.40283,142 h -0.74707 l 2.02588,-6.20068 h 0.86572 z m -1.64795,-2.79932 l -0.81299,-2.5664 l -0.80859,2.5664 z m 6.32617,-0.60205 q 0.61963,0.14502 0.9712,0.5625 q 0.35156,0.41748 0.35156,0.99317 q 0,0.84375 -0.61524,1.34472 Q 428.34814,142 427.48682,142 h -1.76221 v -6.20068 h 1.71826 q 0.89649,0 1.40186,0.3955 q 0.50537,0.39112 0.50537,1.10743 q 0,0.43945 -0.29444,0.78222 q -0.29004,0.34278 -0.8042,0.49658 z m -1.80615,-0.33398 h 0.84375 q 1.32276,0 1.32276,-0.94483 q 0,-0.43066 -0.3252,-0.65918 q -0.32519,-0.23291 -0.95361,-0.23291 h -0.8877 z m 0,3.10693 h 0.81739 q 0.7163,0 1.13378,-0.32519 q 0.42188,-0.3252 0.42188,-0.89209 q 0,-0.60205 -0.41309,-0.93164 q -0.41308,-0.32959 -1.19531,-0.32959 h -0.76465 z M 435.28516,142 h -2.8169 v -0.62842 h 1.06787 v -4.94385 h -1.06787 v -0.62841 h 2.8169 v 0.62841 h -1.02832 v 4.94385 h 1.02832 z m 6.82275,0 h -3.375 v -6.20068 h 0.7207 v 5.57226 h 2.6543 z m 5.979,0 h -2.81689 v -0.62842 h 1.06787 v -4.94385 h -1.06787 v -0.62841 h 2.81689 v 0.62841 h -1.02832 v 4.94385 h 1.02832 z m 7.30176,-5.61621 h -1.91162 V 142 h -0.71631 v -5.61621 h -1.92041 v -0.58447 h 4.54834 z m 6.42725,-0.58447 l -1.93799,3.54638 V 142 h -0.71631 v -2.6543 l -1.93799,-3.54638 h 0.81299 l 1.48096,2.79052 l 1.48535,-2.79052 z"
     id="text16"
     style="font-size:9px;font-family:Recursive, monospace;letter-spacing:1;fill:#5a6f8a"
     aria-label="OBSERVABILITY" />
</svg>
