<?xml version="1.0" encoding="UTF-8" standalone="no"?>
<svg
   width="190"
   height="36"
   viewBox="0 0 190 36"
   version="1.1"
   id="svg9"
   xmlns="http://www.w3.org/2000/svg"
   xmlns:svg="http://www.w3.org/2000/svg">
  <defs
     id="defs1">
    <style
       id="style1">@import url('https://fonts.googleapis.com/css2?family=Recursive:slnt,wght,CASL,CRSV,MONO@-15..0,300..900,0..1,0..1,0..1&amp;display=swap');</style>
  </defs>
  <!-- Icon (scaled to 36px) -->
  <g
     transform="scale(0.327)"
     id="g9">
    <rect
       width="110"
       height="110"
       fill="#0c1220"
       id="rect1"
       x="0"
       y="0" />
    <line
       x1="18"
       y1="50"
       x2="92"
       y2="50"
       stroke="#1e90ff"
       stroke-width="1.5"
       stroke-linecap="square"
       opacity="0.25"
       id="line1" />
    <path
       d="m 20,50 a 35,32 0 0 1 70,0"
       fill="none"
       stroke="#f97316"
       stroke-width="5"
       stroke-linecap="square"
       id="path1" />
    <path
       d="m 34,50 a 21,19 0 0 1 42,0"
       fill="none"
       stroke="#f97316"
       stroke-width="2.5"
       stroke-linecap="square"
       opacity="0.45"
       id="path2" />
    <circle
       cx="55"
       cy="50"
       r="4.5"
       fill="#f97316"
       id="circle2" />
    <line
       x1="55"
       y1="55"
       x2="26"
       y2="94"
       stroke="#1e90ff"
       stroke-width="3.5"
       stroke-linecap="square"
       id="line2" />
    <line
       x1="55"
       y1="55"
       x2="84"
       y2="94"
       stroke="#1e90ff"
       stroke-width="3.5"
       stroke-linecap="square"
       id="line3" />
    <line
       x1="55"
       y1="55"
       x2="18"
       y2="82"
       stroke="#f97316"
       stroke-width="2"
       stroke-linecap="square"
       opacity="0.45"
       id="line4" />
    <line
       x1="55"
       y1="55"
       x2="92"
       y2="82"
       stroke="#f97316"
       stroke-width="2"
       stroke-linecap="square"
       opacity="0.45"
       id="line5" />
    <g
       stroke="#5a6f8a"
       stroke-width="1.5"
       fill="none"
       opacity="0.3"
       id="g8">
      <polyline
         points="8,20 8,8 20,8"
         id="polyline5" />
      <polyline
         points="90,8 102,8 102,20"
         id="polyline6" />
      <polyline
         points="102,90 102,102 90,102"
         id="polyline7" />
      <polyline
         points="20,102 8,102 8,90"
         id="polyline8" />
    </g>
  </g>
  <!-- Wordmark only -->
  <path
     d="M 56.957031,24 H 55.195312 V 16.480469 H 50.006836 V 24 H 48.245117 V 8.8427734 h 1.761719 v 6.0908206 h 5.188476 V 8.8427734 h 1.761719 z M 67.276367,8.5527344 q 2.545899,0 3.87793,2.0195316 q 1.342773,2.008789 1.342773,5.854492 q 0,3.824219 -1.332031,5.84375 q -1.332031,2.019531 -3.888672,2.019531 q -2.535156,0 -3.87793,-2.008789 q -1.332031,-2.019531 -1.332031,-5.854492 q 0,-3.834961 1.332031,-5.854492 q 1.332032,-2.0195316 3.87793,-2.0195316 z m 0,14.1904296 q 3.351563,0 3.351563,-6.316406 q 0,-6.327149 -3.351563,-6.327149 q -1.632812,0 -2.492187,1.643555 q -0.848633,1.632813 -0.848633,4.683594 q 0,3.083008 0.848633,4.705078 q 0.848632,1.611328 2.492187,1.611328 z M 88.015625,24 H 85.813477 L 81.366211,17.114258 H 79.411133 V 24 H 77.649414 V 8.8427734 h 4.286133 q 2.15918,0 3.405273,1.0527344 q 1.256836,1.0419922 1.256836,2.9111332 q 0,1.385742 -0.913086,2.470703 q -0.913086,1.074218 -2.513672,1.460937 z m -8.604492,-8.421875 h 2.223633 q 1.396484,0 2.266601,-0.751953 q 0.870117,-0.762695 0.870117,-1.912109 q 0,-2.535157 -3.09375,-2.535157 H 79.411133 Z M 100.0752,24 h -6.885747 v -1.536133 h 2.610352 V 10.378906 H 93.189453 V 8.8427734 h 6.885747 v 1.5361326 h -2.513677 v 12.084961 h 2.513677 z m 15.90527,-13.900391 l -7.20801,12.364258 h 7.0791 V 24 h -9.08789 v -1.235352 l 7.17578,-12.385742 H 107.0752 V 8.8427734 h 8.90527 z m 10.10449,-1.5468746 q 2.5459,0 3.87793,2.0195316 q 1.34277,2.008789 1.34277,5.854492 q 0,3.824219 -1.33203,5.84375 q -1.33203,2.019531 -3.88867,2.019531 q -2.53516,0 -3.87793,-2.008789 Q 120.875,20.261719 120.875,16.426758 q 0,-3.834961 1.33203,-5.854492 q 1.33203,-2.0195316 3.87793,-2.0195316 z m 0,14.1904296 q 3.35156,0 3.35156,-6.316406 q 0,-6.327149 -3.35156,-6.327149 q -1.63281,0 -2.49219,1.643555 q -0.84863,1.632813 -0.84863,4.683594 q 0,3.083008 0.84863,4.705078 q 0.84864,1.611328 2.49219,1.611328 z M 145.38477,24 h -1.95508 L 137.99414,12.033203 V 24 h -1.76172 V 8.8427734 h 1.96582 l 5.45703,11.8593746 V 8.8427734 h 1.7295 z"
     id="text9"
     style="font-weight:700;font-size:22px;font-family:Recursive, monospace;letter-spacing:1.5;fill:#f97316"
     aria-label="HORIZON" />
</svg>
